<?xml version="1.0" encoding="UTF-8"?>
<svg id="Calque_1" xmlns="http://www.w3.org/2000/svg" version="1.1" viewBox="0 0 64 64">
  <!-- Generator: Adobe Illustrator 29.4.0, SVG Export Plug-In . SVG Version: 2.1.0 Build 152)  -->
  <defs>
    <style>
      .st0 {
        fill: #6a6af4;
      }
    </style>
  </defs>
  <path class="st0" d="M32,64c-5.6,0-11-1.4-15.8-4.2-4.8-2.7-8.9-6.7-11.7-11.5C1.6,43.5.1,38.1,0,32.5c0-5.6,1.3-11,3.9-15.9,0,0,.1-.2.2-.2,0,0,.2-.1.3-.1,0,0,.2,0,.3,0s.2,0,.3,0c0,0,.2.1.2.2,0,0,.1.2.1.3,0,0,0,.2,0,.3,0,0,0,.2,0,.3-3.6,6.6-4.7,14.2-3,21.5,1.7,7.3,6,13.7,12.1,18,6.1,4.3,13.6,6.3,21,5.4,7.4-.8,14.3-4.4,19.3-10,5-5.6,7.8-12.8,7.8-20.3,0-7.5-2.7-14.7-7.7-20.3-5-5.6-11.8-9.2-19.3-10.1-7.4-.9-14.9,1-21.1,5.3-.2,0-.3.1-.5,0-.2,0-.3-.1-.4-.3-.1-.2-.2-.3-.1-.5,0-.2.1-.3.3-.5C17.8,2.9,22.5,1,27.5.3c5-.7,10-.2,14.8,1.4,4.8,1.6,9.1,4.3,12.6,7.9,3.5,3.6,6.1,8,7.6,12.8,1.5,4.8,1.9,9.9,1.1,14.8-.8,5-2.8,9.7-5.8,13.7-3,4.1-6.9,7.4-11.3,9.6s-9.4,3.5-14.5,3.5h0Z"/>
  <path class="st0" d="M10.2,30.9l5.7-5.7,16.8,16.8-5.7,5.7L10.2,30.9Z"/>
  <path class="st0" d="M47,16.2l5.7,5.7-25.7,25.7-5.7-5.7,25.7-25.7Z"/>
</svg>