<?xml version="1.0" encoding="UTF-8"?>
<svg id="Calque_1" xmlns="http://www.w3.org/2000/svg" version="1.1" viewBox="0 0 384 384">
  <!-- Generator: Adobe Illustrator 29.4.0, SVG Export Plug-In . SVG Version: 2.1.0 Build 152)  -->
  <defs>
    <style>
      .st0, .st1 {
        fill: none;
      }

      .st2 {
        fill: #f6bd5f;
      }

      .st3 {
        fill: #845d48;
      }

      .st4 {
        stroke: #3a3a3a;
        stroke-width: .5px;
      }

      .st4, .st5 {
        fill: #3a3a3a;
      }

      .st4, .st1 {
        stroke-miterlimit: 10;
      }

      .st6 {
        fill: #cacafb;
      }

      .st7 {
        fill: #e4794a;
      }

      .st8 {
        fill: #fff;
      }

      .st9 {
        fill: #f0f0fc;
      }

      .st10 {
        fill: #6a6af4;
      }

      .st1 {
        stroke: #bb6540;
        stroke-width: 1.7px;
      }
    </style>
  </defs>
  <path class="st3" d="M276.7,97.6l3.8,32.1s-.2,20.3,11.4,22.5c11.6,2.2,11,.5,11,.5,0,0-2.5,17.2.6,20.2s7,0,7,0c0,0,17.1-3.1,19.1-14.6,2-11.5-1.2-32.7-1.2-32.7l13-7.2v-8.8l-8.3-2.2-10.6-3.2-23.2-14.9-24.3,4.6,1.6,3.7Z"/>
  <path class="st9" d="M7.7,150.7c15.2-33.2,67.7-52.4,128.2-62.6,60.6-10.2,170.3,61.4,184.9,119.7,14.6,58.2-57.2,116.5-100.2,143.2-43,26.8-125.7,12.6-167.1-23.3C12.1,291.7-13.8,197.6,7.7,150.7Z"/>
  <path class="st3" d="M183.1,182.8c-.4,0-9.8-1.5-10.5,1-.8,2.5,11.9,4.6,11.9,4.6,0,0-6.8,0-7.3,2-.4,1.4,11.2,2.8,17.9,3.6h0c5.2,13.1,27.6,60.6,37.4,65.7,6,3.1,16.8,4.4,23.3.5l6.2-3.5,2.5-21.5s-9.2-.3-11.8-.7c-5-.8-9.8-3.9-9.8-3.9l-2.5.3c-.6-2.2-26.8-46.3-31.5-55.7-3.5-7-17.1-15-18.8-13-1.7,2,5.1,9.4,5.1,9.4,0,0-20.3-5.3-21.1-2.5-.8,2.7,10.8,7.3,10.8,7.3,0,0-12.1-3.2-13,0-1,3.1,10.9,6.4,11.3,6.5Z"/>
  <g>
    <path class="st0" d="M348.1,21.2c-.6-4.1-3.7-8.2-7.1-10.9-3.6-2.9-7.4-4.6-10.1-4.6h0c-1.3,0-2.3.3-3,1.1-.8.9-.3,2.3.3,3.3,2.9,5.3,13.4,12.3,19.9,11.1Z"/>
    <path class="st0" d="M327.9,31.1c-1.6-1.1-3.5-2-4.9-2h0c-.4,0-.8,0-1.1.2-.4.2-.7.4-.9.7-.4.5-.4,1.1-.1,1.8,1.1,2.6,6.3,6,11.5,6.4.3,0,.7,0,1,0-.6-2.6-2.8-5.4-5.4-7.2Z"/>
    <path class="st0" d="M328.5,125.6c-.1-.1-2.2.5-2.6,0-.6-.9,1-.6,1.3-.6,2-.2,6.7-2.8,8.4-4.1,5.7-4.3,1.1-13-5.7-10.7l-6.4,3.6h-.4c0-.1,0-.8,0-.8-3.2-.3-6.1-2.3-7.3-5.3-.6-1.5-.7-1.7-1.5-3.1-.8-1.4-1.2-3-1.3-4.7-3-.1-5.9-2.1-7.1-4.9-.1,0-.5.5-.6.6h0c-4.6,4.4-12.1,2.5-13.9-3.6-1.4,1.2-3,1.9-4.8,2.2,1.2,5.1-2.4,9.9-7.6,10.4l-.2.6c-.1,2.9.5,9.6.5,9.6l1.6,20.9c1.2,11.5,10.6,18.6,22,17.1,6.6-.9,12.7-4.1,17.3-8.8,0,0,.2-.2.2-.3-.6-.5-1.1-.9-1.7-1.3.6.4,1.1.9,1.7,1.3,3.1-3.2,5.5-7,6.9-11.2.7-2.1,1.4-4.6,1.2-6.8ZM289.8,117.7c0,.2-.1.4-.3.6-.2.2-.4.3-.7.3h0s-.2,0-.2,0c-.1,0-.3,0-.4,0-.1,0-.2-.1-.3-.2,0,0-.2-.2-.2-.3s0-.2,0-.3l.2-2.1c0-.1,0-.2.1-.3,0-.1.1-.2.2-.3.1,0,.2-.1.4-.2.1,0,.3,0,.4,0s.3,0,.4,0c.1,0,.2.1.3.2,0,0,.2.2.2.3,0,.1,0,.2,0,.3v2.1ZM292.1,108.7c0,.1-.1.2-.2.3-.2.2-.4.3-.7.3h0c-.3,0-.5,0-.7-.1-.3-.2-.7-.3-1-.2-.4,0-.7.2-1,.4-.2.1-.5.2-.8.2-.3,0-.5-.1-.7-.3-.2-.2-.3-.4-.3-.6,0-.2.1-.4.3-.6.6-.5,1.5-.8,2.3-.9.9,0,1.7.1,2.4.5.1,0,.2.2.3.3,0,.1.1.2.1.3s0,.2,0,.3ZM293.2,130.2c-1.1-1.6,2.6-8.4,3.8-9.5.2-.2.4-.3.7-.3s.5,0,.7.2c.2.2.3.4.3.6,0,.2,0,.5-.3.6-1.4,1.3-3.6,6.9-3.5,7.3.3.5,1.7.4,2.3.3.1,0,.3,0,.4,0,.1,0,.3,0,.4.1.1,0,.2.1.3.2s.1.2.2.3c0,.1,0,.2,0,.3,0,.1,0,.2-.2.3,0,.1-.2.2-.3.3-.1,0-.2.1-.4.1h-.5c0,0,0,0,0,0-1,.1-3,.2-4-1.1ZM303.3,139.3c0,.2-.2.3-.3.4-.2.1-.3.2-.5.2h0c-.2,0-.3,0-.4,0-.1,0-.3,0-.4-.2-.7-.5-2.7-1.7-4.4-1.2-.3,0-.5,0-.8,0-.2-.1-.4-.3-.5-.5s0-.5,0-.7.3-.4.6-.5c3.2-1,6.3,1.4,6.4,1.5.1.1.3.3.3.4,0,.2,0,.3,0,.5ZM310.5,119.6c0,.2-.1.4-.3.6-.2.2-.4.3-.7.3h0c0,0-.1,0-.2,0-.3,0-.5-.1-.7-.3-.2-.2-.3-.4-.3-.6l.2-2.1c0-.2.1-.5.3-.6.2-.2.5-.2.8-.2s.5.1.7.3c.2.2.3.4.3.6l-.2,2.1ZM312.5,115.1c0,.2-.2.4-.5.6-.1,0-.3.1-.4.1h0c-.2,0-.4,0-.6,0-.2,0-.3-.2-.4-.3-.2-.3-.5-.5-.8-.6-.3,0-.7,0-1.1,0-.3,0-.5,0-.8,0-.2,0-.4-.3-.5-.5,0-.2,0-.5,0-.7.1-.2.3-.4.6-.5.8-.3,1.7-.3,2.5,0,.8.2,1.5.7,1.9,1.3.1.2.2.4.1.7ZM332.8,113.7c.3.2,1.7,1.4,1.2,1.8-.6.3-.7-.4-1.1-.7-2.4-2.1-5.9-1.2-6.8,1.8,1.6-.3,2.9-.2,4.3.7.3.2,1.7,1.3,1.1,1.6-.3.2-1.3-.8-1.7-1.1-1-.6-1.9-.7-3-.6-1.5.2-1.1,1.3-.6,2.3.1.3,1.3,1.5.6,1.7-.6.2-1.5-1.8-1.7-2.3-1.1-4.4,3.8-8,7.6-5.5Z"/>
    <path class="st0" d="M331.3,20.9c-2.4-1.8-4.6-2.8-6.1-2.8s-1.4.2-1.8.8c-.1.2-.6.8,0,2,1.6,3.6,8.8,8.4,15.3,9.1-1.3-3.2-4.2-6.7-7.4-9.1Z"/>
    <path class="st0" d="M331.3,4.3c3.2.2,7.2,2.2,10.5,4.9,3.5,2.9,6.8,7.2,7.5,11.6,3.2-1.2,4.7-4.8,4.5-10.5,0,0,0-.2,0-.3,0,0,0-.2.1-.2,0,0,.1-.1.2-.2,0,0,.2,0,.2,0s.2,0,.2,0c0,0,.2,0,.2.1,0,0,.1.1.1.2,0,0,0,.2,0,.3.2,8.1-2.9,11-5.7,11.9,0,1.8-.4,3.5-1.2,5.1-1.5,2.7-4.1,4.2-7.7,4.3.4,1.8.2,3.5-.7,4.9-1.1,1.8-2.9,2.8-5.2,3.1,0,1-.2,2-.7,2.9-1.3,2.3-3.4,3.1-5.5,3.1,0,0,0,0,0,0h0s0,0,0,0c-2.4,0-4.9-1-6.5-1.8-.2,0-.3-.2-.3-.4,0-.2,0-.4,0-.5,0-.2.2-.3.4-.3.2,0,.3,0,.5,0,0,0,7.6,4.2,10.3-.7.3-.6.5-1.4.5-2.1-.4,0-.8,0-1.2,0-5.2-.5-11.2-3.9-12.6-7.2-.5-1.2-.4-2.3.3-3.2,1.6-2.2,5-1.9,8.7.7,2.1,1.4,3.8,3.4,5.1,5.7.4.8.8,1.7.9,2.6,1.6-.2,3.2-.9,4.2-2.5.7-1.1.8-2.6.4-4.2-7.1-.5-15.1-5.9-16.9-10-.7-1.7-.3-2.8.2-3.5,1.6-2.2,5.3-1.6,9.6,1.7,3.3,2.5,6.8,6.5,8.1,10.4,2.4,0,5.3-.6,7-3.6.7-1.2,1-2.6,1.1-4-.6,0-1.1.1-1.7.1-7.1,0-16.6-6.7-19.4-11.9-1.5-2.8-.7-4.4,0-5,.9-.9,2.1-1.4,3.5-1.5H62.6v56.3c0-1.8.7-3.6,1.9-4.9,1.2-1.3,2.9-2,4.6-2h155.7c1.7,0,3.4.7,4.6,2,1.2,1.3,1.9,3.1,1.9,4.9v134.8c0,1.7-.6,3.2-1.7,4.4-1.1,1.2-2.6,1.8-4.2,1.8h-76.9l30.4,52.6c.6,1.1,1,2.3,1,3.6s-.3,2.5-1,3.6-1.5,2-2.6,2.6c-1.1.6-2.3,1-3.6,1h0s-74.7,0-74.7,0c-1.2,0-2.5-.3-3.6-1-1.1-.6-2-1.5-2.6-2.6-.6-1.1-1-2.3-1-3.6s.3-2.5,1-3.6l30.4-52.6h-53.3c-1.7,0-3.4-.7-4.6-2-1.2-1.3-1.9-3.1-1.9-4.9v123.1h321.4V4.3h-52.7ZM263.1,92.3c.6-4.2,3.5-7.8,7.5-9.2-1.9-5.8,2.7-11.5,8.7-11-.5-9,8.8-15.3,17-11.1,1.1.6,2,1.4,2.9,2.2,1.4-.9,2.9-1.4,4.6-1.5,1.9-8.6,14-8.8,16.2-.3,6.5-1.8,13.1,2,14.7,8.5.1,0,2-.3,2.4-.4,7.2-.3,11.2,8.2,6.7,13.8,10.3-1.3,16.9,10.7,10.4,18.8.9,2.7.6,5.6-1.1,8,3.7,3.6,3.1,10.1-1.2,12.8-.3.2-1.5.7-1.6.8-.2.2-.4,1.2-.6,1.6-.8,1.7-2,3-3.6,4,0,1.8-.2,3.4-.8,5-2.2,5.8-8.9,8.8-14.8,6.7l-.8-1.7c-.1-2.6-.4-5.5-.7-8,0-.4-.2-.8-.2-1.2-.7,2.7-1.7,5.4-3.1,7.8-.6,1.1-1.7,2.3-2.2,3.3-.7,1.1-1.5,2-2.4,2.9,1,.9,2,1.8,3,2.7-1-.9-2-1.8-3-2.7,0,.1-.2.2-.3.3-8.1,8.5-18.9,9.1-18.9,9.1-10.6,1.2-20.1-6.2-21.6-16.7-.2-1.7-.3-3.4-.4-5.1-2.4.5-4.6.6-7-.2-6.3-2-9.6-9.3-7.1-15.4.6-1.5,1.7-2.9,2.9-4.1-1.6-2.6-1.8-5.8-.5-8.5-3.5-2.7-5.6-6.8-5-11.3ZM378.9,252.8v.5c-9.3.7-19.1.7-28.1-1.2-6.7-1.4-10.2-3.3-10.6-4.5v-.2c0,0-.1.5-.1.5-11.2-13.3-21-23.3-28.6-37.6,0-2.6-.2-20.1-2.6-20.2-2.4,0-4.4,7.5-5,9.8l-14.4,19.6c0,.1,8.7,17.5,19.8,34.6,14.8,23,25.9,33.9,34.4,34.3,9.6.3,17.2-6.5,22.5-14.9l1.2-2c-.5,22.7-1.1,36.2-1.2,42.2-3,5.6-99.7,6.6-108.9-4.1.9-14.9,1-20.3,2.4-33.5,1.6-15.4,3.4-29.7,4.6-40.9-.9.1-1.9.2-2.8.2-5.8,0-13.7-1-18.7-4.8,2.7-10.5,16-54.2,24.3-60.5,9.2-7,23.7-10.3,35.1-11.5-.4,2.8.2,5.6.6,8.5.5,3.4,1.7,5.4,3.8,5.8,7.6,1.7,23-14,23-14,13.7.4,38.3,3.5,46.1,15.5,8.9,13.6,10.2,44.4,3.2,78.4Z"/>
    <path class="st6" d="M231.4,60.6c0-1.8-.7-3.6-1.9-4.9-1.2-1.3-2.9-2-4.6-2H69.1c-1.7,0-3.4.7-4.6,2-1.2,1.3-1.9,3.1-1.9,4.9v14h168.7v-14ZM77.4,68c-1.5,0-2.8-1.3-2.8-3s1.2-3,2.8-3,2.8,1.3,2.8,3-1.2,3-2.8,3ZM87.8,68c-1.5,0-2.8-1.3-2.8-3s1.2-3,2.8-3,2.8,1.3,2.8,3-1.2,3-2.8,3ZM98.2,68c-1.5,0-2.8-1.3-2.8-3s1.2-3,2.8-3,2.8,1.3,2.8,3-1.2,3-2.8,3Z"/>
    <path class="st10" d="M224.8,201.7h.6c1.6,0,3.1-.7,4.2-1.8,1.1-1.2,1.7-2.8,1.7-4.4v-.7c0,1.8-.7,3.6-1.9,4.9-1.2,1.3-2.9,2-4.6,2Z"/>
    <path class="st10" d="M69.1,201.7h53.3l6.9-12c.6-1.1,1.5-2,2.6-2.6,1.1-.6,2.3-1,3.6-1s2.5.3,3.6,1c1.1.6,2,1.5,2.6,2.6l7,12h76.2c1.7,0,3.4-.7,4.6-2,1.2-1.3,1.9-3.1,1.9-4.9h0v-120.1H62.6v120.1c0,1.8.7,3.6,1.9,4.9,1.2,1.3,2.9,2,4.6,2ZM168.4,101.2l4.6-4.9,7.2,7.6,7.2-7.7,4.6,4.9-7.2,7.7,7.2,7.7-4.6,4.9-7.2-7.7-7.2,7.6-4.6-4.9,7.2-7.6-7.2-7.6ZM144.1,157.2l14.9-11.1,14.9,11.1,13-9.7,3.7,5.7-16.7,12.5-14.9-11.1-14.9,11.1-14.9-11.1-14.9,11.1h0s-16.7-12.5-16.7-12.5l3.7-5.7,13,9.7,14.9-11.1,14.9,11.1ZM100.9,96.3l7.2,7.7,7.2-7.7,4.6,4.9-7.2,7.7,7.2,7.6-4.6,4.9-7.2-7.6-7.2,7.6-4.6-4.9,7.2-7.6-7.2-7.7,4.6-4.9Z"/>
    <path class="st10" d="M229.4,199.6c-1.2,1.3-2.9,2-4.6,2h0c1.7,0,3.4-.7,4.6-2,1.2-1.3,1.9-3.1,1.9-4.9h0c0,1.8-.7,3.6-1.9,4.9Z"/>
    <polygon class="st8" points="101.4 147.5 97.7 153.2 114.4 165.7 114.4 165.7 129.3 154.6 144.1 165.7 159 154.6 173.8 165.7 190.6 153.2 186.8 147.5 173.8 157.2 159 146.1 144.1 157.2 129.3 146.1 114.4 157.2 101.4 147.5"/>
    <polygon class="st8" points="119.8 101.2 115.2 96.3 108 103.9 112.7 108.9 119.8 101.2"/>
    <polygon class="st8" points="96.2 116.5 100.9 121.4 108 113.8 103.4 108.9 96.2 116.5"/>
    <polygon class="st8" points="108 103.9 100.9 96.3 96.2 101.2 103.4 108.9 108 103.9"/>
    <polygon class="st8" points="115.2 121.4 119.8 116.5 112.7 108.9 108 113.8 115.2 121.4"/>
    <polygon class="st8" points="108 113.8 112.7 108.9 108 103.9 103.4 108.9 108 113.8"/>
    <polygon class="st8" points="192 101.2 187.4 96.3 180.2 103.9 184.8 108.9 192 101.2"/>
    <polygon class="st8" points="173 121.4 180.2 113.8 175.6 108.9 168.4 116.5 173 121.4"/>
    <polygon class="st8" points="173 96.3 168.4 101.2 175.6 108.9 180.2 103.9 173 96.3"/>
    <polygon class="st8" points="187.4 121.4 192 116.5 184.8 108.9 180.2 113.8 187.4 121.4"/>
    <polygon class="st8" points="184.8 108.9 180.2 103.9 175.6 108.9 180.2 113.8 184.8 108.9"/>
    <path class="st8" d="M77.4,62.1c-1.5,0-2.8,1.3-2.8,3s1.2,3,2.8,3,2.8-1.3,2.8-3-1.2-3-2.8-3Z"/>
    <path class="st8" d="M87.8,62.1c-1.5,0-2.8,1.3-2.8,3s1.2,3,2.8,3,2.8-1.3,2.8-3-1.2-3-2.8-3Z"/>
    <path class="st8" d="M98.2,62.1c-1.5,0-2.8,1.3-2.8,3s1.2,3,2.8,3,2.8-1.3,2.8-3-1.2-3-2.8-3Z"/>
    <path class="st7" d="M264.4,234.8c0,.1,0,.2,0,.3h0c0-.1,0-.2,0-.3Z"/>
    <path class="st7" d="M329.6,158.8s-15.4,15.7-23,14c-2-.5-3.3-2.4-3.8-5.8-.4-2.9-1-5.6-.6-8.5-11.4,1.2-25.9,4.5-35.1,11.5-8.3,6.3-21.6,50-24.3,60.5,5,3.7,12.9,4.8,18.7,4.8s1.9,0,2.8-.2c0-.1,0-.2,0-.3,0,.1,0,.2,0,.3h0c-1.2,11.2-3,25.6-4.6,40.9-1.3,13.2-1.5,18.7-2.4,33.5,9.2,10.7,105.9,9.7,108.9,4.1,0-6,.7-19.5,1.2-42.2l-1.2,2c-5.3,8.4-12.9,15.2-22.5,14.9-8.6-.3-19.6-11.3-34.4-34.3-11-17.1-19.7-34.4-19.8-34.6l14.4-19.6c.7-2.3,2.6-9.8,5-9.8,2.5.1,2.6,17.6,2.6,20.2,7.6,14.2,17.4,24.3,28.6,37.6v-.5c0,0,.1.2.1.2.4,1.2,3.8,3.1,10.6,4.5,9,1.9,18.8,2,28,1.2v-.5c7.1-34.1,5.8-64.8-3.1-78.4-7.8-12-32.4-15.1-46.1-15.5Z"/>
    <polygon class="st7" points="328.5 45.6 328.5 45.6 328.5 45.6 328.5 45.6"/>
    <path class="st7" d="M327,10.8c2.9,5.2,12.3,11.9,19.4,11.9s1.1,0,1.7-.1c0,1.4-.4,2.8-1.1,4-1.6,2.9-4.6,3.6-7,3.6-1.4-3.9-4.9-7.9-8.1-10.4-4.3-3.3-8-3.9-9.6-1.7-.5.7-.9,1.8-.2,3.5,1.8,4.1,9.9,9.4,16.9,10,.4,1.6.3,3.1-.4,4.2-1,1.6-2.6,2.3-4.2,2.5-.2-.9-.5-1.8-.9-2.6-1.2-2.3-3-4.2-5.1-5.7-3.7-2.6-7.2-2.9-8.7-.7-.7.9-.7,2-.3,3.2,1.4,3.3,7.4,6.8,12.6,7.2.4,0,.8,0,1.2,0,0,.7-.2,1.5-.5,2.1-2.7,4.9-10.2.8-10.3.7-.1,0-.3-.1-.5,0-.2,0-.3.2-.4.3,0,.2-.1.4,0,.5,0,.2.2.3.3.4,1.6.9,4.1,1.8,6.5,1.8,2.2,0,4.3-.8,5.5-3.1.5-.9.7-1.9.7-2.9,2.3-.3,4.1-1.3,5.2-3.1.9-1.5,1.1-3.2.7-4.9,3.5,0,6.2-1.5,7.7-4.3.9-1.5,1.3-3.3,1.2-5.1,2.8-1,5.9-3.8,5.7-11.9,0,0,0-.2,0-.3,0,0,0-.2-.1-.2,0,0-.1-.1-.2-.1,0,0-.2,0-.2,0s-.2,0-.2,0c0,0-.2,0-.2.2,0,0-.1.1-.1.2,0,0,0,.2,0,.3.1,5.7-1.4,9.2-4.5,10.5-.7-4.5-4-8.7-7.5-11.6-3.3-2.7-7.3-4.7-10.5-4.9h-.9c-1.4,0-2.6.5-3.5,1.5-.6.7-1.5,2.2,0,5ZM323.5,21c-.6-1.3-.1-1.8,0-2,.4-.5,1-.8,1.8-.8,1.5,0,3.7,1,6.1,2.8,3.3,2.5,6.1,6,7.4,9.1-6.4-.7-13.7-5.5-15.3-9.1ZM332.3,38.2c-5.2-.5-10.4-3.8-11.5-6.4-.3-.7-.3-1.3.1-1.8.2-.3.6-.6.9-.7.4-.2.7-.2,1.1-.2h0c1.5,0,3.3.8,4.9,2,2.6,1.8,4.8,4.6,5.4,7.2-.3,0-.7,0-1,0ZM327.9,6.8c.7-.7,1.7-1.1,3-1.1h0c2.8,0,6.6,1.7,10.1,4.6,3.3,2.7,6.5,6.8,7.1,10.9-6.6,1.2-17-5.7-19.9-11.1-.6-1-1.1-2.5-.3-3.3Z"/>
    <path class="st2" d="M175.8,256.1c.3.5.4,1.1.4,1.7s-.2,1.2-.5,1.7c-.3.5-.7,1-1.2,1.3-.5.3-1.1.5-1.7.5h0-74.7c-.6,0-1.2-.2-1.7-.5-.5-.3-1-.7-1.3-1.3s-.5-1.1-.5-1.7.2-1.2.4-1.7l31.4-54.4h-4.2l-30.4,52.6c-.6,1.1-1,2.3-1,3.6s.3,2.5,1,3.6c.6,1.1,1.5,2,2.6,2.6,1.1.6,2.3,1,3.6,1h74.7c1.3,0,2.5-.3,3.6-.9,1.1-.6,2-1.5,2.6-2.6s1-2.3,1-3.6-.3-2.5-1-3.6l-30.4-52.6h-4.3l31.4,54.4Z"/>
    <path class="st2" d="M96.7,257c-.2.3-.2.6-.2.9s0,.6.2.9c.2.3.4.5.6.6.3.2.6.2.9.2h74.7c.3,0,.6,0,.9-.2.3-.2.5-.4.6-.6.2-.3.2-.6.2-.9s0-.6-.2-.9l-31.9-55.3h-13.8l-31.9,55.3ZM135.5,252.6c-1.7,0-3.1-1.4-3.1-3.1s1.4-3.1,3.1-3.1,3.1,1.4,3.1,3.1-1.4,3.1-3.1,3.1ZM132.2,211c.2-.2.5-.4.8-.6.3-.1.7-.2,1-.2h2.9c.3,0,.7,0,1,.2.3.1.6.3.8.6.2.2.4.5.5.9.1.3.2.7.2,1l-1.4,27.2c0,.7-.3,1.3-.8,1.7-.5.4-1.1.7-1.7.7h0c-.7,0-1.3-.2-1.7-.7-.5-.4-.8-1.1-.8-1.7l-1.4-27.2c0-.3,0-.7.2-1,.1-.3.3-.6.5-.9Z"/>
    <path class="st2" d="M136.4,191.7c-.3-.2-.6-.2-.9-.2s-.6,0-.9.2c-.3.2-.5.4-.6.6h0s-5.4,9.4-5.4,9.4h13.8l-5.4-9.4c-.1-.3-.4-.5-.6-.6Z"/>
    <path class="st2" d="M139.1,187c-1.1-.6-2.3-1-3.6-1s-2.5.3-3.6,1c-1.1.6-2,1.5-2.6,2.6l-6.9,12h4.2l5.9-10.2c.3-.5.7-1,1.3-1.2.5-.3,1.1-.5,1.7-.5s1.2.2,1.7.5c.5.3,1,.7,1.3,1.2l5.9,10.2h4.3l-7-12c-.6-1.1-1.5-2-2.6-2.6Z"/>
    <path class="st8" d="M94.7,257.8c0,.6.2,1.2.5,1.7s.7,1,1.3,1.3c.5.3,1.1.5,1.7.5h74.6c.6,0,1.2-.2,1.7-.5.5-.3.9-.7,1.2-1.3.3-.5.5-1.1.5-1.7s-.2-1.2-.4-1.7l-31.4-54.4h-2l31.9,55.3c.2.3.2.6.2.9s0,.6-.2.9c-.1.3-.4.5-.6.6-.3.2-.6.2-.9.2h-74.7c-.3,0-.6,0-.9-.2-.3-.1-.5-.4-.6-.6-.1-.3-.2-.6-.2-.9s0-.6.2-.9l31.9-55.3h-2l-31.4,54.4c-.3.5-.4,1.1-.4,1.7Z"/>
    <path class="st8" d="M134,192.3h0c.2-.3.4-.5.6-.7.3-.1.6-.2.9-.2s.6,0,.9.2c.3.2.5.4.6.6l5.4,9.4h2l-5.9-10.2c-.3-.5-.7-.9-1.3-1.2-.5-.3-1.1-.5-1.7-.5s-1.2.2-1.7.5c-.5.3-1,.7-1.3,1.2l-5.9,10.2h2l5.4-9.3Z"/>
    <path class="st8" d="M133,240.1c0,.7.3,1.3.8,1.7.5.4,1.1.7,1.7.7h0c.7,0,1.3-.3,1.7-.7.5-.4.8-1.1.8-1.7l1.4-27.2c0-.3,0-.7-.2-1-.1-.3-.3-.6-.5-.9-.2-.2-.5-.4-.8-.6-.3-.1-.7-.2-1-.2h-2.9c-.3,0-.7,0-1,.2-.3.1-.6.3-.8.6-.2.3-.4.5-.5.9-.1.3-.2.7-.2,1l1.4,27.2Z"/>
    <path class="st8" d="M135.5,246.5c-1.7,0-3.1,1.4-3.1,3.1s1.4,3.1,3.1,3.1,3.1-1.4,3.1-3.1-1.4-3.1-3.1-3.1Z"/>
    <path class="st5" d="M268.1,103.6c-1.3,2.8-1.1,6,.5,8.5-1.2,1.2-2.2,2.5-2.9,4.1-2.6,6.2.7,13.4,7.1,15.4,2.4.8,4.6.7,7,.2.2,1.7.2,3.4.4,5.1,1.5,10.5,11,17.9,21.6,16.7,0,0,10.8-.6,18.9-9.1,0-.1-.6-.7-.7-.6-4.6,4.7-10.7,7.9-17.3,8.8-11.4,1.5-20.8-5.6-22-17.1l-1.6-20.9s-.6-6.7-.5-9.6l.2-.6c5.2-.4,8.8-5.2,7.6-10.4,1.8-.3,3.4-1,4.8-2.2,1.8,6.1,9.3,8.1,13.9,3.6h0c0,0,.5-.7.6-.6,1.2,2.8,4,4.8,7.1,4.9,0,1.7.4,3.3,1.3,4.7.8,1.4.9,1.6,1.5,3.1,1.2,3,4.1,5,7.3,5.3v.7s.5.1.5.1l6.4-3.6c6.7-2.3,11.4,6.4,5.7,10.7-1.7,1.3-6.4,3.9-8.4,4.1-.3,0-1.9-.3-1.3.6.4.6,2.5,0,2.6,0,.2,2.3.5,5.4.5,5.8.3,2.6.6,5.5.7,8l.8,1.7c5.9,2.1,12.5-.8,14.8-6.7.6-1.7.8-3.3.8-5,1.6-1,2.8-2.3,3.6-4,.2-.4.4-1.4.6-1.6.1-.2,1.3-.6,1.6-.8,4.3-2.8,4.9-9.3,1.2-12.8,1.7-2.3,2.1-5.3,1.1-8,6.5-8.1,0-20-10.4-18.8,4.5-5.6.5-14-6.7-13.8-.4,0-2.3.4-2.4.4-1.6-6.5-8.2-10.4-14.7-8.5-2.2-8.6-14.3-8.4-16.2.3-1.7,0-3.2.6-4.6,1.5-1-.8-1.8-1.6-2.9-2.2-8.1-4.2-17.5,2.1-17,11.1-6-.5-10.6,5.2-8.7,11-4,1.4-6.9,5-7.5,9.2-.6,4.5,1.5,8.6,5,11.3ZM280.7,134.7c0-.1,0-.2-.1-.3,0,.1,0,.2.1.3Z"/>
    <polygon class="st4" points="326.1 116.7 326.1 116.7 326 116.7 326.1 116.7"/>
    <path class="st4" d="M326.8,121.5c.7-.2-.4-1.4-.6-1.7-.5-1.1-.9-2.1.6-2.3,1.1-.1,2,0,3,.6.4.2,1.4,1.3,1.7,1.1.5-.4-.8-1.4-1.1-1.6-1.4-.9-2.7-1-4.3-.7h0s0,0,0,0c0,0,0,0,0,0,.9-3.1,4.4-3.9,6.8-1.8.4.3.5,1,1.1.7.5-.4-.9-1.6-1.2-1.8-3.8-2.6-8.8,1-7.6,5.5.1.5,1,2.5,1.7,2.3Z"/>
    <path class="st5" d="M303,138.4c-.1-.1-3.3-2.4-6.4-1.5-.3,0-.5.2-.6.5s-.2.5,0,.7.3.4.5.5c.2.1.5.1.8,0,1.6-.5,3.7.7,4.4,1.2.1,0,.2.1.4.2.1,0,.3,0,.4,0h0c.2,0,.4,0,.5-.2.2-.1.3-.3.3-.4,0-.2,0-.3,0-.5,0-.2-.2-.3-.3-.4Z"/>
    <path class="st5" d="M291.7,107.7c-.7-.4-1.5-.6-2.4-.5-.9,0-1.7.4-2.3.9-.2.2-.3.4-.3.6,0,.2,0,.4.3.6.2.2.4.3.7.3.3,0,.5,0,.8-.2.3-.2.6-.4,1-.4.4,0,.7,0,1,.2.2.1.5.2.7.1h0c.3,0,.5-.2.7-.3,0,0,.1-.2.2-.3,0-.1,0-.2,0-.3s0-.2-.1-.3c0-.1-.2-.2-.3-.3Z"/>
    <path class="st5" d="M310.5,112.2c-.8-.2-1.7-.2-2.5,0-.3,0-.5.3-.6.5-.1.2-.1.5,0,.7,0,.2.3.4.5.5.2.1.5.1.8,0,.3-.1.7-.1,1.1,0,.3,0,.6.3.8.6.1.1.3.3.4.3.2,0,.4,0,.6,0h0c.1,0,.3,0,.4-.1.2-.1.4-.3.5-.6,0-.2,0-.5-.1-.7-.4-.6-1.1-1.1-1.9-1.3Z"/>
    <path class="st5" d="M297.2,131.3h0s.5,0,.5,0c.1,0,.3,0,.4-.1.1,0,.2-.2.3-.3,0-.1.1-.2.2-.3,0-.1,0-.2,0-.3,0-.1,0-.2-.2-.3s-.2-.2-.3-.2c-.1,0-.2-.1-.4-.1-.1,0-.3,0-.4,0-.6.1-1.9.2-2.3-.3-.1-.4,2.2-6.1,3.5-7.3.2-.2.3-.4.3-.6,0-.2-.1-.4-.3-.6-.2-.2-.5-.2-.7-.2s-.5.1-.7.3c-1.2,1.1-5,7.9-3.8,9.5.9,1.3,3,1.2,4,1.1Z"/>
    <path class="st5" d="M309.6,116.6c-.3,0-.5,0-.8.2-.2.2-.3.4-.3.6l-.2,2.1c0,.2,0,.5.3.6.2.2.4.3.7.3h.2,0c.2,0,.5-.1.7-.3.2-.2.3-.4.3-.6l.2-2.1c0-.2,0-.5-.3-.6-.2-.2-.4-.3-.7-.3Z"/>
    <path class="st5" d="M289.7,114.9c0,0-.2-.2-.3-.2-.1,0-.3,0-.4,0s-.3,0-.4,0c-.1,0-.2.1-.4.2-.1,0-.2.2-.2.3,0,.1,0,.2-.1.3l-.2,2.1c0,.1,0,.2,0,.3s.1.2.2.3c0,0,.2.2.3.2.1,0,.3,0,.4,0h.2c.2,0,.5-.1.7-.3.2-.2.3-.4.3-.6v-2.1c.1-.1.1-.2,0-.3,0-.1-.1-.2-.2-.3Z"/>
  </g>
  <path class="st3" d="M375.1,253.7c-18.2,0-26.8-.9-34.6-5.9-10.7-12.7-20.9-23.1-28.6-37.6,0,0,0-20-2.6-20.2-2.6-.1-5,9.9-5,9.9,0,0-7.6-20-10.2-19-2.7,1.1.8,13.9.8,13.9,0,0-4.9-12.3-8-11-3.1,1.2,1.8,13.8,1.8,13.8,0,0-4.7-9.3-7.2-8.3-2.5,1,3.6,13.1,3.6,13.1,0,0-4.2-5.8-6.1-4.9-1.9.9,10.1,21.9,10.1,21.9,0,0,34.4,68.9,55.1,69.7,14.2.5,23.7-16.4,28.4-27.2l2.7-8.3h0Z"/>
  <path class="st1" d="M341.5,247.7c-.7-13,5-27.4,5.1-40.4,0,13-5.8,27.4-5.1,40.4Z"/>
  <path class="st1" d="M264.4,235.2c1.6-12,4-16.9,7.4-32.7-3.5,15.7-5.8,20.7-7.4,32.7Z"/>
</svg>