<svg width="351" height="343" viewBox="0 0 351 343" fill="none" xmlns="http://www.w3.org/2000/svg">
<g clip-path="url(#clip0_2066_12937)">
<path d="M184.18 61.47V76.72H0V61.47C0 59.46 0.75 57.54 2.08 56.12C3.41 54.7 5.22 53.9 7.11 53.9H177.07C178.96 53.9 180.76 54.7 182.1 56.12C183.43 57.54 184.18 59.47 184.18 61.47Z" fill="#E1000F"/>
<path d="M184.18 207.82V208.58C184.18 210.39 183.51 212.12 182.3 213.4C181.1 214.68 179.47 215.4 177.77 215.4H177.06C178.95 215.4 180.75 214.6 182.09 213.18C183.42 211.76 184.17 209.83 184.17 207.82H184.18Z" fill="#7BBF95"/>
<path d="M184.18 76.72V207.82C184.18 209.83 183.43 211.75 182.1 213.18C180.77 214.6 178.96 215.4 177.07 215.4H7.11C5.22 215.4 3.42 214.6 2.08 213.18C0.75 211.76 0 209.83 0 207.82V76.72H184.18Z" fill="#FFB904"/>
<path d="M56.52 176.15L38.25 162.48L42.34 156.27L56.52 166.87L72.74 154.73L88.96 166.87L105.18 154.73L121.4 166.87L135.58 156.26L139.67 162.47L121.4 176.14L105.18 164L88.96 176.14L72.74 164L56.52 176.14V176.15Z" fill="white"/>
<path d="M36.7 122.46L57.4199 100.39L62.4599 105.75L41.74 127.82L36.7 122.46Z" fill="white"/>
<path d="M36.6899 105.75L41.7299 100.39L62.4499 122.46L57.4099 127.82L36.6899 105.75Z" fill="white"/>
<path d="M115.48 122.45L136.21 100.38L141.24 105.74L120.52 127.81L115.48 122.45Z" fill="white"/>
<path d="M115.48 105.76L120.52 100.4L141.24 122.47L136.21 127.83L115.48 105.76Z" fill="white"/>
<path d="M16.17 69.55C17.84 69.55 19.2 68.1 19.2 66.32C19.2 64.54 17.84 63.09 16.17 63.09C14.5 63.09 13.14 64.54 13.14 66.32C13.14 68.1 14.5 69.55 16.17 69.55Z" fill="white"/>
<path d="M27.51 69.55C29.18 69.55 30.54 68.1 30.54 66.32C30.54 64.54 29.18 63.09 27.51 63.09C25.84 63.09 24.48 64.54 24.48 66.32C24.48 68.1 25.84 69.55 27.51 69.55Z" fill="white"/>
<path d="M38.86 69.55C40.53 69.55 41.89 68.1 41.89 66.32C41.89 64.54 40.53 63.09 38.86 63.09C37.19 63.09 35.83 64.54 35.83 66.32C35.83 68.1 37.19 69.55 38.86 69.55Z" fill="white"/>
<path d="M168.74 67.97H85.08C84.47 67.97 83.89 67.71 83.46 67.26C83.03 66.8 82.79 66.18 82.79 65.53C82.79 64.88 83.03 64.26 83.46 63.8C83.89 63.34 84.47 63.09 85.08 63.09H168.74C169.35 63.09 169.93 63.35 170.36 63.8C170.79 64.26 171.03 64.88 171.03 65.52C171.03 66.16 170.79 66.79 170.36 67.24C169.93 67.7 169.35 67.95 168.74 67.95V67.97ZM206.68 289.39C202.5 290.99 197.61 291.73 193.38 289.31C178.05 280.56 157.42 220.64 157.42 220.64C149.63 220.28 144.51 209.26 144.51 209.26C144.51 209.26 141.39 210.07 140.24 208.9C137.5 206.1 141.24 204.53 141.24 204.53C141.24 204.53 136.59 204.87 136.41 202C136.29 200.11 138.59 198.03 141.59 197.48C139.63 196.97 136.45 195.68 136.97 193.98C137.38 192.62 140.72 189.36 146.47 192.87C142.96 189.53 138.96 184.92 141.85 183.5C146.55 181.21 162.74 195.3 172.59 208.27C178.51 216.06 189.07 233.74 197.03 247.38C202.29 250.21 210.09 252.42 219.79 251.67L216.69 283.86L206.69 289.38L206.68 289.39ZM340.7 272.32C320.88 272.25 311.47 271.32 302.93 265.92C291.23 252.02 280.08 240.67 271.71 224.88C271.71 224.88 271.71 203 268.84 202.87C265.97 202.74 263.37 213.67 263.37 213.67C263.37 213.67 255.11 191.81 252.19 192.98C249.27 194.15 253.09 208.16 253.09 208.16C253.09 208.16 247.76 194.76 244.38 196.11C241 197.46 246.31 211.13 246.31 211.13C246.31 211.13 241.16 200.99 238.42 202.09C235.67 203.19 242.37 216.44 242.37 216.44C242.37 216.44 237.79 210.12 235.71 211.08C233.64 212.04 246.73 234.94 246.73 234.94C246.73 234.94 284.23 310.15 306.82 311.02C322.27 311.62 332.74 293.12 337.81 281.38L340.71 272.32H340.7Z" fill="white"/>
<path d="M345.23 271.17L345.12 271.72C335.08 272.53 324.43 272.48 314.59 270.4C307.24 268.85 303.46 266.79 303.07 265.52L303.01 265.34L302.92 265.91C290.65 251.43 279.99 240.43 271.71 224.89C271.71 222.05 271.53 203 268.84 202.87C266.19 202.91 264.06 211.04 263.35 213.58C262.19 210.66 254.92 191.9 252.2 192.97C250.37 193.7 251.33 199.72 251.7 201.78L250.38 202.29C249.38 200.43 246.92 196 244.89 196C242.16 196 243.54 202.18 244.29 204.97L243.04 205.64C242.09 204.31 239.88 201.51 238.42 202.09C236.5 202.85 239.35 209.78 240.2 211.76L239.09 212.65C238.28 211.89 236.69 210.62 235.72 211.07C233.74 211.99 245.63 232.96 246.74 234.93C246.82 235.07 256.27 253.98 268.33 272.67C284.52 297.77 297.49 310.67 306.83 311.04C317.29 311.36 325.55 303.03 331.36 293.81L332.72 291.65C332.17 316.38 331.48 331.16 331.46 337.71C328.14 343.87 222.6 344.88 212.57 333.25C213.57 317.04 213.71 311.12 215.17 296.68C216.89 279.71 218.95 263.93 220.23 251.61C220.23 251.73 220.21 251.86 220.19 251.99C219.16 252.1 218.13 252.16 217.1 252.16C210.74 252.16 202.17 251.02 196.7 246.93C199.63 235.44 214.15 187.75 223.21 180.85C233.24 173.23 250.05 169.63 262.45 168.35C262.03 171.43 261.74 174.47 262.17 177.59C262.67 181.3 264.06 183.43 266.29 183.93C274.57 185.78 284.49 176.08 289.79 169.12V168.61C304.72 169.04 333.17 172.51 341.7 185.56C351.43 200.39 352.82 234 345.23 271.17Z" fill="#18753C"/>
<path d="M331.45 338.46C331.26 338.46 331.08 338.38 330.95 338.24C330.82 338.1 330.74 337.91 330.74 337.7C330.74 334.67 330.93 328.94 331.16 321.69C331.32 316.79 331.5 311.23 331.67 305.09C331.67 304.89 331.76 304.7 331.89 304.56C332.03 304.42 332.21 304.35 332.4 304.35C332.59 304.35 332.77 304.44 332.9 304.59C333.03 304.74 333.1 304.93 333.09 305.13C332.92 311.28 332.73 316.84 332.58 321.74C332.35 328.98 332.16 334.69 332.16 337.7C332.16 337.9 332.08 338.09 331.95 338.24C331.82 338.38 331.64 338.46 331.45 338.46ZM212.55 334H212.46C212.37 333.99 212.28 333.96 212.2 333.91C212.12 333.86 212.05 333.79 211.99 333.72C211.93 333.64 211.89 333.55 211.87 333.45C211.85 333.35 211.84 333.25 211.85 333.15C211.96 332.26 212.07 330.15 212.24 326.95C212.55 321.27 213.06 311.73 214.06 299.93C215.19 286.62 217.14 269.69 219.63 248.25C221.07 235.75 222.71 221.62 224.43 206.01C224.45 205.81 224.55 205.63 224.7 205.5C224.85 205.38 225.04 205.32 225.23 205.34C225.42 205.36 225.59 205.47 225.71 205.63C225.83 205.79 225.88 205.99 225.86 206.19C224.14 221.8 222.5 235.96 221.06 248.44C218.57 269.87 216.62 286.79 215.5 300.08C214.51 311.87 213.99 321.37 213.69 327.06C213.52 330.29 213.4 332.42 213.29 333.36C213.27 333.54 213.18 333.71 213.05 333.83C212.92 333.95 212.75 334.02 212.58 334.01L212.55 334ZM333.91 272.96C317.25 272.96 305.97 269.6 303.07 266.75C302.85 266.57 302.67 266.34 302.54 266.08C302.41 265.82 302.33 265.53 302.31 265.24C302.31 265.2 302.31 265.16 302.31 265.12C305.26 245.56 307.16 228.94 308.47 216.65C308.48 216.55 308.51 216.45 308.56 216.37C308.6 216.28 308.67 216.2 308.74 216.14C308.81 216.08 308.9 216.03 308.99 216C309.08 215.97 309.17 215.96 309.27 215.97C309.36 215.98 309.45 216.01 309.54 216.06C309.62 216.11 309.69 216.17 309.75 216.25C309.81 216.33 309.85 216.42 309.88 216.51C309.91 216.61 309.91 216.71 309.9 216.81C308.58 229.11 306.7 245.72 303.74 265.26C303.92 265.86 306.77 267.97 314.73 269.64C320.67 270.88 330.64 272.12 344.53 270.99C352.07 234 350.75 200.66 341.13 185.95C330.79 170.14 293.41 169.82 293.04 169.82C292.85 169.82 292.67 169.74 292.54 169.6C292.41 169.46 292.33 169.27 292.33 169.06C292.33 168.85 292.4 168.67 292.54 168.52C292.67 168.38 292.85 168.3 293.04 168.3C299.9 168.45 306.74 169.15 313.49 170.42C328.07 173.21 337.75 178.14 342.29 185.08C352.17 200.19 353.55 234.26 345.8 271.86C345.77 272.02 345.69 272.16 345.57 272.27C345.46 272.38 345.31 272.44 345.16 272.45C341.18 272.8 337.42 272.94 333.9 272.94L333.91 272.96Z" fill="#000091"/>
<path d="M307.54 311.8H306.79C297.19 311.42 284.03 298.41 267.72 273.1C255.82 254.63 246.49 236.03 246.14 235.32C245.94 234.97 243.02 229.85 240.23 224.49C234.27 213.05 234.68 211.67 234.86 211.09C234.9 210.94 234.98 210.79 235.08 210.67C235.18 210.55 235.3 210.45 235.44 210.38C236.61 209.84 238.15 210.78 239.56 212.07C238.08 208.61 236.57 204.3 237.23 202.44C237.31 202.2 237.43 201.98 237.59 201.8C237.76 201.62 237.96 201.48 238.18 201.39C239.84 200.72 241.89 202.77 243.62 205.18C242.77 202.04 242.15 198.55 242.91 196.72C243.02 196.42 243.19 196.15 243.4 195.92C243.61 195.69 243.87 195.51 244.15 195.39C245.95 194.67 248.06 196.58 250.63 201.23C250.76 201.46 250.88 201.69 250.99 201.91C250.94 201.65 250.9 201.38 250.85 201.12C249.98 195.72 250.33 192.9 251.94 192.26C253.14 191.78 254.97 192.64 259.5 202.55C261.01 205.86 262.39 209.26 263.22 211.34C264.24 207.71 266.27 201.99 268.86 202.11C270.99 202.21 271.66 207.82 272.06 213.85C272.38 218.71 272.41 223.62 272.41 224.66C279.06 237.13 287.54 246.93 296.52 257.31C302.06 263.71 307.78 270.32 313.52 278.03C313.64 278.19 313.69 278.39 313.67 278.59C313.65 278.79 313.55 278.97 313.41 279.1C313.26 279.22 313.07 279.28 312.89 279.26C312.7 279.24 312.53 279.14 312.41 278.98C306.72 271.31 301 264.72 295.48 258.34C286.4 247.85 277.83 237.95 271.09 225.24C271.03 225.12 271 224.99 271 224.86C271 224.81 271 219.65 270.67 214.4C270.05 204.32 268.83 203.63 268.78 203.6C267.69 203.55 265.58 207.45 264.06 213.83C264.02 213.99 263.94 214.12 263.83 214.23C263.72 214.33 263.57 214.39 263.42 214.4C263.27 214.41 263.12 214.37 262.99 214.29C262.86 214.2 262.77 214.08 262.71 213.93C262.69 213.88 260.72 208.67 258.4 203.55C253.95 193.7 252.5 193.65 252.45 193.66C251.36 194.1 251.63 199.93 253.79 207.92C253.84 208.1 253.82 208.3 253.73 208.47C253.65 208.64 253.51 208.77 253.34 208.83C253.17 208.89 252.99 208.89 252.82 208.81C252.65 208.73 252.52 208.6 252.45 208.42C250.01 202.3 246.33 196.11 244.63 196.79C244.53 196.84 244.43 196.91 244.36 196.99C244.28 197.08 244.23 197.18 244.19 197.29C243.15 199.83 245.84 207.89 246.97 210.81C247.05 210.99 247.05 211.2 246.99 211.38C246.92 211.57 246.8 211.72 246.63 211.8C246.46 211.89 246.27 211.9 246.09 211.83C245.91 211.77 245.77 211.63 245.69 211.46C243.35 206.84 239.97 202.25 238.68 202.75C238.65 202.75 238.6 202.78 238.56 202.92C237.91 204.77 240.94 211.94 243 216.03C243.08 216.2 243.11 216.39 243.06 216.58C243.02 216.76 242.91 216.92 242.76 217.03C242.61 217.13 242.43 217.17 242.25 217.14C242.07 217.11 241.92 217.01 241.81 216.86C239.89 214.21 237.28 211.66 236.2 211.69C236.24 213.84 241.79 224.79 247.36 234.52L247.38 234.56C247.74 235.32 284.94 309.39 306.85 310.24C322 310.83 332.35 292.19 337.17 281.04C337.25 280.87 337.4 280.73 337.57 280.67C337.74 280.61 337.93 280.62 338.1 280.7C338.27 280.78 338.4 280.93 338.46 281.11C338.53 281.29 338.53 281.49 338.46 281.67C333.57 293.05 323.11 311.83 307.55 311.83L307.54 311.8Z" fill="#000091"/>
<path d="M214.74 252.87H214.7C204.67 252.34 196.68 247.76 196.34 247.57C196.19 247.49 196.08 247.36 196.02 247.2C195.95 247.04 195.94 246.86 195.99 246.69C196.67 244.3 212.6 188.01 222.78 180.27C236.57 169.78 255.49 168.03 255.69 168.01C255.78 168.01 255.88 168.01 255.97 168.04C256.06 168.07 256.14 168.12 256.21 168.18C256.28 168.25 256.34 168.32 256.38 168.41C256.42 168.5 256.45 168.59 256.46 168.69C256.46 168.79 256.46 168.89 256.43 168.98C256.4 169.07 256.36 169.16 256.29 169.24C256.23 169.32 256.16 169.38 256.07 169.42C255.99 169.47 255.9 169.49 255.8 169.5C255.61 169.5 237.06 171.24 223.6 181.48C214.36 188.52 199.29 240.29 197.51 246.5C199.43 247.5 206.46 250.9 214.75 251.34C214.94 251.34 215.12 251.43 215.25 251.58C215.38 251.73 215.45 251.92 215.45 252.12C215.45 252.32 215.37 252.51 215.23 252.65C215.09 252.79 214.91 252.86 214.72 252.86H214.73L214.74 252.87ZM199.5 291.63C197.25 291.66 195.03 291.09 193.04 289.98C178.2 281.51 159.01 227.38 156.9 221.39C153.67 221.07 150.42 218.99 147.49 215.33C146.2 213.73 145.07 211.99 144.11 210.14C143.04 210.34 140.83 210.59 139.73 209.47C138.76 208.48 138.37 207.47 138.55 206.47C138.65 205.99 138.85 205.55 139.15 205.19C139.01 205.16 138.87 205.14 138.72 205.1C136.2 204.52 135.73 202.95 135.68 202.07C135.57 200.3 137.03 198.5 139.19 197.48C138.08 196.99 136.91 196.29 136.42 195.36C136.29 195.12 136.21 194.86 136.18 194.59C136.15 194.32 136.18 194.04 136.26 193.78C136.52 192.92 137.52 191.7 139.11 191.04C140.69 190.38 143.26 190.08 146.79 192.24C146.95 192.34 147.07 192.51 147.12 192.7C147.17 192.9 147.14 193.1 147.05 193.28C146.96 193.45 146.8 193.58 146.62 193.63C146.44 193.68 146.24 193.65 146.08 193.55C143.04 191.7 140.89 191.93 139.62 192.45C138.35 192.97 137.72 193.88 137.62 194.24C137.6 194.3 137.6 194.37 137.6 194.43C137.6 194.5 137.63 194.56 137.67 194.61C138.06 195.35 139.73 196.23 141.74 196.76C141.9 196.8 142.04 196.9 142.13 197.04C142.23 197.18 142.28 197.35 142.27 197.52C142.27 197.69 142.2 197.86 142.09 197.99C141.98 198.12 141.84 198.21 141.68 198.24C138.87 198.75 137.01 200.61 137.09 201.96C137.22 204 141.13 203.79 141.17 203.79C141.34 203.79 141.5 203.83 141.64 203.94C141.77 204.05 141.87 204.2 141.9 204.38C141.94 204.55 141.91 204.74 141.83 204.9C141.75 205.06 141.62 205.18 141.47 205.25C141.12 205.4 140.07 206.01 139.93 206.76C139.84 207.22 140.1 207.76 140.7 208.37C141.29 208.98 143.16 208.83 144.31 208.54C144.47 208.5 144.63 208.52 144.78 208.59C144.93 208.66 145.04 208.79 145.12 208.94C145.17 209.05 150.15 219.57 157.43 219.9C157.57 219.9 157.71 219.96 157.82 220.05C157.93 220.14 158.02 220.26 158.07 220.4C158.27 220.99 178.78 280.15 193.69 288.66C197.11 290.61 201.39 290.62 206.42 288.69C206.51 288.65 206.6 288.64 206.7 288.64C206.79 288.64 206.89 288.66 206.97 288.71C207.06 288.75 207.13 288.81 207.2 288.89C207.26 288.96 207.31 289.05 207.35 289.15C207.38 289.25 207.4 289.35 207.39 289.45C207.39 289.55 207.36 289.65 207.32 289.74C207.28 289.83 207.22 289.91 207.15 289.98C207.08 290.05 207 290.1 206.9 290.13C204.53 291.09 202.03 291.6 199.49 291.65L199.5 291.63Z" fill="#000091"/>
<path d="M207.33 265.88C207.21 265.88 207.1 265.85 207 265.79C206.9 265.73 206.81 265.65 206.74 265.54C206.27 264.78 204.94 262.49 202.93 259.01C195.41 246 179.77 218.95 172.02 208.75C161.68 195.14 146.04 182.29 142.12 184.2C141.65 184.43 141.57 184.7 141.55 184.91C141.42 186.15 143.89 190.25 151.03 195.94C151.14 196.03 151.23 196.16 151.28 196.3C151.33 196.44 151.33 196.6 151.29 196.75C151.25 196.9 151.17 197.03 151.06 197.13C150.95 197.23 150.81 197.29 150.67 197.3C147.77 197.57 143.75 198.65 143.75 199.97C143.75 200.87 145.72 202.81 150.11 204.33C150.26 204.38 150.38 204.48 150.47 204.61C150.56 204.74 150.6 204.9 150.6 205.07C150.67 206.09 150.95 207.09 151.42 207.99C152.18 209.6 153.83 212 157.35 214.35C157.43 214.4 157.5 214.47 157.56 214.55C157.62 214.63 157.66 214.72 157.68 214.82C157.7 214.92 157.71 215.02 157.69 215.12C157.67 215.22 157.64 215.32 157.59 215.4C157.54 215.49 157.47 215.56 157.39 215.62C157.31 215.68 157.23 215.72 157.13 215.74C157.03 215.76 156.94 215.76 156.85 215.74C156.76 215.72 156.67 215.68 156.59 215.63C150.46 211.54 149.39 207.16 149.21 205.61C147.36 204.93 142.32 202.8 142.32 199.97C142.32 198.43 143.74 197.3 146.64 196.51C147.41 196.3 148.18 196.13 148.83 196.03C147.85 195.19 146.46 193.96 145.1 192.62C141.58 189.12 139.95 186.56 140.12 184.76C140.16 184.33 140.32 183.93 140.56 183.59C140.8 183.25 141.14 182.99 141.51 182.84C147.05 180.14 164.19 196.09 173.1 207.83C180.92 218.11 196.57 245.22 204.11 258.25C206.04 261.59 207.44 264.01 207.89 264.73C207.99 264.9 208.03 265.1 207.99 265.3C207.95 265.5 207.84 265.67 207.69 265.78C207.57 265.85 207.44 265.89 207.3 265.88H207.33Z" fill="#000091"/>
<path d="M199.5 291.63C197.25 291.66 195.03 291.09 193.04 289.98C178.2 281.51 159.01 227.38 156.9 221.39C153.67 221.07 150.42 218.99 147.49 215.33C146.2 213.73 145.07 211.99 144.11 210.14C143.04 210.34 140.83 210.59 139.73 209.47C138.76 208.48 138.37 207.47 138.55 206.47C138.65 205.99 138.85 205.55 139.15 205.19C139.01 205.16 138.87 205.14 138.72 205.1C136.2 204.52 135.73 202.95 135.68 202.07C135.57 200.3 137.03 198.5 139.19 197.48C138.08 196.99 136.91 196.29 136.42 195.36C136.29 195.12 136.21 194.86 136.18 194.59C136.15 194.32 136.18 194.04 136.26 193.78C136.52 192.92 137.52 191.7 139.11 191.04C140.69 190.38 143.26 190.08 146.79 192.24C146.95 192.34 147.07 192.51 147.12 192.7C147.17 192.9 147.14 193.1 147.05 193.28C146.96 193.45 146.8 193.58 146.62 193.63C146.44 193.68 146.24 193.65 146.08 193.55C143.04 191.7 140.89 191.93 139.62 192.45C138.35 192.97 137.72 193.88 137.62 194.24C137.6 194.3 137.6 194.37 137.6 194.43C137.6 194.5 137.63 194.56 137.67 194.61C138.06 195.35 139.73 196.23 141.74 196.76C141.9 196.8 142.04 196.9 142.13 197.04C142.23 197.18 142.28 197.35 142.27 197.52C142.27 197.69 142.2 197.86 142.09 197.99C141.98 198.12 141.84 198.21 141.68 198.24C138.87 198.75 137.01 200.61 137.09 201.96C137.22 204 141.13 203.79 141.17 203.79C141.34 203.79 141.5 203.83 141.64 203.94C141.77 204.05 141.87 204.2 141.9 204.38C141.94 204.55 141.91 204.74 141.83 204.9C141.75 205.06 141.62 205.18 141.47 205.25C141.12 205.4 140.07 206.01 139.93 206.76C139.84 207.22 140.1 207.76 140.7 208.37C141.29 208.98 143.16 208.83 144.31 208.54C144.47 208.5 144.63 208.52 144.78 208.59C144.93 208.66 145.04 208.79 145.12 208.94C145.17 209.05 150.15 219.57 157.43 219.9C157.57 219.9 157.71 219.96 157.82 220.05C157.93 220.14 158.02 220.26 158.07 220.4C158.27 220.99 178.78 280.15 193.69 288.66C197.11 290.61 201.39 290.62 206.42 288.69C206.51 288.65 206.6 288.64 206.7 288.64C206.79 288.64 206.89 288.66 206.97 288.71C207.06 288.75 207.13 288.81 207.2 288.89C207.26 288.96 207.31 289.05 207.35 289.15C207.38 289.25 207.4 289.35 207.39 289.45C207.39 289.55 207.36 289.65 207.32 289.74C207.28 289.83 207.22 289.91 207.15 289.98C207.08 290.05 207 290.1 206.9 290.13C204.53 291.09 202.03 291.6 199.49 291.65L199.5 291.63Z" fill="#000091"/>
<path d="M207.33 265.88C207.21 265.88 207.1 265.85 207 265.79C206.9 265.73 206.81 265.65 206.74 265.54C206.27 264.78 204.94 262.49 202.93 259.01C195.41 246 179.77 218.95 172.02 208.75C161.68 195.14 146.04 182.29 142.12 184.2C141.65 184.43 141.57 184.7 141.55 184.91C141.42 186.15 143.89 190.25 151.03 195.94C151.14 196.03 151.23 196.16 151.28 196.3C151.33 196.44 151.33 196.6 151.29 196.75C151.25 196.9 151.17 197.03 151.06 197.13C150.95 197.23 150.81 197.29 150.67 197.3C147.77 197.57 143.75 198.65 143.75 199.97C143.75 200.87 145.72 202.81 150.11 204.33C150.26 204.38 150.38 204.48 150.47 204.61C150.56 204.74 150.6 204.9 150.6 205.07C150.67 206.09 150.95 207.09 151.42 207.99C152.18 209.6 153.83 212 157.35 214.35C157.43 214.4 157.5 214.47 157.56 214.55C157.62 214.63 157.66 214.72 157.68 214.82C157.7 214.92 157.71 215.02 157.69 215.12C157.67 215.22 157.64 215.32 157.59 215.4C157.54 215.49 157.47 215.56 157.39 215.62C157.31 215.68 157.23 215.72 157.13 215.74C157.03 215.76 156.94 215.76 156.85 215.74C156.76 215.72 156.67 215.68 156.59 215.63C150.46 211.54 149.39 207.16 149.21 205.61C147.36 204.93 142.32 202.8 142.32 199.97C142.32 198.43 143.74 197.3 146.64 196.51C147.41 196.3 148.18 196.13 148.83 196.03C147.85 195.19 146.46 193.96 145.1 192.62C141.58 189.12 139.95 186.56 140.12 184.76C140.16 184.33 140.32 183.93 140.56 183.59C140.8 183.25 141.14 182.99 141.51 182.84C147.05 180.14 164.19 196.09 173.1 207.83C180.92 218.11 196.57 245.22 204.11 258.25C206.04 261.59 207.44 264.01 207.89 264.73C207.99 264.9 208.03 265.1 207.99 265.3C207.95 265.5 207.84 265.67 207.69 265.78C207.57 265.85 207.44 265.89 207.3 265.88H207.33Z" fill="#000091"/>
<path d="M290.17 45.04C287.55 45.04 284.82 44 283.1 43.03C282.93 42.94 282.81 42.78 282.75 42.58C282.69 42.39 282.71 42.18 282.8 42C282.89 41.82 283.04 41.69 283.22 41.63C283.4 41.57 283.6 41.59 283.76 41.68C283.84 41.73 292.06 46.28 294.98 40.88C295.36 40.18 295.56 39.39 295.57 38.59C295.13 38.59 294.68 38.57 294.22 38.53C288.53 38.03 282 34.26 280.48 30.64C279.95 29.36 280.05 28.15 280.76 27.15C282.48 24.75 286.23 25.06 290.31 27.95C292.58 29.53 294.47 31.64 295.83 34.13C296.3 35.02 296.65 35.98 296.86 36.98C298.61 36.76 300.37 36.03 301.48 34.26C302.26 33.01 302.33 31.41 301.88 29.66C294.16 29.06 285.35 23.27 283.39 18.79C282.6 16.97 283.04 15.73 283.57 15C285.35 12.57 289.35 13.28 294.06 16.86C297.61 19.56 301.46 23.95 302.95 28.18C305.56 28.21 308.78 27.5 310.54 24.29C311.28 22.97 311.68 21.46 311.69 19.92C311.08 20.02 310.45 20.07 309.83 20.07C302.04 20.07 291.74 12.76 288.62 7.09001C286.93 4.03001 287.84 2.34001 288.54 1.61001C291.91 -1.95999 299.24 0.780008 304.75 5.32001C308.58 8.48001 312.22 13.14 312.97 18.01C316.41 16.65 318.08 12.8 317.92 6.57001C317.92 6.47001 317.93 6.37001 317.97 6.28001C318 6.19001 318.05 6.10001 318.12 6.03001C318.18 5.96001 318.26 5.90001 318.35 5.86001C318.43 5.82001 318.53 5.80001 318.62 5.80001C318.71 5.80001 318.81 5.81001 318.89 5.85001C318.98 5.89001 319.06 5.94001 319.12 6.01001C319.19 6.08001 319.24 6.16001 319.28 6.25001C319.32 6.34001 319.34 6.44001 319.34 6.54001C319.55 15.38 316.14 18.51 313.11 19.57C313.17 21.51 312.71 23.42 311.78 25.09C310.14 28.07 307.26 29.66 303.4 29.73C303.81 31.66 303.65 33.52 302.66 35.12C301.46 37.05 299.54 38.2 297.01 38.51C297.01 39.61 296.74 40.7 296.22 41.65C294.83 44.18 292.54 45.04 290.16 45.04H290.17ZM284.13 27.05C283.71 27.02 283.29 27.1 282.9 27.27C282.51 27.45 282.17 27.72 281.9 28.07C281.51 28.62 281.47 29.26 281.79 30.02C282.97 32.85 288.71 36.52 294.34 37.02C294.7 37.05 295.05 37.07 295.41 37.07C294.77 34.2 292.34 31.2 289.52 29.2C287.76 27.95 285.74 27.04 284.13 27.04V27.05ZM286.62 15.12C285.77 15.12 285.11 15.39 284.7 15.96C284.55 16.17 284.08 16.81 284.7 18.18C286.4 22.09 294.36 27.3 301.36 28.11C299.94 24.64 296.82 20.85 293.25 18.13C290.66 16.16 288.28 15.12 286.62 15.12ZM292.8 1.53001C291.42 1.53001 290.29 1.91001 289.54 2.70001C288.65 3.64001 289.22 5.20001 289.85 6.34001C293.05 12.15 304.43 19.77 311.59 18.42C310.95 13.92 307.5 9.52001 303.88 6.54001C300 3.34001 295.82 1.54001 292.81 1.54001L292.8 1.53001Z" fill="#E1000F"/>
<path d="M120.29 284.48H38.8C37.44 284.48 36.1 284.12 34.92 283.44C33.74 282.76 32.76 281.78 32.08 280.6C31.4 279.42 31.04 278.08 31.04 276.72C31.04 275.36 31.4 274.02 32.08 272.83L72.82 202.26C73.5 201.08 74.48 200.1 75.66 199.42C76.84 198.74 78.18 198.38 79.55 198.38C80.92 198.38 82.25 198.74 83.44 199.42C84.62 200.1 85.6 201.08 86.28 202.26L127.03 272.83C127.71 274.01 128.07 275.35 128.07 276.72C128.07 278.09 127.71 279.43 127.03 280.61C126.35 281.79 125.37 282.77 124.18 283.45C123 284.13 121.66 284.49 120.29 284.49V284.48Z" fill="#CE0500"/>
<path d="M120.29 280.45H38.8001C38.1401 280.45 37.5001 280.27 36.9301 279.94C36.3601 279.61 35.8901 279.14 35.5601 278.57C35.2301 278 35.0601 277.36 35.0601 276.7C35.0601 276.04 35.2301 275.4 35.5501 274.83L76.2901 204.26C76.6201 203.69 77.1001 203.22 77.6601 202.9C78.2301 202.57 78.8701 202.4 79.5301 202.4C80.1901 202.4 80.8301 202.57 81.4001 202.9C81.9701 203.23 82.4401 203.7 82.7701 204.26L123.5 274.83C123.82 275.4 123.99 276.04 123.99 276.7C123.99 277.36 123.82 278 123.49 278.57C123.16 279.14 122.69 279.61 122.13 279.94C121.56 280.27 120.92 280.45 120.27 280.45H120.29ZM77.9101 205.2L37.1701 275.77C37.0001 276.06 36.9101 276.38 36.9101 276.71C36.9101 277.04 37.0001 277.37 37.1601 277.66C37.3301 277.95 37.5601 278.19 37.8501 278.35C38.1401 278.52 38.4601 278.6 38.8001 278.6H120.29C120.62 278.6 120.95 278.52 121.24 278.35C121.53 278.18 121.77 277.95 121.93 277.66C122.1 277.37 122.18 277.05 122.18 276.71C122.18 276.38 122.09 276.05 121.92 275.76L81.1701 205.19C81.0101 204.9 80.7701 204.66 80.4801 204.49C80.1901 204.32 79.8701 204.24 79.5401 204.24C79.2101 204.24 78.8801 204.33 78.6001 204.49C78.3101 204.66 78.0801 204.9 77.9101 205.19V205.2Z" fill="white"/>
<path d="M79.54 260C78.83 260 78.15 259.72 77.64 259.23C77.13 258.74 76.82 258.07 76.79 257.36L75.22 227.66C75.2 227.29 75.26 226.91 75.39 226.56C75.52 226.21 75.72 225.89 75.98 225.61C76.24 225.34 76.55 225.12 76.89 224.97C77.23 224.82 77.6 224.75 77.98 224.74H81.12C81.49 224.74 81.87 224.82 82.21 224.96C82.55 225.11 82.87 225.33 83.12 225.6C83.38 225.87 83.58 226.19 83.71 226.54C83.84 226.89 83.9 227.27 83.88 227.64L82.31 257.34C82.28 258.05 81.97 258.72 81.46 259.21C80.95 259.7 80.26 259.97 79.55 259.97L79.54 260Z" fill="white"/>
<path d="M79.54 270.98C81.39 270.98 82.88 269.48 82.88 267.64C82.88 265.8 81.38 264.3 79.54 264.3C77.7 264.3 76.2 265.8 76.2 267.64C76.2 269.48 77.7 270.98 79.54 270.98Z" fill="white"/>
<path d="M261.22 168V162.95C249.65 164.27 239.25 156.22 237.61 144.72C237.35 142.89 237.33 141 237.14 139.17C234.5 139.73 232.13 139.82 229.52 138.99C222.61 136.77 218.99 128.86 221.8 122.13C222.5 120.46 223.67 118.95 224.93 117.68C223.15 114.87 222.95 111.39 224.33 108.36C220.46 105.41 218.18 100.98 218.87 96.02C219.5 91.45 222.69 87.53 227.02 85.96C224.95 79.65 229.97 73.43 236.54 73.93C235.99 64.12 246.19 57.28 255.07 61.86C256.28 62.48 257.24 63.4 258.29 64.24C259.82 63.27 261.45 62.68 263.28 62.61C265.33 53.17 278.6 52.95 280.99 62.32C288.07 60.32 295.3 64.51 297.02 71.63C297.16 71.73 299.17 71.26 299.62 71.24C307.53 70.95 311.86 80.14 306.98 86.25C318.25 84.88 325.42 97.89 318.34 106.75C319.36 109.72 318.95 112.9 317.12 115.46C321.12 119.37 320.52 126.43 315.79 129.47C315.41 129.72 314.18 130.22 314.04 130.39C313.84 130.63 313.59 131.7 313.39 132.12C312.52 134.01 311.21 135.4 309.43 136.48C309.38 138.4 309.23 140.16 308.53 141.98C306.08 148.36 298.83 151.55 292.41 149.27V168H291.52C291.3 161.19 291.81 154.2 291.52 147.41C291.4 144.61 291.06 141.46 290.77 138.65C290.73 138.23 290.6 137.8 290.55 137.38C289.77 140.32 288.68 143.24 287.18 145.9C286.52 147.07 285.36 148.37 284.8 149.47C284.35 150.36 284.21 151.6 283.86 152.54C281.36 159.3 276.66 165.08 269.97 168H261.2H261.22ZM264.88 99.58C259.85 104.42 251.64 102.31 249.7 95.62C248.15 96.88 246.47 97.68 244.49 97.99C245.79 103.56 241.84 108.8 236.21 109.29L235.98 109.98C235.87 113.18 236.56 120.45 236.56 120.45L238.34 143.26C239.61 155.77 249.9 163.52 262.32 161.89C274.45 160.29 285.07 151.3 288.94 139.76C289.72 137.43 290.46 134.79 290.21 132.33C290.06 132.18 287.81 132.86 287.38 132.23C286.7 131.25 288.45 131.62 288.79 131.59C291.02 131.38 296.1 128.5 297.99 127.1C304.25 122.45 299.14 112.95 291.81 115.42L284.77 119.36L284.29 119.23L284.26 118.52C280.76 118.21 277.57 116.06 276.29 112.75C275.64 111.08 275.55 110.87 274.65 109.34C273.75 107.81 273.35 106.07 273.28 104.24C269.97 104.11 266.81 101.95 265.55 98.89C265.41 98.79 265 99.49 264.91 99.58H264.88Z" fill="#000091" stroke="#0F0F98" stroke-width="0.59" stroke-miterlimit="10"/>
<path d="M287.53 122.67C289.28 122.34 290.73 122.4 292.24 123.38C292.6 123.61 294.06 124.75 293.46 125.18C293.08 125.45 292.03 124.3 291.59 124.03C290.55 123.41 289.57 123.26 288.36 123.42C286.75 123.64 287.18 124.8 287.72 125.97C287.87 126.29 289.09 127.66 288.34 127.87C287.64 128.07 286.67 125.92 286.53 125.38C285.28 120.54 290.73 116.62 294.86 119.43C295.23 119.68 296.76 121 296.16 121.42C295.49 121.74 295.39 121.02 294.97 120.66C292.34 118.42 288.52 119.33 287.54 122.67H287.53Z" fill="#000091" stroke="#0F0F98" stroke-width="0.59" stroke-miterlimit="10"/>
<path d="M237.93 141.99C237.97 142.11 238 142.24 238.04 142.36" stroke="#0F0F98" stroke-width="0.59" stroke-linecap="round" stroke-linejoin="round"/>
<path d="M256.02 138.57L256.59 138.49C256.74 138.46 256.88 138.4 257 138.33C257.12 138.25 257.23 138.16 257.31 138.05C257.39 137.94 257.45 137.82 257.48 137.69C257.51 137.56 257.51 137.43 257.48 137.31C257.45 137.19 257.39 137.07 257.31 136.97C257.23 136.87 257.12 136.78 256.99 136.72C256.86 136.66 256.72 136.61 256.58 136.59C256.43 136.57 256.28 136.58 256.13 136.61C255.51 136.74 254.02 136.84 253.64 136.32C253.53 135.87 256.02 129.7 257.51 128.33C257.71 128.14 257.82 127.89 257.81 127.63C257.81 127.38 257.68 127.14 257.46 126.97C257.25 126.8 256.96 126.72 256.66 126.73C256.36 126.74 256.08 126.85 255.87 127.04C254.55 128.25 250.44 135.67 251.69 137.39C252.71 138.82 254.97 138.72 256.03 138.58L256.02 138.57ZM269.49 126.78C269.76 126.75 270.01 126.64 270.2 126.46C270.39 126.29 270.5 126.07 270.52 125.84L270.69 123.52C270.71 123.26 270.6 123.02 270.4 122.83C270.2 122.65 269.92 122.54 269.62 122.54C269.32 122.54 269.02 122.63 268.8 122.81C268.57 122.99 268.44 123.23 268.42 123.49L268.25 125.81C268.23 126.07 268.34 126.32 268.54 126.5C268.74 126.68 269.02 126.79 269.33 126.79C269.39 126.79 269.45 126.79 269.51 126.79L269.49 126.78ZM246.92 124.69C247.19 124.66 247.44 124.55 247.63 124.37C247.82 124.2 247.93 123.98 247.95 123.75L248.11 121.43C248.11 121.3 248.1 121.17 248.05 121.06C248 120.94 247.93 120.83 247.83 120.74C247.73 120.65 247.61 120.57 247.47 120.52C247.33 120.47 247.19 120.44 247.04 120.44C246.89 120.44 246.74 120.46 246.6 120.51C246.46 120.56 246.33 120.63 246.21 120.72C246.1 120.81 246.01 120.92 245.94 121.03C245.87 121.15 245.84 121.27 245.83 121.4L245.66 123.72C245.66 123.85 245.67 123.97 245.72 124.09C245.77 124.21 245.84 124.32 245.94 124.41C246.04 124.5 246.16 124.58 246.29 124.63C246.42 124.68 246.57 124.71 246.72 124.71H246.9L246.92 124.69ZM271.82 121.63C271.98 121.61 272.13 121.56 272.26 121.49C272.52 121.35 272.71 121.13 272.78 120.88C272.85 120.63 272.81 120.37 272.66 120.15C272.19 119.48 271.46 118.98 270.58 118.74C269.7 118.5 268.74 118.53 267.87 118.83C267.59 118.93 267.36 119.11 267.23 119.34C267.1 119.57 267.08 119.84 267.17 120.07C267.27 120.31 267.47 120.5 267.73 120.6C268 120.71 268.31 120.72 268.59 120.63C268.97 120.5 269.39 120.48 269.77 120.58C270.15 120.68 270.47 120.9 270.67 121.19C270.79 121.35 270.96 121.48 271.16 121.55C271.36 121.62 271.59 121.65 271.82 121.61V121.63ZM249.49 114.62C249.79 114.58 250.06 114.45 250.25 114.24C250.34 114.14 250.41 114.02 250.45 113.9C250.49 113.78 250.5 113.65 250.49 113.52C250.48 113.39 250.43 113.27 250.35 113.16C250.28 113.05 250.18 112.96 250.06 112.88C249.32 112.42 248.41 112.21 247.47 112.28C246.54 112.35 245.65 112.68 244.95 113.24C244.73 113.42 244.61 113.66 244.59 113.91C244.58 114.16 244.68 114.4 244.87 114.59C245.06 114.77 245.34 114.88 245.63 114.89C245.92 114.9 246.22 114.81 246.45 114.65C246.75 114.41 247.13 114.26 247.54 114.23C247.94 114.2 248.34 114.29 248.66 114.48C248.89 114.61 249.18 114.66 249.47 114.62H249.49ZM261.77 148.02C261.99 147.99 262.19 147.91 262.36 147.79C262.53 147.67 262.66 147.51 262.72 147.33C262.79 147.15 262.8 146.96 262.74 146.78C262.69 146.6 262.57 146.44 262.41 146.32C262.26 146.21 258.84 143.66 255.38 144.71C255.09 144.8 254.85 144.98 254.71 145.21C254.57 145.44 254.54 145.71 254.63 145.95C254.72 146.19 254.92 146.39 255.19 146.5C255.46 146.61 255.77 146.62 256.06 146.53C257.86 145.98 260.13 147.25 260.85 147.79C260.97 147.88 261.11 147.95 261.27 147.98C261.43 148.02 261.59 148.03 261.76 148L261.77 148.02Z" fill="#000091"/>
</g>
<defs>
<clipPath id="clip0_2066_12937">
<rect width="350.79" height="342.23" fill="white"/>
</clipPath>
</defs>
</svg>
