<?xml version="1.0" encoding="UTF-8"?>
<svg id="Calque_1" xmlns="http://www.w3.org/2000/svg" version="1.1" viewBox="0 0 463 428">
  <!-- Generator: Adobe Illustrator 29.4.0, SVG Export Plug-In . SVG Version: 2.1.0 Build 152)  -->
  <defs>
    <style>
      .st0 {
        fill: #ececfe;
      }

      .st1 {
        fill: #3a3a3a;
      }

      .st2 {
        fill: #e4794a;
      }

      .st3 {
        fill: #fff;
      }

      .st4 {
        fill: #f0f0fc;
      }

      .st5 {
        fill: #6a6af4;
      }

      .st6 {
        fill: #a2a2f4;
      }
    </style>
  </defs>
  <path class="st4" d="M453.1,331c-20.8,47.8-105.6,96.5-181.8,93.5-87.9-3.6-245.8-81.9-268.5-164.3-22.7-82.4,97.9-60.2,94.2-132.2-11.1-216.4,224.6-97.1,285.1-47.4,60.5,49.7,100.4,182.9,71,250.5Z"/>
  <g>
    <path class="st5" d="M114.7,156.3h0s0,0,0,0h0Z"/>
    <path class="st6" d="M352,156.3s2.3-2-101.4,89.7c-4.8,4.2-10.9,6.5-17.3,6.5s-12.5-2.3-17.3-6.5l-101.4-89.7s-2.1,1.8,101.4-89.7c4.8-4.2,10.9-6.5,17.3-6.5s12.5,2.3,17.3,6.5l101.4,89.7Z"/>
    <path class="st5" d="M352.1,156.3h0s0,0,0,0h0Z"/>
    <path class="st3" d="M321.8,46.6v210.4h-176.9V82.5l36-36h140.9Z"/>
    <path class="st1" d="M321.8,257.7h-176.9c-.2,0-.4,0-.5-.2s-.2-.3-.2-.5V82.5c0-.2,0-.4.2-.5l36-36c0,0,.1-.1.2-.2,0,0,.2,0,.3,0h140.9c.2,0,.4,0,.5.2.1.1.2.3.2.5v210.4c0,.2,0,.4-.2.5-.1.1-.3.2-.5.2ZM145.6,256.3h175.5V47.3h-139.9l-35.5,35.5v173.5Z"/>
    <path class="st1" d="M180.9,83.2h-36c-.1,0-.3,0-.4-.1-.1,0-.2-.2-.3-.3,0-.1,0-.3,0-.4,0-.1,0-.3.2-.4l36-36c0,0,.2-.2.4-.2.1,0,.3,0,.4,0,.1,0,.2.1.3.3,0,.1.1.3.1.4v36c0,.2,0,.4-.2.5s-.3.2-.5.2ZM146.6,81.8h33.6v-33.6l-33.6,33.6Z"/>
    <path class="st1" d="M180.9,46.6v36h-36l36-36Z"/>
    <path class="st0" d="M171.5,93.2h123.8v26.4h-123.8v-26.4Z"/>
    <path class="st1" d="M295.2,158.8h-123.8c-.2,0-.4,0-.5-.2-.1-.1-.2-.3-.2-.5s0-.4.2-.5.3-.2.5-.2h123.8c.2,0,.4,0,.5.2.1.1.2.3.2.5s0,.4-.2.5c-.1.1-.3.2-.5.2ZM295.2,171h-123.8c-.2,0-.4,0-.5-.2-.1-.1-.2-.3-.2-.5s0-.4.2-.5c.1-.1.3-.2.5-.2h123.8c.2,0,.4,0,.5.2.1.1.2.3.2.5s0,.4-.2.5c-.1.1-.3.2-.5.2ZM295.2,183.2h-123.8c-.2,0-.4,0-.5-.2-.1-.1-.2-.3-.2-.5s0-.4.2-.5c.1-.1.3-.2.5-.2h123.8c.2,0,.4,0,.5.2.1.1.2.3.2.5s0,.4-.2.5c-.1.1-.3.2-.5.2ZM295.2,195.4h-123.8c-.2,0-.4,0-.5-.2-.1-.1-.2-.3-.2-.5s0-.4.2-.5c.1-.1.3-.2.5-.2h123.8c.2,0,.4,0,.5.2.1.1.2.3.2.5s0,.4-.2.5c-.1.1-.3.2-.5.2ZM295.2,207.7h-123.8c-.2,0-.4,0-.5-.2-.1-.1-.2-.3-.2-.5s0-.4.2-.5c.1-.1.3-.2.5-.2h123.8c.2,0,.4,0,.5.2.1.1.2.3.2.5s0,.4-.2.5c-.1.1-.3.2-.5.2Z"/>
    <path class="st5" d="M295.2,140.9h-4.2c-.2,0-.4,0-.5-.2-.1-.1-.2-.3-.2-.5s0-.4.2-.5c.1-.1.3-.2.5-.2h4.2c.2,0,.4,0,.5.2.1.1.2.3.2.5s0,.4-.2.5c-.1.1-.3.2-.5.2ZM286.8,140.9h-4.2c-.2,0-.4,0-.5-.2-.1-.1-.2-.3-.2-.5s0-.4.2-.5c.1-.1.3-.2.5-.2h4.2c.2,0,.4,0,.5.2.1.1.2.3.2.5s0,.4-.2.5c-.1.1-.3.2-.5.2ZM278.4,140.9h-4.2c-.2,0-.4,0-.5-.2-.1-.1-.2-.3-.2-.5s0-.4.2-.5c.1-.1.3-.2.5-.2h4.2c.2,0,.4,0,.5.2.1.1.2.3.2.5s0,.4-.2.5c-.1.1-.3.2-.5.2ZM270,140.9h-4.2c-.2,0-.4,0-.5-.2-.1-.1-.2-.3-.2-.5s0-.4.2-.5c.1-.1.3-.2.5-.2h4.2c.2,0,.4,0,.5.2.1.1.2.3.2.5s0,.4-.2.5c-.1.1-.3.2-.5.2ZM261.5,140.9h-4.2c-.2,0-.4,0-.5-.2-.1-.1-.2-.3-.2-.5s0-.4.2-.5c.1-.1.3-.2.5-.2h4.2c.2,0,.4,0,.5.2.1.1.2.3.2.5s0,.4-.2.5c-.1.1-.3.2-.5.2ZM253.1,140.9h-4.2c-.2,0-.4,0-.5-.2-.1-.1-.2-.3-.2-.5s0-.4.2-.5c.1-.1.3-.2.5-.2h4.2c.2,0,.4,0,.5.2.1.1.2.3.2.5s0,.4-.2.5c-.1.1-.3.2-.5.2ZM244.7,140.9h-4.2c-.2,0-.4,0-.5-.2-.1-.1-.2-.3-.2-.5s0-.4.2-.5c.1-.1.3-.2.5-.2h4.2c.2,0,.4,0,.5.2.1.1.2.3.2.5s0,.4-.2.5c-.1.1-.3.2-.5.2ZM236.2,140.9h-4.2c-.2,0-.4,0-.5-.2-.1-.1-.2-.3-.2-.5s0-.4.2-.5c.1-.1.3-.2.5-.2h4.2c.2,0,.4,0,.5.2.1.1.2.3.2.5s0,.4-.2.5c-.1.1-.3.2-.5.2ZM227.8,140.9h-4.2c-.2,0-.4,0-.5-.2-.1-.1-.2-.3-.2-.5s0-.4.2-.5c.1-.1.3-.2.5-.2h4.2c.2,0,.4,0,.5.2.1.1.2.3.2.5s0,.4-.2.5c-.1.1-.3.2-.5.2ZM219.4,140.9h-4.2c-.2,0-.4,0-.5-.2-.1-.1-.2-.3-.2-.5s0-.4.2-.5c.1-.1.3-.2.5-.2h4.2c.2,0,.4,0,.5.2.1.1.2.3.2.5s0,.4-.2.5c-.1.1-.3.2-.5.2ZM210.9,140.9h-4.2c-.2,0-.4,0-.5-.2-.1-.1-.2-.3-.2-.5s0-.4.2-.5c.1-.1.3-.2.5-.2h4.2c.2,0,.4,0,.5.2.1.1.2.3.2.5s0,.4-.2.5c-.1.1-.3.2-.5.2ZM202.5,140.9h-4.2c-.2,0-.4,0-.5-.2-.1-.1-.2-.3-.2-.5s0-.4.2-.5c.1-.1.3-.2.5-.2h4.2c.2,0,.4,0,.5.2.1.1.2.3.2.5s0,.4-.2.5c-.1.1-.3.2-.5.2ZM194.1,140.9h-4.2c-.2,0-.4,0-.5-.2-.1-.1-.2-.3-.2-.5s0-.4.2-.5c.1-.1.3-.2.5-.2h4.2c.2,0,.4,0,.5.2.1.1.2.3.2.5s0,.4-.2.5c-.1.1-.3.2-.5.2ZM185.7,140.9h-4.2c-.2,0-.4,0-.5-.2s-.2-.3-.2-.5,0-.4.2-.5.3-.2.5-.2h4.2c.2,0,.4,0,.5.2s.2.3.2.5,0,.4-.2.5-.3.2-.5.2ZM177.2,140.9h-4.2c-.2,0-.4,0-.5-.2-.1-.1-.2-.3-.2-.5s0-.4.2-.5c.1-.1.3-.2.5-.2h4.2c.2,0,.4,0,.5.2.1.1.2.3.2.5s0,.4-.2.5c-.1.1-.3.2-.5.2Z"/>
    <path class="st5" d="M352.1,156.3v154c0,1.1-.2,2.3-.7,3.3-.4,1.1-1.1,2-1.9,2.8-.8.8-1.8,1.4-2.8,1.9-1.1.4-2.2.7-3.3.7H123.3c-2.3,0-4.5-.9-6.1-2.5-1.6-1.6-2.5-3.8-2.5-6.1,0-157.6,0-153.9,0-154l101.4,89.7c4.8,4.2,10.9,6.5,17.3,6.5s12.5-2.3,17.3-6.5c103.7-91.7,101.4-89.8,101.4-89.7Z"/>
    <path class="st3" d="M256.4,164.7c-.2,0-.3,0-.5-.2s-.2-.3-.2-.4c0-.2,0-.3,0-.5,0-.1.2-.3.4-.3l24.7-8.7c.2,0,.4,0,.5,0,.2,0,.3.2.4.4,0,.2,0,.4,0,.5,0,.2-.2.3-.4.4-26.5,9.3-24.8,8.7-25,8.7ZM266.6,193.7c-.2,0-.3,0-.5-.2-.1-.1-.2-.3-.2-.4,0-.2,0-.3,0-.5,0-.1.2-.3.4-.3l24.7-8.7c.2,0,.4,0,.5,0,.2,0,.3.2.3.4,0,.2,0,.4,0,.5s-.2.3-.4.4c-26.5,9.3-24.8,8.7-25,8.7ZM259.8,174.6c-.2,0-.3,0-.5-.2-.1-.1-.2-.3-.2-.4,0-.2,0-.3,0-.5,0-.1.2-.3.4-.3l24.7-8.7c.2,0,.4,0,.5,0,.2,0,.3.2.4.4,0,.2,0,.4,0,.5,0,.2-.2.3-.4.4-26.5,9.3-24.8,8.7-25,8.7ZM263.1,183.9c-.2,0-.3,0-.5-.2-.1-.1-.2-.3-.2-.4,0-.2,0-.3,0-.5s.2-.3.4-.3l24.7-8.7c0,0,.2,0,.3,0,0,0,.2,0,.3,0,0,0,.2,0,.2.2,0,0,.1.2.1.2,0,0,0,.2,0,.3,0,0,0,.2,0,.3,0,0-.1.2-.2.2,0,0-.2.1-.3.1-26.5,9.3-24.8,8.7-25,8.7Z"/>
    <path class="st2" d="M356.1,119.4c-.1,0-.3,0-.4-.1-.1,0-.2-.2-.3-.3,0-.1,0-.2,0-.4,0-.1,0-.3.1-.4l17.4-25.4c0,0,.1-.2.2-.2,0,0,.2,0,.3-.1,0,0,.2,0,.3,0,0,0,.2,0,.3.1,0,0,.1.1.2.2,0,0,0,.2.1.3,0,0,0,.2,0,.3,0,0,0,.2-.1.3l-17.4,25.4c0,0-.2.2-.3.2-.1,0-.2,0-.3,0ZM370.4,136c-.2,0-.3,0-.4-.2s-.2-.2-.2-.4c0-.2,0-.3,0-.5,0-.1.2-.3.3-.3l27.8-13.3c.2,0,.4,0,.5,0,.2,0,.3.2.4.4,0,.2,0,.4,0,.5,0,.2-.2.3-.3.4-29.7,14.3-27.8,13.4-28.1,13.4ZM405.2,159.9l-34.2-2.6c0,0-.2,0-.3,0,0,0-.2,0-.2-.2,0,0-.1-.2-.1-.2s0-.2,0-.3c0-.2.1-.4.2-.5,0,0,.2-.1.2-.1,0,0,.2,0,.3,0l34.1,2.6c0,0,.2,0,.3,0,0,0,.2,0,.2.2,0,0,.1.1.1.2,0,0,0,.2,0,.3s0,.2,0,.3c0,0,0,.2-.2.2,0,0-.1.1-.2.1,0,0-.2,0-.3,0h0Z"/>
    <path class="st5" d="M131.2,92.4h-64.5c-1.5,0-2.9-.6-3.9-1.7-1-1.1-1.6-2.5-1.6-3.9v-37.4c0-1.5.6-2.9,1.6-4,1.1-1.1,2.5-1.6,4-1.6h50.6c1.5,0,2.9.6,4,1.6,1.1,1.1,1.6,2.5,1.6,4v31.6l8.7,10.3c0,.1.1.2.2.4,0,.1,0,.3,0,.4,0,.1-.1.2-.3.3-.1,0-.2.1-.4.1ZM66.8,90.9h62.9l-7.9-9.4c-.1-.1-.2-.3-.2-.5v-31.8c0-1.1-.4-2.2-1.2-3-.8-.8-1.9-1.2-3-1.2h-50.6c-1.1,0-2.2.4-3,1.2-.8.8-1.2,1.9-1.2,3v37.4c0,1.1.4,2.2,1.2,3,.8.8,1.9,1.2,3,1.2Z"/>
    <path class="st5" d="M110.6,59.2h-36.4c-.2,0-.4,0-.5-.2-.1-.1-.2-.3-.2-.5s0-.4.2-.5c.1-.1.3-.2.5-.2h36.4c.2,0,.4,0,.5.2.1.1.2.3.2.5s0,.4-.2.5-.3.2-.5.2ZM110.6,69.2h-36.4c-.2,0-.4,0-.5-.2-.1-.1-.2-.3-.2-.5s0-.4.2-.5c.1-.1.3-.2.5-.2h36.4c.2,0,.4,0,.5.2.1.1.2.3.2.5s0,.4-.2.5c-.1.1-.3.2-.5.2ZM100.8,79.3h-26.6c-.2,0-.4,0-.5-.2-.1-.1-.2-.3-.2-.5s0-.4.2-.5c.1-.1.3-.2.5-.2h26.6c.2,0,.4,0,.5.2.1.1.2.3.2.5s0,.4-.2.5c-.1.1-.3.2-.5.2Z"/>
  </g>
</svg>