<svg width="384" height="384" viewBox="0 0 384 384" fill="none" xmlns="http://www.w3.org/2000/svg">
<path d="M369.288 257.763C352.95 295.66 263.033 368.097 129.801 377.407C60.5654 382.243 -11.5433 330.2 14.1048 201.195C27.3312 134.661 75.8279 68.1763 123.717 36.8714C171.606 5.56652 265.365 19.5236 313.098 59.0221C360.831 98.5124 392.399 204.176 369.296 257.754L369.288 257.763Z" fill="#F0F0FC"/>
<mask id="mask0_2621_53577" style="mask-type:luminance" maskUnits="userSpaceOnUse" x="30" y="71" width="336" height="256">
<path d="M365.092 71.1482H30.254V326.76H365.092V71.1482Z" fill="white"/>
</mask>
<g mask="url(#mask0_2621_53577)">
<path d="M339.945 71.3696H188.724C185.654 71.3696 183.174 73.8655 183.174 76.9442V216.605C183.174 219.684 185.662 222.18 188.724 222.18H339.945C343.015 222.18 345.495 219.684 345.495 216.605V76.9442C345.495 73.8655 343.007 71.3696 339.945 71.3696Z" fill="white"/>
<path d="M339.945 222.18C339.945 222.18 340.084 222.164 340.347 222.147C340.61 222.131 341.004 222.073 341.505 221.925C342.006 221.769 342.613 221.507 343.229 221.039C343.845 220.571 344.485 219.898 344.912 218.97C345.396 218.05 345.487 216.885 345.446 215.62C345.446 214.356 345.446 212.96 345.437 211.458C345.437 208.453 345.429 204.972 345.421 201.064C345.405 185.415 345.38 162.797 345.355 134.85C345.355 120.868 345.339 105.556 345.331 89.1199C345.331 85.0148 345.314 80.8441 345.306 76.5913C345.208 74.5388 343.787 72.6012 341.825 71.887C340.848 71.4765 339.797 71.5504 338.705 71.5504H335.446C326.727 71.5504 317.745 71.5504 308.541 71.5586C271.719 71.5586 231.236 71.5668 188.749 71.575C187.468 71.575 186.212 72.043 185.243 72.8804C184.274 73.7096 183.626 74.9001 183.453 76.1644C183.371 76.7884 183.404 77.4534 183.396 78.1184V130.441C183.396 150.556 183.388 169.964 183.379 188.445C183.379 197.689 183.379 206.696 183.371 215.448C183.371 215.99 183.355 216.556 183.396 217.073C183.453 217.591 183.56 218.116 183.757 218.6C184.143 219.577 184.824 220.423 185.678 221.014C186.532 221.605 187.55 221.942 188.585 221.967C189.652 221.967 190.711 221.967 191.77 221.975H204.258C220.628 221.983 235.883 221.991 249.807 221.999C277.647 222.032 300.184 222.049 315.766 222.065C323.549 222.081 329.592 222.098 333.697 222.106C335.741 222.114 337.301 222.123 338.36 222.131C339.411 222.131 339.953 222.155 339.953 222.155C339.953 222.155 339.411 222.172 338.36 222.18C337.301 222.18 335.741 222.188 333.697 222.205C329.592 222.213 323.549 222.229 315.766 222.246C300.192 222.262 277.655 222.287 249.807 222.311C235.883 222.311 220.628 222.328 204.258 222.336H188.576C187.476 222.311 186.376 221.95 185.465 221.318C184.553 220.678 183.823 219.783 183.412 218.732C183.191 218.215 183.084 217.648 183.026 217.09C182.985 216.523 183.01 215.981 183.002 215.431C183.002 206.679 183.002 197.665 182.994 188.428C182.994 169.948 182.994 150.547 182.977 130.425V78.102C182.977 77.437 182.944 76.7884 183.043 76.0905C183.232 74.7194 183.921 73.4305 184.972 72.5356C186.015 71.6243 187.386 71.1152 188.765 71.1152C231.252 71.1152 271.736 71.1234 308.558 71.1317C317.761 71.1317 326.743 71.1317 335.462 71.1399H338.722C339.781 71.1399 340.938 71.0742 341.981 71.5175C344.083 72.2811 345.593 74.3582 345.7 76.5585C345.7 80.8113 345.7 84.9902 345.708 89.1034C345.7 105.54 345.692 120.852 345.684 134.833C345.659 162.78 345.634 185.415 345.618 201.047C345.618 204.955 345.602 208.42 345.602 211.441C345.602 212.944 345.602 214.331 345.593 215.604C345.634 216.86 345.528 218.067 345.035 218.994C344.592 219.939 343.943 220.62 343.319 221.08C342.687 221.548 342.063 221.802 341.57 221.95C341.061 222.09 340.667 222.139 340.396 222.147C340.134 222.155 339.994 222.155 339.994 222.155L339.969 222.172L339.945 222.18Z" fill="#3A3A3A"/>
<path d="M195.415 81.8211C195.415 83.3728 194.159 84.6371 192.607 84.6371C191.056 84.6371 189.808 83.381 189.808 81.8211C189.808 80.2612 191.064 78.9968 192.607 78.9968C194.151 78.9968 195.415 80.253 195.415 81.8211Z" fill="#3A3A3A"/>
<path d="M200.809 84.6372C202.353 84.6372 203.609 83.3811 203.609 81.8212C203.609 80.2613 202.353 79.0051 200.809 79.0051C199.266 79.0051 198.01 80.2613 198.01 81.8212C198.01 83.3811 199.266 84.6372 200.809 84.6372Z" fill="#3A3A3A"/>
<path d="M209.003 84.6372C210.546 84.6372 211.803 83.3811 211.803 81.8212C211.803 80.2613 210.546 79.0051 209.003 79.0051C207.46 79.0051 206.203 80.2613 206.203 81.8212C206.203 83.3811 207.46 84.6372 209.003 84.6372Z" fill="#3A3A3A"/>
<path d="M345.495 89.8096C345.495 89.9245 309.157 90.0312 264.339 90.0312C219.52 90.0312 183.174 89.9327 183.174 89.8096C183.174 89.6864 219.504 89.5879 264.339 89.5879C309.174 89.5879 345.495 89.6864 345.495 89.8096Z" fill="#3A3A3A"/>
<path d="M287.261 146.623C287.261 146.623 287.327 146.533 287.458 146.36C287.491 146.319 287.524 146.27 287.565 146.212C287.598 146.155 287.631 146.097 287.672 146.024C287.745 145.884 287.852 145.728 287.918 145.531C287.959 145.441 288 145.334 288.041 145.227C288.074 145.121 288.107 144.997 288.14 144.874C288.181 144.743 288.197 144.62 288.222 144.472C288.238 144.324 288.279 144.193 288.279 144.029C288.345 143.413 288.304 142.707 288.189 141.91C287.942 140.326 287.277 138.47 286.259 136.442C285.233 134.415 283.829 132.239 282.105 129.957C280.381 127.682 278.304 125.334 275.907 122.97C273.517 120.614 270.808 118.249 267.779 115.999C266.26 114.875 264.667 113.791 262.968 112.773C261.284 111.747 259.503 110.794 257.623 109.957C255.751 109.144 253.772 108.43 251.679 108.085C250.636 107.921 249.561 107.847 248.51 108.011C247.984 108.093 247.467 108.241 246.974 108.454C246.49 108.693 246.055 108.996 245.685 109.399C245.341 109.809 245.078 110.285 244.897 110.786C244.733 111.295 244.651 111.829 244.626 112.371C244.585 113.438 244.79 114.505 245.07 115.523C245.636 117.559 246.572 119.456 247.59 121.237C248.625 123.011 249.774 124.678 250.973 126.246C252.171 127.806 253.436 129.292 254.716 130.671C257.278 133.438 259.93 135.868 262.541 137.986C265.151 140.104 267.713 141.902 270.16 143.364C272.606 144.825 274.921 145.983 277.048 146.771C279.166 147.559 281.087 148.01 282.68 148.076C283.476 148.109 284.19 148.068 284.782 147.928C284.938 147.904 285.069 147.854 285.209 147.822C285.348 147.789 285.479 147.748 285.586 147.69C285.701 147.641 285.824 147.6 285.923 147.551C286.021 147.501 286.128 147.444 286.218 147.386C286.407 147.296 286.547 147.173 286.686 147.083C286.744 147.033 286.809 147.001 286.867 146.951C286.916 146.91 286.957 146.869 286.99 146.82C287.146 146.664 287.228 146.598 287.228 146.598C287.228 146.598 287.154 146.672 286.998 146.828C286.957 146.869 286.916 146.91 286.875 146.96C286.826 147.001 286.768 147.042 286.695 147.099C286.571 147.189 286.424 147.313 286.235 147.403C286.144 147.452 286.046 147.51 285.939 147.567C285.832 147.608 285.718 147.657 285.594 147.715C285.479 147.764 285.348 147.805 285.209 147.846C285.077 147.879 284.929 147.937 284.773 147.953C284.174 148.093 283.46 148.142 282.655 148.109C281.054 148.051 279.125 147.608 276.998 146.82C274.864 146.04 272.549 144.891 270.094 143.429C267.639 141.968 265.077 140.17 262.458 138.052C259.848 135.933 257.196 133.503 254.618 130.737C253.329 129.349 252.073 127.871 250.866 126.303C249.659 124.743 248.501 123.068 247.459 121.287C246.432 119.505 245.497 117.609 244.922 115.54C244.643 114.513 244.437 113.438 244.479 112.354C244.495 111.812 244.585 111.271 244.749 110.737C244.938 110.22 245.201 109.727 245.562 109.308C245.932 108.898 246.391 108.578 246.884 108.34C247.385 108.11 247.919 107.962 248.452 107.88C249.528 107.716 250.611 107.798 251.662 107.954C253.764 108.29 255.751 109.013 257.631 109.834C259.511 110.663 261.293 111.624 262.984 112.658C264.675 113.684 266.276 114.776 267.803 115.893C270.841 118.142 273.55 120.515 275.939 122.88C278.329 125.244 280.397 127.6 282.13 129.883C283.854 132.157 285.258 134.349 286.276 136.393C287.294 138.421 287.959 140.293 288.197 141.886C288.312 142.674 288.353 143.396 288.279 144.012C288.279 144.168 288.238 144.308 288.213 144.455C288.189 144.603 288.172 144.726 288.131 144.858C288.098 144.989 288.066 145.104 288.033 145.211C287.992 145.318 287.951 145.424 287.91 145.523C287.836 145.72 287.737 145.876 287.655 146.015C287.614 146.081 287.581 146.155 287.548 146.204C287.507 146.253 287.474 146.303 287.442 146.352C287.31 146.524 287.236 146.607 287.236 146.607L287.253 146.623H287.261Z" fill="#E4794A"/>
<path d="M294.946 128.003C294.946 128.003 294.937 127.896 294.921 127.683C294.921 127.633 294.913 127.576 294.905 127.502C294.896 127.436 294.88 127.362 294.864 127.288C294.831 127.132 294.798 126.952 294.716 126.755C294.683 126.656 294.65 126.55 294.609 126.443C294.56 126.344 294.502 126.229 294.445 126.114C294.396 125.999 294.313 125.885 294.24 125.77C294.166 125.655 294.092 125.523 293.993 125.4C293.64 124.899 293.131 124.399 292.524 123.889C291.3 122.871 289.56 121.927 287.45 121.098C285.34 120.269 282.844 119.579 280.053 119.029C277.261 118.487 274.141 118.118 270.8 117.962C267.458 117.798 263.871 117.847 260.119 118.2C258.247 118.381 256.326 118.643 254.388 118.996C252.45 119.366 250.488 119.826 248.543 120.466C246.605 121.114 244.651 121.903 242.869 123.044C241.991 123.619 241.137 124.275 240.456 125.096C240.119 125.515 239.832 125.967 239.61 126.451C239.405 126.944 239.29 127.469 239.282 128.011C239.29 128.545 239.413 129.078 239.61 129.571C239.832 130.063 240.119 130.515 240.456 130.934C241.129 131.755 241.991 132.42 242.869 132.986C244.651 134.136 246.605 134.916 248.543 135.564C250.488 136.205 252.45 136.681 254.388 137.034C256.326 137.403 258.239 137.658 260.119 137.83C263.871 138.183 267.458 138.224 270.808 138.068C274.15 137.904 277.261 137.543 280.061 137.001C282.852 136.459 285.348 135.769 287.458 134.932C289.568 134.111 291.292 133.167 292.532 132.141C293.139 131.632 293.648 131.131 294.001 130.63C294.1 130.515 294.174 130.375 294.248 130.26C294.322 130.146 294.404 130.031 294.453 129.916C294.511 129.801 294.56 129.686 294.617 129.587C294.658 129.481 294.691 129.374 294.724 129.275C294.798 129.078 294.831 128.889 294.872 128.742C294.888 128.668 294.905 128.586 294.913 128.528C294.913 128.462 294.921 128.397 294.929 128.348C294.946 128.134 294.954 128.027 294.954 128.027C294.954 128.027 294.954 128.134 294.937 128.348C294.937 128.397 294.937 128.462 294.929 128.528C294.929 128.594 294.905 128.668 294.888 128.75C294.855 128.906 294.831 129.086 294.757 129.283C294.724 129.382 294.691 129.489 294.65 129.595C294.601 129.702 294.552 129.817 294.486 129.924C294.437 130.039 294.355 130.162 294.281 130.277C294.207 130.392 294.133 130.531 294.034 130.655C293.681 131.164 293.18 131.673 292.565 132.182C291.333 133.208 289.601 134.16 287.491 134.998C285.381 135.835 282.885 136.533 280.085 137.083C277.286 137.633 274.174 138.003 270.825 138.167C267.475 138.331 263.887 138.298 260.127 137.945C258.247 137.764 256.326 137.51 254.388 137.149C252.45 136.796 250.48 136.319 248.518 135.679C246.572 135.031 244.618 134.242 242.812 133.085C241.925 132.51 241.063 131.845 240.365 130.999C240.02 130.581 239.725 130.113 239.503 129.612C239.298 129.103 239.175 128.561 239.167 127.995C239.175 127.444 239.306 126.886 239.511 126.377C239.733 125.876 240.037 125.408 240.374 124.99C241.071 124.152 241.933 123.487 242.82 122.904C244.618 121.755 246.572 120.959 248.518 120.318C250.472 119.678 252.434 119.202 254.388 118.849C256.326 118.479 258.247 118.225 260.127 118.052C263.887 117.707 267.475 117.658 270.825 117.83C274.174 118.003 277.286 118.372 280.085 118.914C282.885 119.464 285.389 120.162 287.491 121C289.601 121.829 291.333 122.781 292.565 123.816C293.18 124.325 293.681 124.834 294.034 125.343C294.133 125.458 294.207 125.597 294.281 125.72C294.355 125.835 294.437 125.958 294.486 126.073C294.543 126.188 294.593 126.303 294.65 126.402C294.691 126.509 294.724 126.623 294.757 126.714C294.831 126.911 294.864 127.1 294.888 127.247C294.905 127.321 294.921 127.403 294.929 127.469C294.929 127.535 294.929 127.6 294.937 127.65C294.954 127.863 294.954 127.97 294.954 127.97H294.946V128.003Z" fill="#E4794A"/>
<path d="M284.765 104.826C284.765 104.826 284.675 104.768 284.494 104.645C284.453 104.62 284.404 104.587 284.338 104.546C284.281 104.514 284.215 104.489 284.141 104.456C283.993 104.39 283.837 104.3 283.632 104.243C283.534 104.21 283.427 104.177 283.32 104.144C283.205 104.119 283.082 104.095 282.959 104.07C282.828 104.037 282.696 104.029 282.557 104.021C282.409 104.013 282.269 103.988 282.113 103.988C281.506 103.963 280.792 104.054 280.02 104.226C278.46 104.571 276.662 105.376 274.724 106.541C272.779 107.707 270.71 109.259 268.567 111.147C266.424 113.036 264.232 115.277 262.056 117.83C259.881 120.392 257.713 123.257 255.693 126.459C254.684 128.06 253.715 129.735 252.812 131.5C251.909 133.257 251.088 135.104 250.39 137.042C249.708 138.979 249.134 141.007 248.945 143.117C248.863 144.168 248.854 145.252 249.093 146.294C249.208 146.812 249.388 147.321 249.643 147.797C249.905 148.265 250.25 148.684 250.669 149.02C251.104 149.34 251.588 149.57 252.097 149.718C252.615 149.849 253.148 149.899 253.682 149.882C254.749 149.849 255.792 149.578 256.777 149.225C258.764 148.511 260.587 147.452 262.278 146.303C263.969 145.145 265.546 143.881 267.015 142.559C268.485 141.245 269.872 139.882 271.153 138.503C273.723 135.745 275.964 132.92 277.885 130.17C279.806 127.42 281.424 124.727 282.713 122.173C284.002 119.62 284.979 117.223 285.627 115.047C286.259 112.871 286.588 110.917 286.539 109.316C286.514 108.52 286.432 107.814 286.251 107.215C286.218 107.059 286.161 106.927 286.12 106.796C286.079 106.656 286.03 106.533 285.964 106.418C285.906 106.303 285.857 106.188 285.8 106.09C285.742 105.991 285.685 105.893 285.619 105.811C285.521 105.622 285.389 105.491 285.291 105.367C285.241 105.31 285.2 105.252 285.143 105.195C285.094 105.154 285.053 105.113 285.012 105.08C284.847 104.932 284.773 104.858 284.773 104.858C284.773 104.858 284.856 104.924 285.02 105.072C285.061 105.105 285.102 105.146 285.151 105.187C285.2 105.236 285.241 105.285 285.299 105.351C285.397 105.466 285.529 105.605 285.635 105.794C285.693 105.876 285.75 105.975 285.816 106.073C285.865 106.172 285.923 106.295 285.98 106.402C286.038 106.509 286.087 106.648 286.136 106.78C286.177 106.919 286.243 107.05 286.284 107.206C286.465 107.798 286.555 108.504 286.588 109.316C286.645 110.926 286.333 112.888 285.701 115.072C285.069 117.256 284.084 119.669 282.803 122.231C281.514 124.792 279.905 127.485 277.984 130.244C276.063 133.002 273.829 135.835 271.251 138.593C269.963 139.981 268.583 141.336 267.105 142.657C265.636 143.971 264.051 145.252 262.36 146.409C260.661 147.567 258.838 148.626 256.835 149.349C255.833 149.693 254.774 149.981 253.69 150.014C253.148 150.03 252.598 149.981 252.065 149.849C251.539 149.702 251.03 149.464 250.587 149.135C250.152 148.79 249.799 148.355 249.528 147.879C249.265 147.395 249.084 146.877 248.969 146.344C248.731 145.285 248.74 144.184 248.822 143.134C249.019 140.999 249.593 138.971 250.275 137.025C250.973 135.088 251.802 133.232 252.705 131.475C253.608 129.71 254.585 128.035 255.595 126.434C257.615 123.241 259.79 120.367 261.974 117.806C264.158 115.244 266.358 113.011 268.509 111.123C270.66 109.234 272.737 107.683 274.691 106.525C276.637 105.359 278.452 104.571 280.02 104.218C280.8 104.046 281.514 103.955 282.13 103.988C282.286 103.988 282.434 104.013 282.573 104.021C282.721 104.029 282.852 104.046 282.984 104.078C283.107 104.103 283.23 104.128 283.345 104.152C283.452 104.185 283.567 104.226 283.657 104.251C283.862 104.308 284.018 104.399 284.166 104.473C284.232 104.505 284.305 104.538 284.363 104.571C284.42 104.604 284.461 104.637 284.519 104.67C284.7 104.784 284.79 104.858 284.79 104.858L284.773 104.834L284.765 104.826Z" fill="#E4794A"/>
<path d="M238.904 139.546C239.314 139.956 239.314 140.605 238.904 141.016C238.502 141.426 237.845 141.426 237.443 141.016C237.032 140.605 237.032 139.956 237.443 139.546C237.845 139.135 238.502 139.135 238.904 139.546Z" fill="#E4794A"/>
<path d="M297.302 107.346C297.302 107.921 296.834 108.381 296.267 108.381C295.701 108.381 295.233 107.913 295.233 107.346C295.233 106.78 295.701 106.312 296.267 106.312C296.834 106.312 297.302 106.78 297.302 107.346Z" fill="#E4794A"/>
<path d="M245.439 142.961C245.439 143.109 245.324 143.224 245.176 143.224C245.029 143.224 244.914 143.101 244.914 142.961C244.914 142.822 245.029 142.698 245.176 142.698C245.324 142.698 245.439 142.822 245.439 142.961Z" fill="#E4794A"/>
<path d="M251.055 113.848C251.055 113.996 250.94 114.111 250.792 114.111C250.644 114.111 250.529 113.996 250.529 113.848C250.529 113.701 250.644 113.586 250.792 113.586C250.94 113.586 251.055 113.701 251.055 113.848Z" fill="#E4794A"/>
<path d="M292.105 128.003C292.105 128.15 291.99 128.265 291.842 128.265C291.695 128.265 291.58 128.15 291.58 128.003C291.58 127.855 291.695 127.74 291.842 127.74C291.99 127.74 292.105 127.855 292.105 128.003Z" fill="#E4794A"/>
<path d="M295.758 115.696C295.758 115.844 295.644 115.959 295.496 115.959C295.348 115.959 295.233 115.844 295.233 115.696C295.233 115.548 295.348 115.433 295.496 115.433C295.644 115.433 295.758 115.548 295.758 115.696Z" fill="#E4794A"/>
<path d="M278.025 133.815H274.774V116.041C274.774 111.862 271.383 108.455 267.212 108.455C263.041 108.455 259.651 111.862 259.651 116.041V133.815H256.4V116.041C256.4 110.056 261.252 105.187 267.212 105.187C273.173 105.187 278.025 110.056 278.025 116.041V133.815Z" fill="#E4794A"/>
<g opacity="0.3">
<path d="M278.025 133.815H274.774V116.041C274.774 111.862 271.383 108.455 267.212 108.455C263.041 108.455 259.651 111.862 259.651 116.041V133.815H256.4V116.041C256.4 110.056 261.252 105.187 267.212 105.187C273.173 105.187 278.025 110.056 278.025 116.041V133.815Z" fill="#3A3A3A"/>
</g>
<path d="M279.88 125.901H254.552C253.501 125.901 252.648 126.755 252.648 127.814V142.756C252.648 143.815 253.501 144.669 254.552 144.669H279.88C280.931 144.669 281.785 143.815 281.785 142.756V127.814C281.785 126.755 280.931 125.901 279.88 125.901Z" fill="#E4794A"/>
<g opacity="0.3">
<path d="M269.659 132.846C269.659 131.492 268.567 130.4 267.22 130.4C265.874 130.4 264.782 131.5 264.782 132.846C264.782 133.963 265.537 134.891 266.555 135.186V138.84H267.885V135.186C268.903 134.899 269.659 133.963 269.659 132.846Z" fill="#3A3A3A"/>
</g>
<path d="M254.207 142.887C254.142 142.887 254.093 139.759 254.093 135.901C254.093 132.042 254.142 128.906 254.207 128.906C254.273 128.906 254.322 132.034 254.322 135.901C254.322 139.768 254.273 142.887 254.207 142.887Z" fill="#F6BD5F"/>
<path d="M265.316 135.975C265.316 135.975 265.209 135.942 265.028 135.81C264.856 135.679 264.634 135.482 264.404 135.162C263.945 134.571 263.534 133.479 263.805 132.305C264.084 131.131 264.946 130.351 265.619 130.022C265.956 129.85 266.252 129.768 266.465 129.735C266.678 129.702 266.793 129.702 266.793 129.719C266.802 129.76 266.325 129.809 265.701 130.178C265.086 130.523 264.306 131.287 264.043 132.37C263.789 133.446 264.15 134.48 264.552 135.071C264.946 135.687 265.357 135.942 265.324 135.975H265.316Z" fill="#F6BD5F"/>
<path d="M310.471 160.752H220.768C216.408 160.752 212.878 164.299 212.878 168.675V169.644C212.878 174.02 216.408 177.567 220.768 177.567H310.471C314.83 177.567 318.361 174.02 318.361 169.644V168.675C318.361 164.299 314.83 160.752 310.471 160.752Z" fill="#DBDBFC"/>
<path d="M311.243 183.806H221.54C217.18 183.806 213.65 187.353 213.65 191.729V192.698C213.65 197.074 217.18 200.62 221.54 200.62H311.243C315.602 200.62 319.132 197.074 319.132 192.698V191.729C319.132 187.353 315.602 183.806 311.243 183.806Z" fill="#DBDBFC"/>
<path d="M242.484 192.295L244.052 193.149L243.346 194.332L241.761 193.396L241.786 195.144H240.431L240.447 193.387L238.863 194.34L238.165 193.157L239.733 192.304L238.165 191.433L238.863 190.251L240.447 191.203L240.431 189.447H241.786L241.761 191.203L243.346 190.251L244.052 191.433L242.484 192.304V192.295Z" fill="#3A3A3A"/>
<path d="M249.002 192.295L250.57 193.149L249.864 194.332L248.28 193.396L248.304 195.144H246.95L246.966 193.387L245.382 194.34L244.684 193.157L246.252 192.304L244.684 191.433L245.382 190.251L246.966 191.203L246.95 189.447H248.304L248.28 191.203L249.864 190.251L250.57 191.433L249.002 192.304V192.295Z" fill="#3A3A3A"/>
<path d="M255.529 192.295L257.097 193.149L256.391 194.332L254.807 193.396L254.831 195.144H253.477L253.493 193.387L251.909 194.34L251.211 193.157L252.779 192.304L251.211 191.433L251.909 190.251L253.493 191.203L253.477 189.447H254.831L254.807 191.203L256.391 190.251L257.097 191.433L255.529 192.304V192.295Z" fill="#3A3A3A"/>
<path d="M262.056 192.295L263.624 193.149L262.918 194.332L261.334 193.396L261.358 195.144H260.004L260.02 193.387L258.436 194.34L257.738 193.157L259.306 192.304L257.738 191.433L258.436 190.251L260.02 191.203L260.004 189.447H261.358L261.334 191.203L262.918 190.251L263.624 191.433L262.056 192.304V192.295Z" fill="#3A3A3A"/>
<path d="M268.575 192.295L270.143 193.149L269.437 194.332L267.853 193.396L267.877 195.144H266.523L266.539 193.387L264.954 194.34L264.257 193.157L265.825 192.304L264.257 191.433L264.954 190.251L266.539 191.203L266.523 189.447H267.877L267.853 191.203L269.437 190.251L270.143 191.433L268.575 192.304V192.295Z" fill="#3A3A3A"/>
<path d="M275.102 192.295L276.67 193.149L275.964 194.332L274.38 193.396L274.404 195.144H273.05L273.066 193.387L271.481 194.34L270.784 193.157L272.352 192.304L270.784 191.433L271.481 190.251L273.066 191.203L273.05 189.447H274.404L274.38 191.203L275.964 190.251L276.67 191.433L275.102 192.304V192.295Z" fill="#3A3A3A"/>
<path d="M281.629 192.295L283.197 193.149L282.491 194.332L280.907 193.396L280.931 195.144H279.577L279.593 193.387L278.008 194.34L277.311 193.157L278.879 192.304L277.311 191.433L278.008 190.251L279.593 191.203L279.577 189.447H280.931L280.907 191.203L282.491 190.251L283.197 191.433L281.629 192.304V192.295Z" fill="#3A3A3A"/>
<path d="M288.148 192.295L289.716 193.149L289.01 194.332L287.425 193.396L287.45 195.144H286.095L286.112 193.387L284.527 194.34L283.829 193.157L285.397 192.304L283.829 191.433L284.527 190.251L286.112 191.203L286.095 189.447H287.45L287.425 191.203L289.01 190.251L289.716 191.433L288.148 192.304V192.295Z" fill="#3A3A3A"/>
<path d="M359.477 239.15H233.329C230.349 239.15 227.927 241.58 227.927 244.569V310.126C227.927 313.123 230.341 315.545 233.329 315.545H359.477C362.457 315.545 364.879 313.114 364.879 310.126V244.569C364.879 241.572 362.457 239.15 359.477 239.15Z" fill="white"/>
<path d="M359.485 315.536C359.485 315.536 359.846 315.536 360.552 315.405C361.225 315.249 362.276 314.904 363.27 313.919C363.754 313.426 364.197 312.778 364.493 311.981C364.657 311.579 364.731 311.144 364.797 310.684C364.829 310.225 364.821 309.732 364.821 309.223C364.821 307.187 364.813 304.831 364.805 302.187C364.788 291.588 364.764 276.276 364.739 257.352V246.326C364.706 245.061 364.879 243.756 364.361 242.607C363.894 241.449 362.999 240.456 361.857 239.881C361.291 239.594 360.675 239.413 360.027 239.347C359.403 239.298 358.713 239.331 358.048 239.323H349.879C338.787 239.323 326.948 239.339 314.477 239.339C289.543 239.339 262.138 239.347 233.362 239.355C232.5 239.355 231.646 239.577 230.883 239.988C230.136 240.415 229.479 240.997 229.011 241.728C228.551 242.451 228.247 243.28 228.198 244.142C228.157 245.004 228.19 245.915 228.182 246.802V307.983C228.182 308.78 228.165 309.601 228.19 310.372C228.223 311.136 228.436 311.891 228.781 312.564C229.495 313.919 230.809 314.904 232.287 315.216C233.017 315.389 233.789 315.315 234.561 315.339H250.455C256.367 315.339 262.097 315.339 267.639 315.348C278.731 315.356 289.059 315.364 298.484 315.372C317.334 315.397 332.589 315.421 343.147 315.438C348.409 315.454 352.506 315.471 355.289 315.479C356.669 315.487 357.728 315.495 358.45 315.504C359.165 315.504 359.526 315.528 359.526 315.528C359.526 315.528 359.165 315.545 358.45 315.553C357.728 315.553 356.669 315.561 355.289 315.577C352.506 315.586 348.418 315.602 343.147 315.619C332.589 315.635 317.334 315.66 298.484 315.684C289.051 315.684 278.723 315.701 267.639 315.709C262.097 315.709 256.367 315.709 250.455 315.717H234.561C233.797 315.701 233.001 315.775 232.196 315.602C230.612 315.274 229.191 314.198 228.42 312.745C228.042 312.023 227.812 311.21 227.779 310.381C227.755 309.568 227.779 308.78 227.763 307.975V246.794C227.771 245.891 227.738 245.029 227.787 244.101C227.845 243.165 228.173 242.262 228.674 241.482C229.175 240.694 229.889 240.053 230.702 239.594C231.523 239.15 232.451 238.912 233.395 238.912C262.171 238.912 289.576 238.92 314.51 238.929C326.981 238.929 338.82 238.945 349.912 238.945H358.081C358.754 238.953 359.403 238.92 360.092 238.97C360.766 239.035 361.439 239.232 362.038 239.544C363.245 240.16 364.206 241.219 364.698 242.451C364.953 243.075 365.076 243.723 365.092 244.388V257.319C365.068 276.243 365.043 291.555 365.027 302.154C365.027 304.798 365.01 307.154 365.01 309.19C365.01 309.699 365.01 310.192 364.977 310.668C364.912 311.136 364.821 311.587 364.657 311.99C364.353 312.802 363.894 313.459 363.393 313.952C362.375 314.937 361.307 315.29 360.626 315.421C360.273 315.479 360.01 315.504 359.821 315.504H359.485V315.536Z" fill="#3A3A3A"/>
<path d="M256.227 275.299H243.789C241.942 275.299 240.447 276.801 240.447 278.657V298.09C240.447 299.945 241.942 301.448 243.789 301.448H256.227C258.074 301.448 259.569 299.945 259.569 298.09V278.657C259.569 276.801 258.074 275.299 256.227 275.299Z" fill="#DBDBFC"/>
<path d="M280.11 275.299H267.672C265.825 275.299 264.33 276.801 264.33 278.657V298.09C264.33 299.945 265.825 301.448 267.672 301.448H280.11C281.957 301.448 283.452 299.945 283.452 298.09V278.657C283.452 276.801 281.957 275.299 280.11 275.299Z" fill="#DBDBFC"/>
<path d="M303.993 275.299H291.555C289.708 275.299 288.213 276.801 288.213 278.657V298.09C288.213 299.945 289.708 301.448 291.555 301.448H303.993C305.84 301.448 307.335 299.945 307.335 298.09V278.657C307.335 276.801 305.84 275.299 303.993 275.299Z" fill="#DBDBFC"/>
<path d="M327.868 275.299H315.43C313.582 275.299 312.088 276.801 312.088 278.657V298.09C312.088 299.945 313.582 301.448 315.43 301.448H327.868C329.715 301.448 331.209 299.945 331.209 298.09V278.657C331.209 276.801 329.715 275.299 327.868 275.299Z" fill="#DBDBFC"/>
<path d="M351.743 275.299H339.305C337.457 275.299 335.963 276.801 335.963 278.657V298.09C335.963 299.945 337.457 301.448 339.305 301.448H351.743C353.59 301.448 355.084 299.945 355.084 298.09V278.657C355.084 276.801 353.59 275.299 351.743 275.299Z" fill="#DBDBFC"/>
<path d="M254.183 290.397C254.183 292.269 252.746 293.476 250.8 293.476C248.124 293.476 246.72 291.547 246.72 288.353C246.72 284.897 248.551 283.115 251.244 283.115C252.114 283.115 252.927 283.263 253.551 283.64L253.247 284.24C252.721 283.911 252.007 283.772 251.244 283.772C248.961 283.772 247.467 285.274 247.467 288.23C247.467 288.534 247.483 288.985 247.549 289.453C247.976 288.107 249.249 287.351 250.792 287.351C252.82 287.351 254.191 288.55 254.191 290.389H254.183V290.397ZM253.436 290.414C253.436 288.952 252.385 288.008 250.677 288.008C248.969 288.008 247.861 289.067 247.861 290.447C247.861 291.645 248.863 292.836 250.767 292.836C252.352 292.836 253.444 291.883 253.444 290.414H253.436Z" fill="#3A3A3A" stroke="#3A3A3A" stroke-width="0.84"/>
<path d="M277.803 290.57H275.668V293.402H274.938V290.57H269.141V290.028L274.659 283.189H275.488L270.069 289.913H274.954V287.417H275.668V289.913H277.803V290.57Z" fill="#3A3A3A" stroke="#3A3A3A" stroke-width="0.84"/>
<path d="M302.433 294.847C302.433 294.97 300.455 295.069 298.008 295.069C295.561 295.069 293.583 294.97 293.583 294.847C293.583 294.724 295.561 294.625 298.008 294.625C300.455 294.625 302.433 294.724 302.433 294.847Z" fill="#3A3A3A" stroke="#3A3A3A" stroke-width="0.84"/>
<path d="M236.622 248.854C237.771 248.854 238.699 247.918 238.699 246.769C238.699 245.62 237.771 244.684 236.622 244.684C235.472 244.684 234.544 245.62 234.544 246.769C234.544 247.918 235.472 248.854 236.622 248.854Z" fill="#3A3A3A"/>
<path d="M244.676 246.777C244.676 247.927 243.748 248.863 242.598 248.863C241.449 248.863 240.521 247.927 240.521 246.777C240.521 245.628 241.449 244.692 242.598 244.692C243.748 244.692 244.676 245.628 244.676 246.777Z" fill="#3A3A3A"/>
<path d="M248.469 248.854C249.618 248.854 250.546 247.918 250.546 246.769C250.546 245.62 249.618 244.684 248.469 244.684C247.319 244.684 246.391 245.62 246.391 246.769C246.391 247.918 247.319 248.854 248.469 248.854Z" fill="#3A3A3A"/>
<path d="M365.092 252.639C365.092 252.762 334.428 252.861 296.621 252.861C258.813 252.861 228.141 252.762 228.141 252.639C228.141 252.516 258.797 252.417 296.621 252.417C334.444 252.417 365.092 252.516 365.092 252.639Z" fill="#3A3A3A"/>
<path d="M263 266.646V260.857H266.227V261.662H263.945V263.296H265.899V264.1H263.945V265.841H266.227V266.646H263ZM267.499 266.646V262.475H268.353V262.877C268.665 262.549 269.084 262.311 269.675 262.311C270.595 262.311 271.293 262.935 271.293 264.141V266.646H270.43V264.174C270.43 263.509 270.069 263.115 269.47 263.115C268.871 263.115 268.559 263.468 268.345 263.838V266.646H267.491H267.499ZM272.869 265.201V263.247H272.081V262.475H272.869V261.432H273.731V262.475H275.11V263.247H273.731V265.201C273.731 265.759 274.026 265.948 274.494 265.948C274.774 265.948 274.962 265.915 275.118 265.857V266.613C274.921 266.695 274.691 266.736 274.363 266.736C273.386 266.736 272.877 266.227 272.877 265.209L272.869 265.201ZM276.12 266.646V262.475H276.974V262.943C277.261 262.623 277.631 262.393 278.14 262.393C278.271 262.393 278.394 262.417 278.501 262.45V263.288C278.37 263.255 278.238 263.23 278.066 263.23C277.54 263.23 277.187 263.509 276.974 263.871V266.646H276.12ZM282.984 265.964C282.598 266.481 281.957 266.81 281.177 266.81C279.741 266.81 278.887 265.775 278.887 264.56C278.887 263.345 279.683 262.311 281.005 262.311C282.154 262.311 282.901 263.099 282.901 264.158C282.901 264.347 282.877 264.536 282.844 264.659H279.765C279.823 265.57 280.381 266.038 281.177 266.038C281.678 266.038 282.105 265.816 282.36 265.471L282.984 265.964ZM280.989 263.025C280.365 263.025 279.938 263.378 279.806 264.027H282.048C282.031 263.509 281.662 263.025 280.989 263.025ZM284.018 266.646V262.475H284.872V262.943C285.159 262.623 285.529 262.393 286.038 262.393C286.169 262.393 286.292 262.417 286.399 262.45V263.288C286.268 263.255 286.136 263.23 285.964 263.23C285.438 263.23 285.085 263.509 284.872 263.871V266.646H284.018ZM289.568 266.646V260.447H290.422V266.646H289.568ZM295.57 265.964C295.184 266.481 294.543 266.81 293.763 266.81C292.327 266.81 291.473 265.775 291.473 264.56C291.473 263.345 292.269 262.311 293.591 262.311C294.74 262.311 295.487 263.099 295.487 264.158C295.487 264.347 295.463 264.536 295.43 264.659H292.351C292.409 265.57 292.967 266.038 293.763 266.038C294.264 266.038 294.691 265.816 294.946 265.471L295.57 265.964ZM293.575 263.025C292.951 263.025 292.524 263.378 292.392 264.027H294.634C294.617 263.509 294.248 263.025 293.575 263.025ZM300.783 266.005C301.251 266.005 301.637 265.775 301.867 265.455L302.54 265.964C302.162 266.473 301.546 266.81 300.783 266.81C299.387 266.81 298.509 265.775 298.509 264.56C298.509 263.345 299.387 262.311 300.783 262.311C301.546 262.311 302.162 262.639 302.54 263.156L301.867 263.665C301.637 263.345 301.251 263.115 300.775 263.115C299.97 263.115 299.395 263.747 299.395 264.56C299.395 265.373 299.97 266.005 300.783 266.005ZM305.2 262.311C306.555 262.311 307.466 263.329 307.466 264.56C307.466 265.792 306.555 266.81 305.2 266.81C303.845 266.81 302.934 265.792 302.934 264.56C302.934 263.329 303.854 262.311 305.2 262.311ZM305.208 266.005C305.996 266.005 306.571 265.348 306.571 264.56C306.571 263.772 305.996 263.115 305.208 263.115C304.42 263.115 303.829 263.764 303.829 264.56C303.829 265.357 304.404 266.005 305.208 266.005ZM308.238 264.56C308.238 263.345 309.059 262.311 310.372 262.311C310.972 262.311 311.415 262.524 311.76 262.894V260.439H312.63V266.637H311.76V266.219C311.415 266.588 310.963 266.81 310.372 266.81C309.059 266.81 308.238 265.775 308.238 264.56ZM309.141 264.56C309.141 265.381 309.674 266.005 310.479 266.005C311.013 266.005 311.481 265.751 311.76 265.307V263.805C311.456 263.353 310.996 263.107 310.479 263.107C309.674 263.107 309.141 263.739 309.141 264.552V264.56ZM317.77 265.964C317.384 266.481 316.743 266.81 315.963 266.81C314.527 266.81 313.673 265.775 313.673 264.56C313.673 263.345 314.469 262.311 315.791 262.311C316.94 262.311 317.687 263.099 317.687 264.158C317.687 264.347 317.663 264.536 317.63 264.659H314.551C314.609 265.57 315.167 266.038 315.963 266.038C316.464 266.038 316.891 265.816 317.146 265.471L317.77 265.964ZM315.774 263.025C315.151 263.025 314.724 263.378 314.592 264.027H316.834C316.817 263.509 316.448 263.025 315.774 263.025Z" fill="#3A3A3A"/>
<path d="M237.237 170.695C236.917 171.13 236.383 171.401 235.735 171.401C234.536 171.401 233.83 170.539 233.83 169.529C233.83 168.519 234.495 167.657 235.595 167.657C236.556 167.657 237.172 168.314 237.172 169.192C237.172 169.348 237.147 169.512 237.122 169.611H234.561C234.61 170.366 235.07 170.76 235.735 170.76C236.154 170.76 236.507 170.572 236.72 170.284L237.237 170.695ZM235.579 168.24C235.062 168.24 234.7 168.535 234.594 169.077H236.457C236.441 168.642 236.137 168.24 235.579 168.24ZM238.099 171.261V167.788H238.805V168.109C239.052 167.838 239.38 167.649 239.84 167.649C240.3 167.649 240.718 167.862 240.932 168.273C241.203 167.928 241.548 167.649 242.147 167.649C242.869 167.649 243.428 168.141 243.428 169.102V171.261H242.713V169.135C242.713 168.626 242.434 168.322 241.983 168.322C241.572 168.322 241.301 168.585 241.112 168.913C241.112 168.979 241.112 169.036 241.112 169.102V171.261H240.398V169.135C240.398 168.626 240.119 168.322 239.667 168.322C239.216 168.322 238.961 168.626 238.797 168.921V171.261H238.091H238.099ZM245.488 171.36C244.799 171.36 244.331 170.966 244.331 170.35C244.331 169.824 244.741 169.447 245.472 169.324L246.597 169.135V168.954C246.597 168.527 246.276 168.265 245.833 168.265C245.455 168.265 245.16 168.437 244.955 168.716L244.421 168.306C244.733 167.895 245.226 167.632 245.85 167.632C246.786 167.632 247.303 168.182 247.303 168.946V171.237H246.597V170.843C246.35 171.146 245.915 171.335 245.488 171.335V171.36ZM245.053 170.333C245.053 170.604 245.267 170.785 245.628 170.785C246.063 170.785 246.4 170.58 246.605 170.251V169.652L245.669 169.808C245.234 169.882 245.053 170.071 245.053 170.333ZM248.781 167.017C248.518 167.017 248.296 166.795 248.296 166.532C248.296 166.27 248.518 166.048 248.781 166.048C249.043 166.048 249.265 166.27 249.265 166.532C249.265 166.795 249.043 167.017 248.781 167.017ZM248.419 171.261V167.788H249.125V171.261H248.419ZM250.291 171.261V166.097H250.997V171.261H250.291ZM253.173 169.537C253.173 168.864 253.624 168.289 254.347 168.289C254.651 168.289 254.905 168.396 255.111 168.609V168.379H255.669V169.989C255.669 170.186 255.792 170.317 255.973 170.317C256.293 170.317 256.539 169.898 256.539 169.266C256.539 168.24 255.685 167.419 254.511 167.419C253.337 167.419 252.418 168.38 252.418 169.529C252.418 170.678 253.288 171.647 254.511 171.647C255.102 171.647 255.562 171.499 256.071 171.064L256.342 171.475C255.792 171.91 255.225 172.09 254.503 172.09C252.959 172.09 251.909 170.916 251.909 169.545C251.909 168.174 252.959 167 254.503 167C256.046 167 257.023 168.035 257.023 169.291C257.023 170.153 256.605 170.801 255.932 170.801C255.57 170.801 255.324 170.629 255.217 170.383C255.004 170.654 254.725 170.801 254.347 170.801C253.633 170.801 253.173 170.235 253.173 169.562V169.537ZM253.772 169.537C253.772 169.948 254.035 170.26 254.437 170.26C254.716 170.26 254.938 170.104 255.102 169.857V169.225C254.938 168.971 254.716 168.815 254.437 168.815C254.035 168.815 253.772 169.127 253.772 169.537ZM257.927 171.261V167.788H258.633V168.109C258.879 167.838 259.207 167.649 259.667 167.649C260.127 167.649 260.546 167.862 260.759 168.273C261.03 167.928 261.375 167.649 261.974 167.649C262.697 167.649 263.255 168.141 263.255 169.102V171.261H262.541V169.135C262.541 168.626 262.261 168.322 261.81 168.322C261.399 168.322 261.128 168.585 260.94 168.913C260.94 168.979 260.94 169.036 260.94 169.102V171.261H260.225V169.135C260.225 168.626 259.946 168.322 259.495 168.322C259.043 168.322 258.789 168.626 258.624 168.921V171.261H257.918H257.927ZM265.316 171.36C264.626 171.36 264.158 170.966 264.158 170.35C264.158 169.824 264.568 169.447 265.299 169.324L266.424 169.135V168.954C266.424 168.527 266.104 168.265 265.66 168.265C265.283 168.265 264.987 168.437 264.782 168.716L264.248 168.306C264.56 167.895 265.053 167.632 265.677 167.632C266.613 167.632 267.13 168.182 267.13 168.946V171.237H266.424V170.843C266.178 171.146 265.743 171.335 265.316 171.335V171.36ZM264.872 170.333C264.872 170.604 265.086 170.785 265.447 170.785C265.882 170.785 266.219 170.58 266.424 170.251V169.652L265.488 169.808C265.053 169.882 264.872 170.071 264.872 170.333ZM268.6 167.017C268.337 167.017 268.115 166.795 268.115 166.532C268.115 166.27 268.337 166.048 268.6 166.048C268.862 166.048 269.084 166.27 269.084 166.532C269.084 166.795 268.862 167.017 268.6 167.017ZM268.247 171.261V167.788H268.953V171.261H268.247ZM270.118 171.261V166.097H270.825V171.261H270.118ZM272.343 171.343C272.056 171.343 271.826 171.113 271.826 170.834C271.826 170.555 272.056 170.325 272.343 170.325C272.631 170.325 272.852 170.563 272.852 170.834C272.852 171.105 272.623 171.343 272.343 171.343ZM275.283 170.728C275.677 170.728 275.989 170.539 276.186 170.268L276.744 170.695C276.424 171.122 275.915 171.401 275.274 171.401C274.109 171.401 273.378 170.539 273.378 169.529C273.378 168.519 274.109 167.657 275.274 167.657C275.907 167.657 276.424 167.936 276.744 168.363L276.186 168.79C275.997 168.519 275.677 168.33 275.274 168.33C274.609 168.33 274.125 168.856 274.125 169.537C274.125 170.219 274.609 170.744 275.283 170.744V170.728ZM278.961 167.649C280.094 167.649 280.849 168.494 280.849 169.521C280.849 170.547 280.094 171.393 278.961 171.393C277.828 171.393 277.072 170.547 277.072 169.521C277.072 168.494 277.836 167.649 278.961 167.649ZM278.969 170.728C279.626 170.728 280.102 170.186 280.102 169.521C280.102 168.856 279.617 168.314 278.969 168.314C278.32 168.314 277.819 168.847 277.819 169.521C277.819 170.194 278.304 170.728 278.969 170.728ZM281.736 171.261V167.788H282.442V168.109C282.688 167.838 283.016 167.649 283.476 167.649C283.936 167.649 284.355 167.862 284.568 168.273C284.839 167.928 285.184 167.649 285.783 167.649C286.506 167.649 287.064 168.141 287.064 169.102V171.261H286.35V169.135C286.35 168.626 286.071 168.322 285.619 168.322C285.209 168.322 284.938 168.585 284.749 168.913C284.749 168.979 284.749 169.036 284.749 169.102V171.261H284.034V169.135C284.034 168.626 283.755 168.322 283.304 168.322C282.852 168.322 282.598 168.626 282.434 168.921V171.261H281.727H281.736Z" fill="#3A3A3A"/>
<path d="M211.261 145.359H145.318C143.421 145.359 141.886 146.894 141.886 148.799V178.954C141.886 180.859 143.421 182.394 145.318 182.394H172.985L178.864 189.956L183.757 182.394H211.261C213.157 182.394 214.692 180.859 214.692 178.954V148.799C214.692 146.894 213.157 145.359 211.261 145.359Z" fill="white"/>
<path d="M211.261 145.359H211.589C211.803 145.383 212.131 145.408 212.525 145.572C212.927 145.728 213.404 145.991 213.83 146.459C214.266 146.918 214.635 147.6 214.734 148.429C214.791 151.721 214.783 156.483 214.807 162.534C214.807 165.555 214.824 168.897 214.832 172.517C214.832 174.324 214.832 176.212 214.84 178.158C214.832 178.642 214.873 179.143 214.775 179.66C214.676 180.169 214.463 180.662 214.151 181.089C213.535 181.942 212.509 182.525 211.417 182.558C203.125 182.566 193.814 182.583 183.749 182.599L183.921 182.509C182.378 184.89 180.719 187.451 179.028 190.07L178.864 190.317L178.683 190.087C176.828 187.698 174.833 185.136 172.797 182.525L172.969 182.607H146.344C145.86 182.599 145.416 182.624 144.899 182.583C144.398 182.525 143.906 182.361 143.479 182.107C142.608 181.606 141.968 180.727 141.754 179.742C141.64 179.25 141.672 178.749 141.664 178.289V148.774C141.664 148.322 141.746 147.879 141.91 147.469C142.231 146.639 142.855 145.941 143.635 145.539C144.02 145.334 144.447 145.211 144.883 145.153C145.326 145.112 145.72 145.137 146.139 145.129H153.347C156.475 145.129 159.529 145.129 162.477 145.137C168.363 145.145 173.848 145.153 178.847 145.161C188.847 145.186 196.942 145.211 202.558 145.227C205.341 145.244 207.517 145.26 209.003 145.268C209.734 145.276 210.292 145.285 210.678 145.293C211.055 145.293 211.244 145.317 211.244 145.317C211.244 145.317 211.047 145.334 210.678 145.342C210.292 145.342 209.725 145.35 209.003 145.367C207.509 145.375 205.349 145.391 202.558 145.408C196.942 145.424 188.847 145.449 178.847 145.473C173.848 145.473 168.355 145.49 162.477 145.498C159.529 145.498 156.492 145.498 153.347 145.506H146.139C145.728 145.506 145.309 145.498 144.94 145.531C144.562 145.572 144.176 145.695 143.832 145.868C143.134 146.229 142.576 146.845 142.296 147.583C142.149 147.945 142.083 148.347 142.075 148.749V178.264C142.075 178.741 142.05 179.192 142.157 179.619C142.346 180.473 142.912 181.253 143.676 181.696C144.053 181.918 144.48 182.057 144.924 182.115C145.35 182.156 145.851 182.131 146.319 182.14H173.043L173.109 182.222C175.128 184.832 177.132 187.394 178.987 189.783L178.65 189.799C180.342 187.18 182.008 184.619 183.552 182.238L183.609 182.148H183.716C193.773 182.156 203.075 182.164 211.367 182.172C212.361 182.14 213.289 181.622 213.847 180.851C214.126 180.465 214.331 180.021 214.422 179.562C214.512 179.102 214.479 178.609 214.487 178.125C214.487 176.179 214.487 174.291 214.495 172.485C214.504 168.864 214.512 165.522 214.52 162.501C214.536 156.467 214.545 151.688 214.553 148.404C214.471 147.608 214.118 146.943 213.707 146.492C213.297 146.024 212.837 145.761 212.451 145.597C211.663 145.285 211.203 145.359 211.203 145.326L211.252 145.35L211.261 145.359Z" fill="#3A3A3A"/>
<path d="M204.832 158.298H151.763C150.104 158.298 148.758 159.644 148.758 161.311V172.558C148.758 174.225 150.104 175.572 151.763 175.572H204.832C206.491 175.572 207.837 174.217 207.837 172.558V161.311C207.837 159.644 206.491 158.298 204.832 158.298Z" fill="#DBDBFC"/>
<path d="M160.761 167.994C160.761 169.521 159.587 170.514 157.986 170.514C155.794 170.514 154.644 168.93 154.644 166.319C154.644 163.486 156.139 162.025 158.347 162.025C159.061 162.025 159.726 162.14 160.244 162.46L159.989 162.953C159.554 162.682 158.971 162.567 158.347 162.567C156.475 162.567 155.252 163.798 155.252 166.22C155.252 166.475 155.26 166.844 155.318 167.222C155.662 166.122 156.713 165.498 157.978 165.498C159.644 165.498 160.761 166.475 160.761 167.985H160.769L160.761 167.994ZM160.161 168.002C160.161 166.803 159.308 166.031 157.904 166.031C156.5 166.031 155.597 166.91 155.597 168.026C155.597 169.003 156.418 169.989 157.978 169.989C159.275 169.989 160.17 169.217 160.17 168.01L160.161 168.002Z" fill="#E4794A" stroke="#3A3A3A" stroke-width="0.84"/>
<path d="M171.828 168.133H170.079V170.457H169.488V168.133H164.743V167.69L169.275 162.083H169.948L165.506 167.6H169.513V165.555H170.096V167.6H171.844V168.133H171.836H171.828Z" fill="#E4794A" stroke="#3A3A3A" stroke-width="0.84"/>
<path d="M181.081 168.1C181.081 169.488 180.079 170.514 178.158 170.514C176.935 170.514 175.793 170.063 175.219 169.389L175.531 168.921C176.04 169.504 177.025 169.948 178.166 169.948C179.66 169.948 180.465 169.233 180.465 168.092C180.465 166.951 179.701 166.237 178.035 166.237H177.509V165.793L179.972 162.624H175.531V162.074H180.76V162.509L178.265 165.728C180.161 165.777 181.081 166.729 181.081 168.1Z" fill="#E4794A"/>
<path d="M181.081 168.1C181.081 169.488 180.079 170.514 178.158 170.514C176.935 170.514 175.793 170.063 175.219 169.389L175.531 168.921C176.04 169.504 177.025 169.948 178.166 169.948C179.66 169.948 180.465 169.233 180.465 168.092C180.465 166.951 179.701 166.237 178.035 166.237H177.509V165.793L179.972 162.624H175.531V162.074H180.76V162.509L178.265 165.728C180.161 165.777 181.081 166.729 181.081 168.1ZM181.081 168.1H181.072" stroke="#3A3A3A" stroke-width="0.84"/>
<path d="M191.154 162.083V162.518L187.575 170.457H186.91L190.457 162.641H185.777V164.25H185.186V162.099H191.163L191.154 162.083Z" fill="#E4794A" stroke="#3A3A3A" stroke-width="0.84"/>
<path d="M195.415 166.261C195.415 163.642 196.762 162.017 198.675 162.017C200.588 162.017 201.934 163.642 201.934 166.261C201.934 168.88 200.588 170.498 198.675 170.498C196.762 170.498 195.415 168.872 195.415 166.261ZM201.335 166.261C201.335 163.93 200.251 162.583 198.675 162.583C197.098 162.583 196.015 163.938 196.015 166.261C196.015 168.585 197.098 169.94 198.675 169.94C200.251 169.94 201.335 168.585 201.335 166.261Z" fill="#E4794A" stroke="#3A3A3A" stroke-width="0.84"/>
<path d="M160.367 151.171H161.04L162.288 154.365L163.536 151.171H164.217L162.707 155.03H161.877L160.375 151.171H160.367ZM165.794 152.14C166.697 152.14 167.304 152.822 167.304 153.643C167.304 154.464 166.697 155.145 165.794 155.145C164.89 155.145 164.283 154.464 164.283 153.643C164.283 152.822 164.899 152.14 165.794 152.14ZM165.794 154.603C166.319 154.603 166.705 154.168 166.705 153.643C166.705 153.117 166.319 152.682 165.794 152.682C165.268 152.682 164.874 153.109 164.874 153.643C164.874 154.176 165.26 154.603 165.794 154.603ZM168.142 154.061V152.764H167.616V152.255H168.142V151.557H168.716V152.255H169.636V152.764H168.716V154.061C168.716 154.439 168.913 154.554 169.225 154.554C169.414 154.554 169.537 154.529 169.636 154.496V154.997C169.504 155.055 169.348 155.079 169.135 155.079C168.486 155.079 168.142 154.734 168.142 154.061ZM170.309 155.03V152.255H170.876V152.567C171.064 152.354 171.311 152.198 171.655 152.198C171.746 152.198 171.828 152.214 171.902 152.239V152.797C171.811 152.772 171.729 152.756 171.606 152.756C171.253 152.756 171.023 152.945 170.876 153.183V155.038H170.309V155.03ZM174.882 154.578C174.619 154.923 174.201 155.137 173.683 155.137C172.723 155.137 172.156 154.447 172.156 153.634C172.156 152.822 172.682 152.132 173.568 152.132C174.332 152.132 174.833 152.657 174.833 153.363C174.833 153.487 174.816 153.618 174.792 153.7H172.739C172.78 154.308 173.15 154.62 173.683 154.62C174.02 154.62 174.299 154.472 174.472 154.242L174.882 154.57V154.578ZM173.552 152.616C173.142 152.616 172.854 152.854 172.764 153.281H174.258C174.25 152.936 173.995 152.616 173.552 152.616ZM178.363 154.603C178.675 154.603 178.93 154.447 179.086 154.234L179.529 154.578C179.274 154.923 178.864 155.137 178.355 155.137C177.427 155.137 176.836 154.447 176.836 153.634C176.836 152.822 177.419 152.132 178.355 152.132C178.864 152.132 179.274 152.354 179.529 152.69L179.086 153.035C178.93 152.822 178.675 152.666 178.355 152.666C177.821 152.666 177.435 153.084 177.435 153.626C177.435 154.168 177.821 154.587 178.363 154.587V154.603ZM181.302 152.14C182.205 152.14 182.813 152.822 182.813 153.643C182.813 154.464 182.205 155.145 181.302 155.145C180.399 155.145 179.792 154.464 179.792 153.643C179.792 152.822 180.407 152.14 181.302 152.14ZM181.31 154.603C181.836 154.603 182.222 154.168 182.222 153.643C182.222 153.117 181.836 152.682 181.31 152.682C180.785 152.682 180.391 153.109 180.391 153.643C180.391 154.176 180.777 154.603 181.31 154.603ZM183.33 153.643C183.33 152.83 183.872 152.14 184.751 152.14C185.145 152.14 185.448 152.28 185.678 152.534V150.9H186.253V155.038H185.678V154.759C185.448 155.005 185.153 155.153 184.751 155.153C183.872 155.153 183.33 154.464 183.33 153.651V153.643ZM183.93 153.643C183.93 154.184 184.291 154.603 184.824 154.603C185.186 154.603 185.489 154.431 185.678 154.143V153.142C185.473 152.838 185.169 152.682 184.824 152.682C184.291 152.682 183.93 153.101 183.93 153.643ZM189.677 154.578C189.414 154.923 188.995 155.137 188.478 155.137C187.517 155.137 186.951 154.447 186.951 153.634C186.951 152.822 187.476 152.132 188.363 152.132C189.126 152.132 189.627 152.657 189.627 153.363C189.627 153.487 189.611 153.618 189.586 153.7H187.534C187.575 154.308 187.944 154.62 188.478 154.62C188.814 154.62 189.094 154.472 189.266 154.242L189.677 154.57V154.578ZM188.355 152.616C187.944 152.616 187.657 152.854 187.567 153.281H189.061C189.053 152.936 188.798 152.616 188.355 152.616Z" fill="#3A3A3A"/>
<path d="M161.294 246.925L190.645 263.23L203.519 239.372L215.243 236.424C215.243 236.424 207.574 278.591 204.455 282.474C201.343 286.35 193.987 291.374 186.278 288.714C179.266 286.284 151.607 267.713 151.607 267.713L161.294 246.933V246.925Z" fill="#E0C5A7"/>
<path d="M207.049 195.029C206.417 194.816 205.719 194.947 205.21 195.374L196.557 202.706C195.801 203.363 195.374 204.315 195.358 205.308L194.824 248.198L196.869 248.083L207.147 241.088L207.583 195.202L207.049 195.021V195.029Z" fill="white" stroke="#3A3A3A" stroke-width="0.84" stroke-miterlimit="10"/>
<path d="M202.829 203.239C203.141 203.289 203.453 202.985 203.51 202.566C203.576 202.147 203.371 201.77 203.059 201.721C202.747 201.671 202.435 201.975 202.377 202.394C202.312 202.821 202.509 203.19 202.829 203.248V203.239Z" fill="white" stroke="#3A3A3A" stroke-width="0.84" stroke-miterlimit="10"/>
<path d="M207.583 195.21C207.583 195.21 207.041 195.785 205.982 196.737C204.824 197.747 203.297 199.093 201.45 200.711C200.473 201.548 199.43 202.459 198.297 203.428C197.739 203.863 197.402 204.512 197.378 205.226C197.378 206.023 197.361 206.844 197.361 207.681C197.328 211.064 197.287 214.766 197.246 218.658C197.148 226.449 197.008 233.493 196.885 238.592C196.811 241.055 196.737 243.099 196.696 244.634C196.639 246.063 196.581 246.851 196.532 246.851C196.483 246.851 196.458 246.063 196.433 244.634C196.433 243.099 196.417 241.055 196.409 238.592C196.409 233.485 196.474 226.441 196.581 218.65C196.639 214.766 196.696 211.064 196.762 207.681C196.778 206.844 196.795 206.014 196.811 205.21C196.836 204.315 197.32 203.478 197.952 203.01C199.093 202.057 200.169 201.17 201.162 200.349C203.067 198.798 204.643 197.509 205.834 196.532C206.95 195.637 207.574 195.169 207.607 195.21H207.591H207.583Z" fill="white" stroke="#3A3A3A" stroke-width="0.84" stroke-miterlimit="10"/>
<path d="M203.913 212.755C203.913 212.755 202.977 213.141 203.97 215.752C204.972 218.371 207.681 225.965 207.681 225.965L201.762 226.416L196.68 230.661C196.68 230.661 196.179 232.549 197.451 232.599C198.724 232.64 202.616 231.047 202.616 231.047L207.55 233.132L197.87 234.257C197.87 234.257 195.801 236.474 197.493 237.533C199.167 238.584 207.156 240.152 207.156 240.152L203.264 242.229L197.156 242.344C197.156 242.344 195.842 243.272 197.082 244.101C198.322 244.938 205.547 246.211 205.547 246.211L212.829 245.39C212.829 245.39 215.719 243.222 215.448 242.139C215.177 241.063 214.438 239.733 214.438 239.733C214.438 239.733 215.776 238.272 215.579 237.295C215.382 236.318 214.413 235.193 214.413 235.193C214.413 235.193 217.221 234.027 216.647 232.418C216.072 230.801 214.036 228.173 213.1 227.254C212.164 226.326 207.098 215.349 206.803 215.103C206.507 214.865 205.087 211.088 203.921 212.763V212.788L203.913 212.755Z" fill="white" stroke="#3A3A3A" stroke-width="0.84" stroke-miterlimit="10"/>
<path d="M215.637 242.015C215.694 242.065 215.308 242.656 214.471 243.395C213.642 244.134 212.32 245.004 210.694 245.562C209.069 246.12 207.5 246.252 206.392 246.186C205.276 246.12 204.611 245.899 204.635 245.825C204.652 245.611 207.377 246.03 210.481 244.93C213.592 243.887 215.497 241.868 215.645 242.032H215.637V242.015Z" fill="white" stroke="#3A3A3A" stroke-width="0.84" stroke-miterlimit="10"/>
<path d="M213.059 240.85C213.059 241.039 211.737 241.137 210.136 240.94C208.535 240.743 207.279 240.316 207.328 240.144C207.369 239.955 208.658 240.078 210.226 240.275C211.794 240.472 213.067 240.669 213.059 240.85Z" fill="white" stroke="#3A3A3A" stroke-width="0.84" stroke-miterlimit="10"/>
<path d="M212.944 234.175C212.944 234.355 211.638 234.47 210.07 234.175C208.502 233.887 207.328 233.313 207.394 233.149C207.451 232.968 208.683 233.231 210.193 233.51C211.704 233.789 212.944 233.978 212.936 234.175H212.944Z" fill="white" stroke="#3A3A3A" stroke-width="0.84" stroke-miterlimit="10"/>
<path d="M213.576 228.329C213.469 228.494 212.246 227.796 210.637 227.213C209.036 226.622 207.656 226.359 207.681 226.162C207.681 225.981 209.184 225.948 210.875 226.581C212.574 227.205 213.683 228.19 213.576 228.329Z" fill="white" stroke="#3A3A3A" stroke-width="0.84" stroke-miterlimit="10"/>
<path d="M166.344 244.708C166.344 244.708 164.193 265.759 151.024 274.938L126.336 265.775C127.633 275.964 128.889 295.069 127.091 326.209H44.5559V299.477C40.9024 299.568 37.2325 299.469 33.5872 299.174C28.0865 273.985 31.0996 250.808 38.8499 239.634C46.9203 228.001 75.2286 222.582 75.2286 222.582L96.197 222.311C96.197 222.311 111.008 222.163 123.619 224.47C134.086 226.392 166.352 244.716 166.352 244.716L166.344 244.708Z" fill="#E4794A"/>
<path d="M125.983 315.249C125.983 315.249 134.136 314.535 134.628 316.719C135.121 318.902 124.489 319.847 124.489 319.847C124.489 319.847 130.137 320.274 130.433 321.965C130.728 323.656 111.689 324.337 111.689 324.337C111.689 324.337 59.4243 329.025 46.4524 317.86C42.684 314.625 38.111 309.485 35.96 299.502C44.835 299.773 54.5064 299.502 63.3815 296.267L63.9234 299.231C73.8739 300.586 95.1051 304.362 107.248 304.559C107.248 304.559 120.22 295.972 121.492 297.745C122.773 299.519 117.56 305.241 117.379 305.446C117.748 305.372 133.774 302.129 134.283 304.403C134.792 306.669 125.293 309.674 124.924 309.789C125.285 309.724 135.088 307.958 135.671 310.594C136.278 313.246 125.967 315.241 125.967 315.241H125.975L125.983 315.249Z" fill="#E0C5A7"/>
<path d="M75.5077 193.034L75.3353 222.599C75.3353 222.599 85.0314 235.177 93.2661 233.444C98.0279 232.443 96.1396 222.435 96.1396 222.435L94.8095 208.757L75.4995 193.043H75.5077V193.034Z" fill="#E0C5A7"/>
<path d="M85.4173 210.161C91.5994 212.911 98.5451 213.904 104.391 212.624C117.272 209.783 114.267 192.468 113.307 181.508C111.722 163.56 98.6108 159.628 86.0248 163.068C73.4306 166.508 66.1975 180.276 69.8756 193.839C70.8937 197.575 73.0119 200.908 75.8197 203.707" fill="#E0C5A7"/>
<path d="M85.1956 210.653C85.0724 210.596 84.9739 210.481 84.9246 210.357C84.8754 210.226 84.8836 210.086 84.941 209.955C84.9985 209.824 85.1052 209.725 85.2284 209.676C85.3515 209.627 85.4993 209.627 85.6307 209.676C91.8621 212.451 98.66 213.338 104.267 212.106C115.376 209.66 114.177 195.941 113.052 184.619C112.954 183.568 112.847 182.534 112.757 181.565C112.108 174.159 109.473 168.798 104.916 165.621C100.179 162.304 93.5041 161.582 86.1479 163.601C73.5373 167.049 66.8707 180.777 70.3682 193.691C71.3124 197.197 73.2746 200.423 76.1645 203.313C76.2138 203.362 76.2548 203.428 76.2795 203.494C76.3041 203.56 76.3205 203.633 76.3205 203.699C76.3205 203.765 76.3041 203.847 76.2795 203.904C76.2548 203.97 76.2138 204.036 76.1645 204.085C76.1152 204.134 76.0578 204.175 75.9839 204.208C75.91 204.241 75.8525 204.249 75.7786 204.249C75.7048 204.249 75.6309 204.241 75.5734 204.208C75.5077 204.183 75.4502 204.142 75.3928 204.085C72.3551 201.064 70.3108 197.665 69.3173 193.978C65.4997 179.906 73.1925 166.023 85.8524 162.559C93.5287 160.457 100.515 161.229 105.524 164.734C110.343 168.109 113.134 173.732 113.816 181.466C114.817 192.854 117.773 210.234 104.489 213.165C98.2003 214.553 91.0904 213.305 85.1709 210.678V210.661L85.1956 210.653Z" fill="#3A3A3A"/>
<path d="M105.335 198.141C105.269 198.141 105.195 198.116 105.13 198.083C105.072 198.051 105.015 198.01 104.965 197.944C104.924 197.895 104.891 197.829 104.867 197.755C104.85 197.689 104.842 197.615 104.842 197.542C104.842 197.476 104.867 197.402 104.9 197.336C104.932 197.279 104.974 197.213 105.039 197.172C105.088 197.131 105.154 197.098 105.228 197.074C105.294 197.049 105.368 197.049 105.442 197.049C105.827 197.082 107.01 197.049 107.297 196.425C107.469 196.047 106.419 194.701 105.146 193.634C105.039 193.543 104.965 193.412 104.949 193.272C104.932 193.125 104.974 192.993 105.064 192.878C105.154 192.763 105.286 192.698 105.425 192.681C105.573 192.665 105.704 192.706 105.811 192.804C108.709 195.21 108.422 196.523 108.258 196.877C107.79 197.911 106.427 198.215 105.327 198.124L105.335 198.141ZM99.1937 193.207C99.0705 193.207 98.9392 193.166 98.8489 193.075C98.7585 192.993 98.6847 192.878 98.66 192.755L98.348 190.949C98.3234 190.801 98.3563 190.662 98.4384 190.547C98.5205 190.432 98.6436 190.35 98.7832 190.325C98.931 190.3 99.0705 190.325 99.1773 190.415C99.2922 190.497 99.3743 190.62 99.3989 190.76L99.7109 192.558C99.7273 192.632 99.7191 192.714 99.7027 192.788C99.6863 192.862 99.6452 192.936 99.6042 192.993C99.5631 193.051 99.4974 193.1 99.4236 193.141C99.3579 193.174 99.2758 193.19 99.1937 193.19H99.1855L99.1937 193.207ZM109.859 191.327C109.735 191.327 109.604 191.285 109.514 191.195C109.415 191.113 109.349 190.998 109.325 190.875L109.013 189.069C108.988 188.929 109.021 188.79 109.103 188.666C109.185 188.552 109.308 188.469 109.448 188.445C109.596 188.42 109.735 188.445 109.85 188.527C109.965 188.609 110.047 188.732 110.072 188.872L110.384 190.678C110.4 190.752 110.392 190.834 110.376 190.908C110.359 190.982 110.318 191.056 110.277 191.113C110.228 191.171 110.17 191.22 110.097 191.261C110.031 191.294 109.949 191.31 109.875 191.31H109.859V191.327ZM96.5254 186.047C96.4351 186.047 96.3448 186.023 96.2709 185.982C96.197 185.941 96.1231 185.883 96.0739 185.801C96.0246 185.727 96 185.637 95.9918 185.555C95.9918 185.473 95.9918 185.374 96.0328 185.292C96.2627 184.767 96.665 184.34 97.174 184.085C97.683 183.831 98.2659 183.757 98.8242 183.88C98.9556 183.913 99.0787 184.003 99.1526 184.118C99.2265 184.233 99.2511 184.381 99.2183 184.52C99.1937 184.66 99.1116 184.783 98.9884 184.857C98.8735 184.931 98.7257 184.956 98.5943 184.931C98.4794 184.906 97.4449 184.726 97.0098 185.719C96.9688 185.809 96.9031 185.9 96.8046 185.957C96.7225 186.015 96.6075 186.039 96.509 186.039H96.5172L96.5254 186.047ZM109.62 183.88C109.538 183.88 109.456 183.864 109.382 183.823C109.308 183.79 109.243 183.732 109.194 183.667C109.12 183.576 108.446 182.763 107.478 183.24C107.354 183.297 107.207 183.297 107.075 183.256C106.936 183.207 106.837 183.108 106.772 182.985C106.714 182.854 106.706 182.714 106.747 182.575C106.788 182.435 106.878 182.328 107.01 182.271C107.527 182.025 108.11 181.959 108.66 182.09C109.218 182.23 109.711 182.55 110.047 183.01C110.105 183.084 110.146 183.19 110.154 183.281C110.162 183.379 110.146 183.486 110.105 183.568C110.064 183.658 109.998 183.74 109.9 183.79C109.817 183.839 109.711 183.872 109.612 183.872H109.62V183.88ZM103.282 206.655C100.162 206.655 99.6616 203.239 99.6945 203.239C99.6616 203.05 99.6945 202.862 99.7766 202.697C99.8587 202.525 100.006 202.402 100.171 202.312C100.45 202.164 100.754 202.065 101.066 202.024C102.412 201.786 106.41 201.868 106.665 203.313C106.903 204.684 105.261 206.655 103.282 206.655ZM100.786 203.215C100.983 204.134 101.542 205.497 103.208 205.579C104.481 205.645 105.68 204.315 105.63 203.568C105.474 203.428 104.826 203.157 103.496 203.05C102.174 202.944 101.123 203.067 100.786 203.223V203.215Z" fill="#3A3A3A"/>
<path d="M100.204 203.149C100.392 204.225 101.049 206.023 103.159 206.113C104.809 206.187 106.312 204.495 106.115 203.412C105.926 202.336 100.023 202.057 100.195 203.141H100.204V203.149ZM76.0742 211.523C73.2336 211.523 66.1237 201.556 62.306 192.164C57.2979 190.662 56.3537 183.642 60.0646 180.555C58.6689 176.392 61.0581 171.286 65.6146 170.703C63.9726 165.071 67.9134 159.406 73.7754 159.915C75.7048 154.767 82.4781 151.541 86.9443 155.112C90.1873 150.835 96.7307 150.605 99.481 153.306C104.481 149.841 111.156 153.848 110.573 158.092C116.911 158.363 119.292 162.411 117.494 167.69C120.917 172.156 116.147 180.021 107.757 177.369C105.507 181.516 97.5435 180.949 95.0312 178.076C92.3794 180.506 87.5765 181.442 84.7604 179.824C84.9329 180.752 84.8508 181.704 84.547 182.591C83.5618 185.333 80.2121 186.639 80.2696 186.639C76.6571 188.346 79.9165 194.446 79.1366 196.285C79.0955 196.384 79.0298 196.491 78.9313 196.556C78.8492 196.63 78.7343 196.688 78.6275 196.704C78.0364 196.827 77.3714 196.253 75.754 194.717C75.1875 194.184 74.6046 193.617 74.1777 193.289C72.4208 194.241 74.933 201.45 75.6062 203.568C76.9199 207.681 77.6177 210.045 76.9527 211.063C76.8542 211.219 76.7146 211.334 76.5586 211.408C76.3944 211.482 76.222 211.54 76.0414 211.523H76.0496H76.0742ZM66.8461 171.007C66.879 171.089 66.8872 171.179 66.879 171.261C66.8708 171.343 66.8379 171.434 66.7969 171.499C66.7476 171.565 66.6901 171.631 66.608 171.672C66.5259 171.713 66.4438 171.729 66.3617 171.737C62.0022 171.828 59.7034 176.754 61.2058 180.547C61.2469 180.662 61.2551 180.785 61.2223 180.892C61.1894 181.015 61.1237 181.105 61.017 181.179C57.6016 183.626 58.3241 190.054 62.8396 191.187C62.9217 191.212 63.0038 191.244 63.0613 191.31C63.127 191.368 63.168 191.442 63.2091 191.515C67.3798 201.893 74.4076 210.579 76.0824 210.44C76.5504 209.947 75.3846 206.293 74.621 203.88C73.25 199.561 71.8296 195.095 72.9216 193.116C73.0447 192.878 73.2253 192.665 73.4388 192.492C73.6523 192.32 73.9068 192.205 74.1695 192.148C74.2434 192.131 74.3173 192.123 74.3912 192.139C74.4651 192.148 74.5389 192.18 74.5964 192.221C75.557 192.854 77.2647 194.726 78.2253 195.456C78.1924 193.322 75.8033 187.566 79.8426 185.67C83.3976 183.987 84.7687 181.606 83.0692 178.018C83.0363 177.952 83.0117 177.879 83.0035 177.805C83.0035 177.731 83.0035 177.657 83.0281 177.583C83.0528 177.517 83.0856 177.443 83.1349 177.394C83.1841 177.337 83.2416 177.296 83.3155 177.255C83.3812 177.222 83.4468 177.205 83.5289 177.205C83.611 177.205 83.6767 177.214 83.7424 177.238C83.8081 177.263 83.8656 177.304 83.9312 177.353C83.9805 177.402 84.0215 177.476 84.0462 177.542C85.5158 180.662 91.9853 179.865 94.7192 176.869C94.7767 176.803 94.8424 176.762 94.9327 176.721C95.0066 176.688 95.1051 176.68 95.1872 176.688C95.2693 176.696 95.3596 176.729 95.4253 176.778C95.491 176.828 95.5484 176.885 95.5977 176.967C97.0427 179.627 105.327 180.563 107.001 176.483C107.051 176.351 107.157 176.253 107.281 176.195C107.404 176.138 107.552 176.138 107.675 176.179C115.441 178.938 119.661 171.795 116.492 168.133C116.435 168.059 116.394 167.969 116.377 167.879C116.361 167.788 116.377 167.682 116.402 167.6C118.249 162.591 116.049 159.135 109.916 159.135C109.834 159.135 109.744 159.119 109.67 159.078C109.596 159.036 109.522 158.987 109.473 158.913C109.423 158.848 109.391 158.757 109.382 158.675C109.366 158.593 109.382 158.503 109.407 158.421C110.565 154.931 104.268 150.867 99.7684 154.431C99.6617 154.513 99.5139 154.562 99.3825 154.537C99.2348 154.521 99.1116 154.455 99.0295 154.34C96.8785 151.705 90.3269 151.836 87.5272 156.188C87.4862 156.253 87.4287 156.311 87.363 156.352C87.2974 156.393 87.2317 156.417 87.1496 156.426C87.0757 156.434 86.9936 156.426 86.9197 156.409C86.8458 156.385 86.7719 156.352 86.7226 156.294C82.8065 152.608 76.2302 155.752 74.6949 160.654C74.6621 160.769 74.58 160.876 74.4733 160.941C74.3665 161.007 74.2352 161.032 74.1202 161.015C68.6031 160.26 64.9332 165.777 66.8872 170.982H66.8626L66.8461 171.007Z" fill="#3A3A3A"/>
<path d="M80.0396 186.138C75.9839 188.051 79.3089 194.479 78.6439 196.064C78.3319 196.803 75.5405 193.502 74.2762 192.665C69.851 193.806 79.0134 210.752 76.107 210.982C73.8657 211.154 66.6573 201.573 62.6918 191.713C57.7329 190.456 56.9284 183.437 60.6968 180.744C59.0794 176.696 61.5014 171.294 66.3453 171.196C64.2353 165.596 68.2254 159.693 74.1448 160.506C75.7622 155.383 82.7489 151.869 87.0428 155.917C89.9984 151.327 96.9934 151.056 99.4071 154.028C104.309 150.162 111.23 154.57 109.891 158.618C116.615 158.618 118.766 162.665 116.886 167.797C120.384 171.844 115.811 179.668 107.469 176.705C105.589 181.294 96.7224 180.21 95.1051 177.246C92.1494 180.481 85.212 181.327 83.5453 177.78C85.2202 181.319 84.2596 184.168 80.0478 186.154L80.0396 186.138Z" fill="#3A3A3A"/>
<path d="M76.4601 203.79C75.5405 204.964 74.3419 205.982 72.8066 206.4C68.9725 207.443 64.6951 204.216 63.3322 199.2C62.2813 195.35 65.0645 190.941 69.0546 191.031C70.9101 191.121 72.6999 191.696 74.2844 192.665" fill="#E0C5A7"/>
<path d="M62.815 199.348C61.682 195.161 64.7197 190.382 69.071 190.497C71.0168 190.596 72.8969 191.187 74.5635 192.205C74.6292 192.23 74.6949 192.279 74.7524 192.336C74.8016 192.394 74.8427 192.468 74.8591 192.533C74.8837 192.599 74.8919 192.689 74.8837 192.755C74.8837 192.829 74.8509 192.911 74.818 192.969C74.777 193.034 74.7277 193.084 74.662 193.141C74.6046 193.182 74.5307 193.215 74.4568 193.231C74.3829 193.248 74.3008 193.248 74.2269 193.231C74.153 193.215 74.0791 193.182 74.0217 193.141C72.5192 192.213 70.8115 191.68 69.0546 191.589C65.3847 191.507 62.9217 195.62 63.8576 199.077C65.5079 205.169 71.8214 208.847 76.0495 203.469C76.0906 203.412 76.1481 203.371 76.2137 203.33C76.2712 203.297 76.3369 203.272 76.419 203.264C76.4847 203.264 76.5668 203.264 76.6325 203.28C76.6981 203.297 76.7638 203.33 76.8213 203.371C76.8788 203.412 76.9198 203.469 76.9527 203.535C76.9855 203.592 77.0101 203.666 77.0183 203.74C77.0183 203.806 77.0183 203.888 77.0019 203.954C76.9855 204.019 76.9526 204.093 76.9116 204.142C72.158 210.177 64.7361 206.392 62.8232 199.356H62.815V199.348Z" fill="#3A3A3A"/>
<path d="M72.6178 202.583C72.5356 202.583 72.4536 202.566 72.3797 202.525C69.0546 200.859 70.2615 197.854 72.9215 197.911C72.5439 196.622 71.7393 195.908 70.5406 195.777C68.8822 195.596 67.1909 196.63 66.9692 197.205C66.92 197.345 66.8133 197.443 66.6901 197.501C66.567 197.558 66.411 197.558 66.2714 197.509C66.14 197.46 66.0333 197.353 65.9758 197.23C65.9184 197.098 65.9184 196.951 65.9676 196.811C66.7558 194.734 73.2171 192.64 74.1448 198.437C74.1612 198.519 74.1448 198.617 74.1202 198.699C74.0956 198.781 74.0463 198.864 73.9724 198.921C73.9067 198.978 73.8246 199.02 73.7425 199.052C73.6604 199.077 73.5619 199.077 73.4798 199.052C72.4043 198.806 71.649 199.208 71.4683 199.717C71.2549 200.3 71.7968 201.023 72.8476 201.556C72.9544 201.606 73.0529 201.704 73.1104 201.811C73.1678 201.918 73.176 202.049 73.1514 202.164C73.1268 202.287 73.0611 202.394 72.9544 202.468C72.8558 202.542 72.7327 202.591 72.6178 202.583Z" fill="#3A3A3A"/>
<path d="M63.0777 321.39H120.039V326.661H63.0777V321.39Z" fill="#CACAFB"/>
<path d="M195.842 326.653H113.709L140.277 271.53C140.556 270.956 140.999 270.471 141.541 270.118C142.083 269.782 142.707 269.601 143.356 269.601H223.362L195.859 326.653H195.851H195.842Z" fill="#CACAFB"/>
<path d="M200.095 326.653H125.54C124.965 326.653 124.398 326.505 123.889 326.226C123.38 325.947 122.962 325.536 122.65 325.052C122.346 324.559 122.165 324.001 122.132 323.418C122.1 322.843 122.215 322.26 122.469 321.735L146.664 271.539C146.943 270.964 147.378 270.471 147.928 270.127C148.47 269.79 149.094 269.609 149.743 269.609H224.306C224.881 269.609 225.448 269.757 225.957 270.036C226.466 270.315 226.884 270.718 227.196 271.21C227.5 271.703 227.681 272.261 227.714 272.836C227.746 273.411 227.632 273.994 227.385 274.511L203.19 324.707C202.911 325.282 202.476 325.774 201.926 326.127C201.384 326.464 200.752 326.653 200.103 326.653H200.095Z" fill="#6A6AF4"/>
<path d="M177.419 303.747C176.081 303.747 174.775 303.345 173.667 302.606C172.559 301.859 171.697 300.808 171.187 299.56C170.678 298.32 170.547 296.957 170.81 295.652C171.073 294.338 171.713 293.131 172.657 292.187C173.593 291.243 174.8 290.594 176.114 290.332C177.427 290.069 178.782 290.2 180.005 290.717C181.237 291.227 182.287 292.097 183.035 293.205C183.782 294.322 184.168 295.627 184.168 296.974C184.168 298.763 183.453 300.487 182.189 301.76C180.916 303.024 179.209 303.739 177.427 303.747H177.419ZM177.419 291.276C176.302 291.276 175.202 291.604 174.266 292.236C173.339 292.869 172.608 293.747 172.173 294.798C171.738 295.832 171.631 296.982 171.853 298.09C172.074 299.198 172.616 300.208 173.404 301.005C174.201 301.801 175.21 302.351 176.311 302.556C177.411 302.778 178.552 302.671 179.586 302.236C180.621 301.801 181.508 301.07 182.131 300.134C182.755 299.198 183.084 298.098 183.084 296.974C183.084 295.463 182.485 294.018 181.425 292.951C180.358 291.883 178.921 291.284 177.419 291.284H177.411L177.419 291.276Z" fill="white"/>
<path d="M65.6228 294.625C65.5654 282.934 65.3026 271.235 64.8347 259.552C64.769 257.976 62.306 257.967 62.3717 259.552C62.8396 271.235 63.1023 282.926 63.1598 294.625C63.168 296.21 65.631 296.21 65.6228 294.625Z" fill="#BB6540"/>
</g>
</svg>
