<?xml version="1.0" encoding="UTF-8"?>
<svg id="Calque_1" xmlns="http://www.w3.org/2000/svg" version="1.1" viewBox="0 0 250 250">
  <!-- Generator: Adobe Illustrator 29.4.0, SVG Export Plug-In . SVG Version: 2.1.0 Build 152)  -->
  <defs>
    <style>
      .st0 {
        fill: #f4cf98;
      }

      .st1 {
        fill: #bb6540;
      }

      .st2 {
        fill: #845d48;
      }

      .st3 {
        fill: #3a3a3a;
      }

      .st4 {
        fill: #6868f5;
      }

      .st5 {
        fill: #e4794a;
      }

      .st6 {
        fill: #fff;
      }

      .st7 {
        fill: #f0f0fc;
      }

      .st8 {
        fill: #6a6af4;
      }

      .st9 {
        fill: #bdbdfa;
      }

      .st10 {
        fill: none;
        stroke: #845d48;
        stroke-linecap: round;
        stroke-linejoin: round;
        stroke-width: .5px;
      }
    </style>
  </defs>
  <path class="st7" d="M244.7,182.3c-11.2,25.9-51.4,41.7-98,50.6C100.1,241.8,14,188.3,1.8,143.6-10.5,98.8,44,52.6,76.7,31.2c32.8-21.4,96.9-11.9,129.5,15.1,32.7,27,54.2,99.3,38.4,135.9Z"/>
  <path class="st9" d="M156,215.3h-50.1v-4.6h50.1v4.6Z"/>
  <path class="st9" d="M39.2,215.4h72.3l-23.4-48.3c-.2-.5-.6-.9-1.1-1.2-.5-.3-1-.5-1.6-.5H15l24.2,50Z"/>
  <path class="st8" d="M35.5,215.4h65.6c.5,0,1-.1,1.5-.4.4-.2.8-.6,1.1-1,.3-.4.4-.9.5-1.4,0-.5,0-1-.3-1.5l-21.3-44c-.2-.5-.6-.9-1.1-1.2-.5-.3-1-.5-1.6-.5H14.2c-.5,0-1,.1-1.5.4-.4.2-.8.6-1.1,1s-.4.9-.5,1.4,0,1,.3,1.5l21.3,44c.2.5.6.9,1.1,1.2.5.3,1,.5,1.6.5Z"/>
  <path class="st6" d="M55.4,195.3c-1.2,0-2.3-.3-3.3-1-1-.7-1.7-1.6-2.2-2.7-.4-1.1-.6-2.3-.3-3.4.2-1.2.8-2.2,1.6-3,.8-.8,1.9-1.4,3-1.6,1.2-.2,2.3-.1,3.4.3,1.1.5,2,1.2,2.7,2.2.7,1,1,2.1,1,3.3,0,1.6-.6,3.1-1.7,4.2-1.1,1.1-2.6,1.7-4.2,1.7ZM55.4,184.3c-1,0-2,.3-2.8.8-.8.5-1.5,1.3-1.8,2.2-.4.9-.5,1.9-.3,2.9.2,1,.7,1.9,1.4,2.6.7.7,1.6,1.2,2.6,1.4,1,.2,2,0,2.9-.3.9-.4,1.7-1,2.2-1.8.5-.8.8-1.8.8-2.8,0-1.3-.5-2.6-1.5-3.5-.9-.9-2.2-1.5-3.5-1.5Z"/>
  <path class="st0" d="M87,111.3c3.7,0,5.2,1.2,5.1,2.3-.3,2.4-5,3.4-5,3.4,0,0,4.4.2,4.3,2.5-.1,2.2-4.7,2.7-4.7,2.7,0,0,3.4,1.1,2.7,2.7-1,2.2-4.3,2.2-4.3,2.2,2.9,1.2,3.2,4.8-1.5,4.2"/>
  <path class="st0" d="M83.5,131.2c-2.6-.4-3.1-4.3-1.8-5.2-.9-1.2-1.9-3.8.4-5.1-1.1-1.6-1-4.2,1-4.7-1-1.5.7-3.7,1.8-4.3l2.1-.6"/>
  <path class="st0" d="M121,168c-6-16.4-16.4-45.1-16.9-47-1-3.5-1.4-5.4-1.4-7.5,0-4.8,2.6-7.5.5-8.6-2.3-1.2-4.5,1.3-5.5,4.4-.5,1.8-2.5,4.2-2.5,4.2-3.9.2-2,0-8.7.6l-3,17.2c3.4,1.4,8.1,1.6,8.1,1.6,0,0,8,35.5,9.6,42,2,7.9,6.2,15.2,14.5,14.6,1.4-.1,5-.9,8.7-2l6.6-2.4-8-17.6-2.2.7ZM193.1,197.5c-16,.4-37.4.6-49.6,4.5-4.4,1.3-7.4,4-9.9,7.4-3,5.5-5.1,12-2.5,12.9,1.9.7,3.3-2.5,4-4.5.3-.9.5-1.7.5-1.6,0,.1-.2.7-.5,1.6-.5,2.1-1,5.5,1.2,6.1,2.2.6,3.7-5.6,3.9-6.3,0,0,0,0,0,0,0,0,0,0,0,0-.1.7-1.3,6.7,1.5,7.2,1.9.4,3.4-4.7,3.7-6,0,0,0-.4,0-.3-.6,2.4-1,6.2,1.5,6.5,1.7.2,2.5-2.8,3.6-5.9.5-1.5,1.6-2.4,3.7-4.1,17.8,1.6,23.2,4.1,36.8,4.8,12.6.7,19.2-2.8,22.2-9.1,3.1-6.4,4.3-16.6,4.3-16.6l.2-2.5-23.7-.7-.9,6.6Z"/>
  <path class="st5" d="M220.1,190.2v.2c-5.5,3.5-20.1,3.9-26,.4l-.9,6.6c-17.2.4-36.5.6-49.6,4.5,1.2-11.1-.9-15.1-.5-21.5,0,.1,0,.3,0,.6l-10.1,5.9-.3-.3c-3.1-3-10.7-19.8-9.8-22.2,10.7-9,23.8-20.3,31.2-22.1,3.4-.8,13.4-1.2,16.8-1.3-.1.9-.2,1.7-.2,2.6,0,2.9.4,4,1.3,5.4.4.5.9.8,1.5.9,5.6,1.2,12.2-5.1,15.8-9.5,4.3.2,8.5.9,12.6,2.1,10.8,3.3,14.7,9.1,16.1,13.3,4.5,14,2.4,32.3,2.2,34.4Z"/>
  <path class="st3" d="M207,85.9c.4-7.3,10-17,16.9-5.6,7.2,11.9-5.2,20.3-13.8,14.3-3.3-2.3-3.3-4.8-3.1-8.7Z"/>
  <path class="st8" d="M199.3,92.9c-2.6-7.9,8.8-10.8,12.2-2.6,3.1,7.5-8.5,13.4-12.2,2.6Z"/>
  <path class="st0" d="M171.9,149c.4.5.9.8,1.6.9,7.2,1.5,15.8-9.5,15.8-9.5-.1-20.1-.1-22.1-.1-25.9l-17,13.8c-1.3,13.5-1.1,11.7-1.2,12.3-.2,1-.2,2-.3,3l1.3,5.4Z"/>
  <path class="st0" d="M162.8,131.5c4.3,1.2,11,1,17.5-1.9,9.1-6.1,8.3-5.5,9-6.3,3.1-3.3,4.5-6.7,5.2-10.5,1.8-11-4.4-21.7-14.7-24.5-10.9-3-22.2.3-23.9,15.3,0,.3,0,.5,0,.8-.8,8.9-3.1,22.4,5.4,26.5l1.6.6Z"/>
  <path class="st3" d="M168.2,132.7c-2,0-4.2-.2-6.1-.9-.9-.3-1.7-.7-2.5-1.2-6.5-4.4-5.4-15-4.6-23.5.3-2.9.3-2.8.3-3.5.7-6.4,3.2-11.1,7.4-13.9,4.4-3,10.5-3.6,17.2-1.8,11.4,3.1,17.8,15.5,14.5,27.5-.8,3-2.6,6.2-5.4,8.9,0,0,0,0-.2.1,0,0-.1,0-.2,0,0,0-.1,0-.2,0s-.1,0-.2-.1c0,0,0-.1-.1-.2,0,0,0-.1,0-.2,0,0,0-.1,0-.2,0,0,0-.1.1-.2,2.3-2.3,4.2-5.3,5.1-8.4,3.1-11.5-2.9-23.4-13.9-26.4-6.4-1.7-12.2-1.1-16.4,1.7-3.9,2.7-6.3,7.1-7,13.3,0,.7,0,.2-.3,3.5-.8,8.2-1.8,18.5,4.2,22.6.7.5,1.5.9,2.3,1.1,3.6,1.3,10.6,1.4,17.6-1.8,0,0,.1,0,.2,0,0,0,.1,0,.2,0,0,0,.1,0,.2,0,0,0,0,0,.1.2,0,0,0,.1,0,.2,0,0,0,.1,0,.2,0,0,0,.1-.1.2,0,0-.1,0-.2.1-3.9,1.7-8.1,2.7-12.3,2.7Z"/>
  <path class="st3" d="M163.9,119c-.6,0-1.8-.1-2.3-1.1-.1-.3-.4-1.5,2.2-3.6,0,0,.1,0,.2,0,0,0,.1,0,.2,0,0,0,.1,0,.2,0,0,0,.1,0,.1.1,0,0,0,.1,0,.2,0,0,0,.1,0,.2,0,0,0,.1,0,.2,0,0,0,.1-.1.1-1.1.9-2,2.1-1.9,2.4.2.5,1.3.6,1.6.5.1,0,.3,0,.3.1,0,0,.2.2.2.3,0,.1,0,.3-.1.3,0,0-.2.2-.3.2,0,0-.2,0-.3,0ZM171.9,114.7c0,0-.1,0-.2,0,0,0-.1,0-.2-.1,0,0,0-.1,0-.2,0,0,0-.1,0-.2l.3-1.6c0,0,0-.1,0-.2,0,0,0,0,.1-.1,0,0,.1,0,.2,0,0,0,.1,0,.2,0,0,0,.1,0,.2,0,0,0,0,0,.1.1,0,0,0,.1,0,.2s0,.1,0,.2l-.3,1.6c0,.1,0,.2-.2.3,0,0-.2.1-.3.1ZM160.2,113c0,0-.1,0-.2,0,0,0-.1,0-.2-.1,0,0,0-.1,0-.2,0,0,0-.1,0-.2l.3-1.6c0,0,0-.1,0-.2,0,0,0,0,.1-.1,0,0,.1,0,.2,0,0,0,.1,0,.2,0,0,0,.1,0,.2,0,0,0,0,0,.1.1,0,0,0,.1,0,.2,0,0,0,.1,0,.2l-.3,1.6c0,.1,0,.2-.2.3,0,0-.2.1-.3.1ZM174.3,108.1c0,0-.2,0-.3,0,0,0-.1-.1-.2-.2-.4-.9-1.3-.7-1.4-.7-.1,0-.2,0-.4,0s-.2-.2-.2-.3c0-.1,0-.2,0-.4,0-.1.2-.2.3-.2.5-.1,1,0,1.5.2.4.2.8.6,1,1.1,0,0,0,.2,0,.2,0,0,0,.2,0,.2,0,0-.1.1-.2.2,0,0-.1,0-.2,0ZM162.4,106.3c-.1,0-.2,0-.3-.1-.2-.2-.5-.3-.8-.3-.3,0-.6,0-.8.2,0,0-.1,0-.2,0,0,0-.1,0-.2,0,0,0-.1,0-.2,0,0,0,0,0-.1-.1,0-.1,0-.2,0-.4,0-.1,0-.2.2-.3.4-.3.9-.4,1.4-.4s1,.2,1.3.6c0,0,.1.2.1.2,0,0,0,.2,0,.3,0,0,0,.2-.2.2,0,0-.2,0-.3,0ZM162.4,126.1c-1.2-.6-1.4-1.8-1.3-2.4,0-.1,0-.2.2-.3,0,0,.2-.1.3,0l6,.8c0,0,.2,0,.2,0,0,0,.1.1.2.2,0,0,0,.1,0,.2,0,0,0,.2,0,.2-1.2,2.1-3.3,2.4-5.6,1.4ZM162,124.2c0,.2.1.4.2.6.1.2.3.3.5.4,1.8.8,3,.7,3.9-.4l-4.7-.6Z"/>
  <path class="st3" d="M187.3,119.1c0,.7,2.2-4.2,3.3-4.9,2.1.5-.1,4.9-1.1,10.9,0,2,0,2.2.1,4,19.7,0,19.6-27.7,16.9-33.9-5.2-12.2-14-16.5-26.1-16.4-17.3.2-29.4,14.1-24.2,25.1,1.4-3.1.9-5.5,5.2-6.5,4.4-1.1,23.1-1.9,23.3,6.7.1,5.9,3.3,2.2,2.6,15.1Z"/>
  <path class="st6" d="M188.2,124c.8,1,1.9,1.9,3.2,2.3,3.4.9,7.1-1.9,8.3-6.3.9-3.4-1.5-7.2-5-7.2-1.6,0-3.2.6-4.6,1.4l-1.9,9.8Z"/>
  <path class="st3" d="M187.9,124.2c0,0,0-.2,0-.3,0-.1,0-.2.2-.3,0,0,.2-.1.3,0,.1,0,.2,0,.3.2,3.7,4.7,9.3,1.5,10.7-3.9.8-3-1.4-6.6-4.6-6.6-1.5,0-3,.6-4.4,1.4-.1,0-.2,0-.4,0-.1,0-.2-.1-.3-.2,0-.1,0-.2,0-.4,0-.1.1-.2.2-.3,1.5-.9,3.1-1.4,4.8-1.5,3.9,0,6.5,4.1,5.5,7.8-1.7,6.2-8.2,9.5-12.4,4.2Z"/>
  <path class="st3" d="M191.6,122.9c-.1,0-.2,0-.3-.1,0,0-.1-.2-.2-.3,0-.1,0-.2,0-.3,0,0,.1-.2.2-.2.9-.5,1.4-1.1,1.2-1.6-.2-.4-.8-.8-1.8-.6,0,0-.2,0-.2,0,0,0-.1,0-.2-.1,0,0,0-.1-.1-.2,0,0,0-.2,0-.2.4-2.6,2.1-3.2,3.1-3.3,1.8-.2,3.7.9,4.1,1.9,0,.1,0,.2,0,.4s-.1.2-.3.2c-.1,0-.2,0-.4,0s-.2-.1-.2-.3c-.2-.5-1.7-1.4-3.1-1.3-1.1.1-1.8.7-2.1,1.9,2.3,0,3.4,2.6.5,4,0,0-.1,0-.2,0Z"/>
  <path class="st4" d="M189.6,129.5c-1-.3-2-.8-2.8-1.5-.8-.7-1.5-1.5-2-2.4-.5-.9-.8-2-.9-3-.1-1.1,0-2.1.3-3.2l1.2-4c.6-2,2.1-3.7,4-4.7,1.9-1,4.1-1.2,6.1-.6,2,.6,3.8,2,4.8,3.9,1,1.9,1.3,4.1.7,6.1l-1.2,4c-.3,1-.8,2-1.5,2.8-.7.8-1.5,1.5-2.4,2-.9.5-2,.8-3,.9-1.1.1-2.1,0-3.2-.3Z"/>
  <path class="st5" d="M162.9,132.8c1,0,1.9-.8,1.9-1.9s-.8-1.9-1.9-1.9-1.9.8-1.9,1.9.8,1.9,1.9,1.9Z"/>
  <path class="st5" d="M176.4,135.4l-13.7-4.1c0,0-.1,0-.2,0,0,0,0,0-.1-.1,0,0,0-.1,0-.2,0,0,0-.1,0-.2,0,0,0-.1,0-.2,0,0,0,0,.2-.1,0,0,.1,0,.2,0,0,0,.1,0,.2,0l13.7,4.1c1.2.4,2.4.5,3.6.4,1.2-.1,2.4-.5,3.5-1.1,1.1-.6,2-1.4,2.8-2.3.8-.9,1.4-2,1.7-3.2,0,0,0-.1,0-.2,0,0,0,0,.1-.1,0,0,.1,0,.2,0,0,0,.1,0,.2,0,0,0,.1,0,.2,0,0,0,0,0,.1.1,0,0,0,.1,0,.2,0,0,0,.1,0,.2-.4,1.3-1,2.5-1.9,3.5-.9,1-1.9,1.9-3.1,2.5-1.2.6-2.5,1-3.8,1.2-1.3.1-2.7,0-4-.4Z"/>
  <path class="st1" d="M143.8,197.7c0,0-.1,0-.2,0,0,0-.1,0-.2-.1,0,0,0,0-.1-.2,0,0,0-.1,0-.2.4-14-5.2-16.9,7.2-37,0-.1.2-.2.3-.2.1,0,.3,0,.4,0,.1,0,.2.2.2.3,0,.1,0,.3,0,.4-12.2,19.7-6.6,22.4-7,36.5,0,.1,0,.2-.1.3,0,0-.2.1-.3.1Z"/>
  <path class="st10" d="M87.5,111.6c3.6,0,5.1,1.2,5,2.2-.3,2.4-4.9,3.3-4.9,3.3,0,0,4.3.2,4.2,2.4-.1,2.1-4.6,2.6-4.6,2.6,0,0,3.3,1.1,2.6,2.6-1,2.2-4.2,2.1-4.2,2.1,2.9,1.2,3.1,4.7-1.5,4.1"/>
  <path class="st2" d="M87.8,116.9c-1,.1-2.1,0-3.1-.2s-.2,0-.3.1,0,.2.1.3c1,.3,2.1.3,3.2.2s.2,0,.2-.2,0-.2-.2-.2h0Z"/>
  <path class="st2" d="M87.3,122c-.3,0-.6,0-.9-.2s-.6-.1-.9-.2c-.6-.2-1.2-.3-1.7-.5s-.2,0-.3.1,0,.2.1.3c.6.2,1.2.4,1.7.5s.6.1.9.2.6.1.9.2.2-.1.2-.2,0-.2-.2-.2h0Z"/>
  <path class="st2" d="M85.7,126.8c-1.2-.2-2.3-.5-3.4-.9s-.2,0-.3.1,0,.2.1.3c1.1.4,2.3.7,3.4.9s.2,0,.3-.1,0-.2-.1-.3h0Z"/>
  <path class="st1" d="M194.7,190.5c-.1-7.5,1.1-15,3.7-22,.2-.5-.6-.7-.8-.2-2.6,7.1-3.8,14.7-3.7,22.2s.9.5.8,0h0Z"/>
</svg>