<svg width="384" height="384" viewBox="0 0 384 384" fill="none" xmlns="http://www.w3.org/2000/svg">
<path d="M367.169 273.312C350.831 311.21 292.047 334.222 223.879 347.293C155.719 360.363 29.9334 282.163 11.9781 216.745C-5.96907 151.327 73.7094 83.7177 121.599 52.421C169.48 21.1244 263.246 35.0732 310.98 74.5717C358.713 114.062 390.28 219.725 367.177 273.304L367.169 273.312Z" fill="#F0F0FC"/>
<path d="M237.549 321.661H164.274V314.913H237.549V321.661Z" fill="#BDBDFA"/>
<path d="M66.7726 321.686H172.428L138.249 251.039C137.888 250.3 137.33 249.667 136.632 249.232C135.934 248.797 135.129 248.559 134.3 248.559H31.3955L66.7726 321.686Z" fill="#BDBDFA"/>
<path d="M61.288 321.686H157.198C157.937 321.686 158.667 321.497 159.324 321.136C159.973 320.775 160.523 320.257 160.917 319.625C161.311 318.993 161.541 318.279 161.582 317.532C161.623 316.793 161.475 316.046 161.147 315.381L130.022 251.055C129.661 250.316 129.103 249.692 128.405 249.249C127.707 248.814 126.903 248.575 126.073 248.575H30.1555C29.4166 248.575 28.6859 248.764 28.0291 249.126C27.3805 249.487 26.8305 250.004 26.4364 250.628C26.0423 251.26 25.8124 251.974 25.7714 252.722C25.7303 253.469 25.8781 254.208 26.1983 254.873L57.3225 319.198C57.6838 319.945 58.2421 320.569 58.9399 321.004C59.6378 321.44 60.4506 321.678 61.2798 321.669L61.288 321.686Z" fill="#6A6AF4"/>
<path d="M90.4664 292.31C88.7505 292.31 87.0757 291.801 85.6471 290.849C84.2186 289.896 83.1102 288.542 82.4534 286.949C81.7966 285.365 81.6242 283.616 81.9608 281.933C82.2974 280.25 83.1266 278.706 84.3417 277.491C85.5568 276.276 87.1003 275.455 88.7834 275.118C90.4664 274.782 92.2152 274.962 93.7997 275.619C95.3842 276.276 96.7389 277.393 97.6912 278.821C98.6436 280.25 99.1526 281.925 99.1526 283.64C99.1526 285.939 98.2331 288.14 96.6075 289.765C94.9819 291.391 92.7734 292.302 90.4746 292.31H90.4664ZM90.4664 276.342C89.0215 276.342 87.6175 276.769 86.4189 277.573C85.2202 278.378 84.2843 279.511 83.7342 280.841C83.1841 282.171 83.0363 283.64 83.3155 285.053C83.5946 286.465 84.2925 287.77 85.3105 288.788C86.3286 289.806 87.6257 290.504 89.0461 290.783C90.4582 291.062 91.9278 290.923 93.2578 290.373C94.5879 289.823 95.7291 288.887 96.5336 287.688C97.3382 286.489 97.7651 285.077 97.7651 283.64C97.7651 281.703 97.0016 279.847 95.6305 278.476C94.2595 277.105 92.404 276.333 90.4746 276.333L90.4664 276.342Z" fill="white"/>
<path d="M136.624 169.545C142.001 169.406 144.218 171.352 144.045 172.903C143.651 176.467 136.698 177.911 136.698 177.911C136.698 177.911 143.159 178.191 142.962 181.557C142.773 184.726 136.115 185.473 136.115 185.473C136.115 185.473 141.016 187.082 139.998 189.373C138.545 192.648 133.725 192.583 133.725 192.583C138.019 194.315 138.364 199.594 131.55 198.65" fill="#F4CF98"/>
<path d="M131.541 198.699C127.69 198.166 127.042 192.402 128.971 191.064C127.633 189.348 126.122 185.44 129.587 183.675C127.929 181.294 128.109 177.55 131.024 176.811C129.595 174.669 132.009 171.401 133.618 170.465L136.631 169.595" fill="#F4CF98"/>
<path d="M186.327 252.483C177.567 228.527 162.419 186.499 161.598 183.741C160.063 178.626 159.587 175.785 159.595 172.739C159.595 165.662 163.47 161.804 160.334 160.112C157.009 158.314 153.684 162.025 152.305 166.615C151.533 169.176 148.61 172.682 148.61 172.682C142.838 173.027 145.654 172.813 135.926 173.618L131.533 198.691C136.525 200.768 143.413 201.064 143.413 201.064C143.413 201.064 155.17 252.943 157.502 262.409C160.359 274.027 166.639 284.609 178.7 283.714C180.744 283.567 185.99 282.467 191.458 280.759L201.146 277.302L189.48 251.515L186.327 252.475V252.483ZM291.703 295.603C268.329 296.194 237.081 296.415 219.159 302.146C212.78 304.092 208.272 308 204.717 312.918C200.391 320.996 197.23 330.438 201.113 331.825C203.913 332.819 205.933 328.229 206.918 325.29C207.361 323.968 207.64 322.802 207.583 323.024C207.525 323.18 207.222 324.059 206.918 325.29C206.179 328.295 205.473 333.295 208.675 334.173C211.885 335.052 214.102 326.037 214.372 324.929C214.372 324.912 214.372 324.896 214.372 324.88C214.372 324.806 214.397 324.773 214.372 324.929C214.159 326.004 212.542 334.699 216.54 335.528C219.282 336.095 221.45 328.656 221.95 326.801C221.95 326.76 222.09 326.259 222.049 326.415C221.162 329.953 220.571 335.487 224.192 335.939C226.614 336.242 227.821 331.858 229.43 327.293C230.226 325.044 231.802 323.788 234.881 321.243C260.85 323.566 268.846 327.187 288.632 328.246C307.105 329.231 316.702 324.1 321.087 314.937C325.569 305.602 327.31 290.66 327.31 290.66L327.655 286.982L293.074 285.915L291.686 295.594L291.703 295.603Z" fill="#F4CF98"/>
<path d="M331.135 284.954L331.094 285.274C323.073 290.414 301.702 291.029 293.057 285.931L291.744 295.619C266.662 296.21 238.378 296.432 219.159 302.146C220.891 285.939 217.87 280.118 218.403 270.734C218.403 270.931 218.379 271.104 218.362 271.596L203.568 280.151L203.198 279.782C198.699 275.357 187.525 250.858 188.847 247.254C204.495 234.076 223.584 217.509 234.52 214.898C239.487 213.707 254.043 213.165 259.133 212.977C258.961 214.249 258.862 215.538 258.838 216.819C258.706 221.022 259.412 222.738 260.734 224.742C261.317 225.415 262.114 225.883 262.992 226.063C271.128 227.796 280.882 218.658 286.062 212.164C292.285 212.468 298.443 213.51 304.42 215.275C320.273 220.119 325.979 228.518 327.983 234.733C334.567 255.176 331.521 281.974 331.152 284.962L331.135 284.954Z" fill="#E4794A"/>
<path d="M312.048 132.469C312.696 121.82 326.645 107.568 336.719 124.292C347.236 141.754 329.108 153.914 316.53 145.194C311.662 141.82 311.703 138.183 312.056 132.469H312.048Z" fill="#3A3A3A"/>
<path d="M300.841 142.617C297.04 131.131 313.632 126.87 318.607 138.815C323.18 149.809 306.112 158.454 300.841 142.617Z" fill="#6A6AF4"/>
<path d="M260.718 224.717C261.31 225.398 262.106 225.866 262.984 226.047C273.584 228.264 286.046 212.147 286.046 212.147C285.89 182.698 285.858 179.907 285.833 174.266L261.006 194.414C259.085 214.126 259.356 211.532 259.224 212.377C258.994 213.847 258.863 215.333 258.83 216.819L260.718 224.709V224.717Z" fill="#F4CF98"/>
<path d="M247.475 199.061C253.789 200.883 263.501 200.473 273.099 196.22C286.424 187.271 285.283 188.141 286.317 187.025C290.882 182.164 292.943 177.279 293.87 171.729C296.522 155.58 287.409 139.973 272.319 135.868C256.408 131.533 239.848 136.32 237.344 158.298C237.295 158.692 237.254 159.094 237.221 159.496C236.08 172.436 232.714 192.287 245.168 198.182L247.484 199.069L247.475 199.061Z" fill="#F4CF98"/>
<path d="M255.365 200.785C252.425 200.785 249.174 200.44 246.424 199.397C245.151 198.97 243.944 198.379 242.828 197.632C233.386 191.138 234.93 175.711 236.17 163.314C236.596 159.012 236.547 159.193 236.67 158.199C237.738 148.799 241.367 141.943 247.434 137.83C253.862 133.479 262.762 132.535 272.507 135.195C289.239 139.751 298.558 157.904 293.771 175.448C292.605 179.775 289.97 184.463 285.947 188.404C285.881 188.47 285.807 188.527 285.717 188.568C285.635 188.609 285.537 188.626 285.446 188.626C285.356 188.626 285.257 188.609 285.175 188.576C285.093 188.543 285.011 188.486 284.945 188.42C284.88 188.355 284.83 188.273 284.798 188.19C284.765 188.1 284.748 188.01 284.748 187.92C284.748 187.829 284.773 187.731 284.814 187.649C284.855 187.566 284.913 187.484 284.978 187.427C288.377 184.11 291.185 179.742 292.433 175.104C297.014 158.322 288.164 140.909 272.146 136.549C262.811 134.004 254.297 134.874 248.214 138.996C242.491 142.879 239.068 149.398 238.041 158.388C237.902 159.48 238.041 158.634 237.541 163.478C236.334 175.514 234.84 190.489 243.608 196.515C244.667 197.213 245.808 197.763 247.015 198.166C252.22 200.136 262.516 200.177 272.811 195.604C272.893 195.563 272.983 195.538 273.082 195.53C273.172 195.53 273.271 195.53 273.361 195.571C273.451 195.604 273.533 195.653 273.599 195.719C273.665 195.785 273.722 195.859 273.763 195.949C273.804 196.039 273.821 196.13 273.821 196.22C273.821 196.31 273.804 196.409 273.763 196.491C273.731 196.581 273.673 196.655 273.607 196.721C273.542 196.786 273.46 196.836 273.369 196.868C267.704 199.405 261.571 200.744 255.356 200.809L255.365 200.785Z" fill="#3A3A3A"/>
<path d="M248.961 180.834C248.132 180.834 246.268 180.662 245.603 179.225C245.398 178.782 245.02 177.091 248.748 174.012C248.822 173.954 248.895 173.905 248.986 173.872C249.076 173.839 249.166 173.831 249.257 173.839C249.347 173.839 249.437 173.872 249.519 173.913C249.602 173.954 249.675 174.012 249.733 174.086C249.79 174.16 249.84 174.242 249.864 174.324C249.889 174.414 249.897 174.505 249.889 174.595C249.881 174.685 249.848 174.775 249.807 174.858C249.766 174.94 249.7 175.005 249.626 175.063C247.984 176.417 246.638 178.158 246.859 178.634C247.204 179.422 248.739 179.472 249.24 179.422C249.421 179.406 249.61 179.463 249.749 179.578C249.889 179.693 249.979 179.866 249.996 180.046C250.012 180.227 249.955 180.416 249.84 180.555C249.725 180.695 249.552 180.785 249.372 180.802C249.232 180.81 249.101 180.818 248.961 180.81V180.834ZM260.718 174.496C260.619 174.496 260.513 174.48 260.422 174.439C260.332 174.398 260.25 174.332 260.184 174.258C260.119 174.184 260.069 174.094 260.045 173.995C260.02 173.897 260.012 173.798 260.028 173.692L260.439 171.376C260.455 171.286 260.488 171.204 260.537 171.122C260.587 171.048 260.652 170.982 260.726 170.925C260.8 170.876 260.882 170.835 260.972 170.818C261.063 170.802 261.153 170.794 261.243 170.818C261.334 170.835 261.416 170.867 261.498 170.917C261.572 170.966 261.637 171.032 261.695 171.106C261.744 171.179 261.785 171.262 261.802 171.352C261.818 171.442 261.826 171.532 261.802 171.623L261.416 173.938C261.383 174.102 261.301 174.25 261.178 174.349C261.055 174.455 260.89 174.505 260.726 174.505L260.718 174.496ZM243.551 172.091C243.444 172.091 243.345 172.074 243.255 172.025C243.165 171.984 243.083 171.918 243.017 171.844C242.951 171.771 242.902 171.672 242.877 171.574C242.853 171.475 242.845 171.368 242.861 171.27L243.272 168.955C243.288 168.864 243.321 168.782 243.37 168.7C243.419 168.626 243.477 168.56 243.559 168.503C243.633 168.454 243.715 168.413 243.805 168.396C243.896 168.38 243.986 168.372 244.076 168.396C244.166 168.413 244.249 168.445 244.331 168.495C244.405 168.544 244.47 168.61 244.528 168.684C244.577 168.757 244.618 168.84 244.634 168.93C244.651 169.02 244.659 169.111 244.634 169.201L244.224 171.516C244.199 171.672 244.117 171.82 243.994 171.927C243.871 172.033 243.715 172.091 243.559 172.091H243.551ZM264.289 164.849C264.158 164.849 264.027 164.808 263.912 164.735C263.797 164.661 263.706 164.554 263.657 164.431C263.099 163.158 261.769 163.396 261.621 163.421C261.44 163.454 261.26 163.421 261.112 163.322C260.964 163.224 260.858 163.068 260.816 162.887C260.775 162.707 260.816 162.526 260.907 162.37C261.005 162.214 261.153 162.107 261.334 162.066C262.048 161.902 262.803 161.992 263.452 162.329C264.109 162.657 264.626 163.207 264.93 163.881C264.979 163.987 264.995 164.102 264.987 164.217C264.979 164.332 264.938 164.439 264.88 164.538C264.815 164.636 264.733 164.71 264.634 164.767C264.536 164.825 264.421 164.849 264.306 164.849H264.289ZM246.884 162.296C246.703 162.296 246.539 162.222 246.408 162.099C246.104 161.812 245.718 161.648 245.299 161.615C244.889 161.59 244.478 161.705 244.134 161.943C244.06 161.992 243.978 162.033 243.887 162.05C243.797 162.066 243.707 162.066 243.616 162.05C243.526 162.033 243.444 162.001 243.37 161.951C243.296 161.902 243.231 161.836 243.181 161.763C243.075 161.615 243.042 161.426 243.075 161.254C243.107 161.073 243.206 160.917 243.354 160.81C243.953 160.391 244.684 160.186 245.414 160.235C246.145 160.285 246.835 160.597 247.368 161.106C247.467 161.204 247.533 161.327 247.565 161.459C247.59 161.598 247.582 161.738 247.533 161.861C247.483 161.992 247.393 162.099 247.278 162.173C247.163 162.247 247.032 162.288 246.892 162.288L246.884 162.296ZM246.802 191.138C244.996 190.325 244.79 188.453 244.93 187.583C244.955 187.402 245.053 187.246 245.201 187.14C245.341 187.033 245.521 186.984 245.702 187.008L254.421 188.109C254.536 188.125 254.642 188.166 254.741 188.232C254.831 188.297 254.913 188.388 254.963 188.486C255.012 188.593 255.037 188.7 255.037 188.815C255.037 188.93 254.996 189.036 254.938 189.143C253.115 192.279 250.16 192.649 246.81 191.146L246.802 191.138ZM246.309 188.478C246.35 188.782 246.465 189.077 246.654 189.324C246.843 189.57 247.089 189.759 247.368 189.882C249.93 191.031 251.777 190.867 253.107 189.332L246.309 188.478Z" fill="#3A3A3A"/>
<path d="M283.222 180.974C283.165 182.008 286.465 174.874 288.099 173.806C291.096 174.578 287.951 180.941 286.498 189.734C286.629 192.657 286.588 192.895 286.679 195.579C315.455 195.432 315.291 155.096 311.358 145.966C303.682 128.134 290.915 121.812 273.189 122.009C247.853 122.288 230.152 142.649 237.804 158.766C239.848 154.193 239.069 150.786 245.472 149.209C251.868 147.633 279.232 146.483 279.487 158.946C279.667 167.633 284.289 162.124 283.214 180.974H283.222Z" fill="#3A3A3A"/>
<path d="M284.617 188.067C285.799 189.57 287.335 190.867 289.322 191.409C294.256 192.755 299.757 188.609 301.505 182.181C302.852 177.247 299.28 171.598 294.141 171.721C291.76 171.844 289.445 172.559 287.417 173.798L284.617 188.067Z" fill="white"/>
<path d="M284.067 188.486C283.968 188.338 283.919 188.166 283.944 187.985C283.968 187.813 284.059 187.649 284.198 187.542C284.338 187.435 284.51 187.378 284.691 187.394C284.872 187.411 285.028 187.493 285.151 187.632C290.553 194.479 298.705 189.833 300.832 181.992C302.047 177.542 298.845 172.288 294.149 172.403C291.883 172.526 289.691 173.215 287.761 174.398C287.605 174.488 287.417 174.521 287.236 174.472C287.055 174.422 286.908 174.316 286.809 174.151C286.719 173.995 286.686 173.807 286.735 173.626C286.776 173.445 286.891 173.298 287.055 173.199C289.19 171.894 291.62 171.138 294.116 171.007C299.756 170.867 303.623 177.009 302.17 182.345C299.707 191.376 290.167 196.195 284.067 188.47V188.486Z" fill="#3A3A3A"/>
<path d="M289.552 186.516C289.396 186.516 289.248 186.458 289.125 186.368C289.002 186.27 288.92 186.138 288.879 185.982C288.846 185.826 288.863 185.67 288.928 185.531C288.994 185.391 289.109 185.276 289.248 185.21C290.595 184.537 291.293 183.618 291.022 182.862C290.792 182.214 289.807 181.697 288.436 182.017C288.329 182.041 288.214 182.041 288.099 182.017C287.992 181.992 287.886 181.935 287.803 181.853C287.721 181.779 287.656 181.68 287.623 181.573C287.582 181.467 287.574 181.352 287.59 181.237C288.214 177.394 290.669 176.582 292.089 176.434C294.667 176.171 297.557 177.706 298.115 179.151C298.181 179.324 298.173 179.513 298.099 179.685C298.025 179.857 297.885 179.981 297.713 180.046C297.541 180.112 297.352 180.104 297.179 180.03C297.007 179.956 296.884 179.816 296.818 179.644C296.531 178.905 294.355 177.6 292.229 177.813C290.685 177.969 289.659 178.889 289.166 180.539C292.598 180.481 294.142 184.324 289.856 186.45C289.766 186.499 289.659 186.524 289.552 186.524V186.516Z" fill="#3A3A3A"/>
<path d="M286.547 196.146C285.053 195.694 283.666 194.956 282.459 193.962C281.252 192.977 280.25 191.754 279.519 190.383C278.781 189.011 278.329 187.501 278.173 185.949C278.017 184.397 278.173 182.829 278.625 181.335L280.398 175.481C281.334 172.501 283.419 170.005 286.178 168.544C288.945 167.082 292.171 166.77 295.168 167.682C298.164 168.585 300.677 170.637 302.171 173.388C303.665 176.138 304.01 179.365 303.14 182.361L301.366 188.215C300.915 189.709 300.176 191.097 299.183 192.304C298.197 193.511 296.974 194.512 295.603 195.243C294.232 195.982 292.721 196.433 291.17 196.589C289.618 196.745 288.05 196.589 286.555 196.138L286.547 196.146Z" fill="#6868F5"/>
<path d="M247.59 200.924C249.126 200.924 250.365 199.685 250.365 198.149C250.365 196.614 249.126 195.374 247.59 195.374C246.055 195.374 244.815 196.614 244.815 198.149C244.815 199.685 246.055 200.924 247.59 200.924Z" fill="#E4794A"/>
<path d="M267.36 204.865L247.385 198.814C247.295 198.79 247.205 198.757 247.131 198.699C247.057 198.642 246.991 198.576 246.942 198.494C246.893 198.412 246.868 198.322 246.852 198.223C246.844 198.133 246.852 198.034 246.876 197.944C246.901 197.854 246.95 197.772 247.008 197.698C247.065 197.624 247.147 197.566 247.229 197.525C247.311 197.484 247.41 197.46 247.5 197.452C247.599 197.452 247.689 197.46 247.779 197.493L267.754 203.535C269.462 204.052 271.252 204.225 273.025 204.052C274.799 203.88 276.523 203.355 278.091 202.509C279.659 201.671 281.055 200.522 282.18 199.143C283.312 197.763 284.158 196.179 284.675 194.471C284.7 194.381 284.741 194.299 284.799 194.233C284.856 194.159 284.93 194.102 285.004 194.061C285.086 194.02 285.176 193.987 285.258 193.979C285.349 193.97 285.439 193.979 285.529 194.003C285.619 194.028 285.693 194.069 285.767 194.126C285.841 194.184 285.899 194.258 285.94 194.332C285.981 194.414 286.014 194.504 286.022 194.586C286.03 194.677 286.022 194.767 285.997 194.857C285.431 196.737 284.495 198.486 283.247 200.005C281.999 201.524 280.472 202.78 278.739 203.708C277.007 204.635 275.111 205.21 273.157 205.407C271.203 205.596 269.232 205.407 267.344 204.832L267.36 204.865Z" fill="#E4794A"/>
<path d="M219.692 295.824C219.602 295.824 219.503 295.808 219.421 295.767C219.339 295.734 219.257 295.676 219.191 295.611C219.126 295.545 219.076 295.463 219.044 295.381C219.011 295.29 218.994 295.2 218.994 295.11C219.626 274.593 211.351 270.348 229.462 241.014C229.561 240.858 229.717 240.743 229.889 240.702C230.07 240.661 230.258 240.685 230.414 240.784C230.57 240.882 230.685 241.038 230.726 241.211C230.767 241.391 230.735 241.58 230.644 241.736C212.829 270.586 221.022 274.511 220.382 295.143C220.382 295.323 220.3 295.496 220.168 295.619C220.037 295.742 219.865 295.816 219.684 295.816L219.692 295.824Z" fill="#BB6540"/>
<path d="M137.363 169.948C142.617 169.808 144.776 171.713 144.604 173.224C144.218 176.705 137.428 178.117 137.428 178.117C137.428 178.117 143.742 178.388 143.545 181.672C143.364 184.767 136.854 185.498 136.854 185.498C136.854 185.498 141.64 187.074 140.647 189.307C139.226 192.501 134.522 192.435 134.522 192.435C138.709 194.126 139.054 199.282 132.396 198.363" stroke="#845D48" stroke-width="0.98" stroke-linecap="round" stroke-linejoin="round"/>
<path d="M137.814 177.714C136.312 177.895 134.793 177.805 133.323 177.427C133.159 177.386 132.986 177.476 132.945 177.641C132.904 177.805 132.995 177.977 133.159 178.018C134.678 178.404 136.254 178.519 137.814 178.33C137.978 178.314 138.126 178.207 138.126 178.018C138.126 177.87 137.986 177.69 137.814 177.706V177.714Z" fill="#845D48"/>
<path d="M137.058 185.202C136.631 185.177 136.196 185.062 135.777 184.972C135.359 184.882 134.932 184.783 134.513 184.668C133.667 184.447 132.83 184.184 132.009 183.888C131.853 183.831 131.672 183.954 131.631 184.102C131.582 184.274 131.689 184.422 131.845 184.48C132.682 184.783 133.536 185.046 134.398 185.276C134.825 185.391 135.252 185.489 135.687 185.58C136.122 185.67 136.598 185.785 137.058 185.818C137.222 185.826 137.37 185.67 137.37 185.506C137.37 185.333 137.231 185.21 137.058 185.194V185.202Z" fill="#845D48"/>
<path d="M134.645 192.156C132.929 191.91 131.246 191.483 129.62 190.875C129.464 190.818 129.284 190.941 129.243 191.089C129.193 191.261 129.3 191.409 129.456 191.466C131.082 192.066 132.765 192.501 134.481 192.747C134.645 192.772 134.809 192.706 134.858 192.534C134.899 192.386 134.809 192.181 134.645 192.156Z" fill="#845D48"/>
<path d="M294.018 285.299C293.862 274.347 295.685 263.444 299.396 253.132C299.667 252.385 298.476 252.065 298.205 252.804C294.461 263.206 292.631 274.24 292.787 285.291C292.795 286.079 294.026 286.087 294.018 285.291V285.299Z" fill="#BB6540"/>
</svg>
