<?xml version="1.0" encoding="UTF-8"?>
<svg id="Calque_1" xmlns="http://www.w3.org/2000/svg" version="1.1" viewBox="0 0 250 250">
  <!-- Generator: Adobe Illustrator 29.4.0, SVG Export Plug-In . SVG Version: 2.1.0 Build 152)  -->
  <defs>
    <style>
      .st0 {
        fill: #bb6540;
      }

      .st1 {
        fill: #b27926;
      }

      .st2 {
        fill: #3a3a3a;
      }

      .st3 {
        fill: #e0c5a7;
      }

      .st4 {
        fill: #e4794a;
      }

      .st5 {
        fill: #fff;
      }

      .st6 {
        fill: #f0f0fc;
      }

      .st7 {
        fill: #6a6af4;
      }

      .st8 {
        fill: #cbcbf4;
      }
    </style>
  </defs>
  <g>
    <path class="st6" d="M236.4,177.4c-10.8,25-49.6,40.3-94.7,48.9C96.7,235,13.6,183.3,1.7,140.1-10.2,96.8,42.5,52.2,74.1,31.5c31.6-20.7,93.6-11.5,125.1,14.6,31.5,26.1,52.4,95.9,37.1,131.3Z"/>
    <path class="st2" d="M147.2,173.8c-31.5,0-57.1-25.5-57.1-57.1,0-9.3,2.3-18.5,6.6-26.7,0-.1.1-.2.3-.2,0,0,.1,0,.2,0,0,0,.1,0,.2,0,0,0,0,0,.1.1,0,0,0,0,0,.1,0,0,0,.1,0,.2,0,0,0,.1,0,.2-4.3,8.1-6.5,17.1-6.5,26.3,0,31.1,25.1,56.2,56.2,56.2s56.2-25.1,56.2-56.2-25.1-56.2-56.2-56.2c-8.9,0-17.7,2.1-25.7,6.2-7.9,4.1-14.8,10-20,17.2,0,0,0,0-.1.1,0,0-.1,0-.2,0,0,0-.1,0-.2,0,0,0-.1,0-.2,0,0,0,0,0-.1-.1,0,0,0-.1,0-.2,0,0,0-.1,0-.2,0,0,0-.1,0-.2,5.3-7.4,12.2-13.4,20.3-17.5,8.1-4.1,17-6.3,26.1-6.3,31.5,0,57.1,25.5,57.1,57.1s-25.5,57.1-57.1,57.1Z"/>
    <path class="st4" d="M185.2,157.9c-20.6,20.1-54.4,20.7-75.9,0,1.5-4.2,5.6-15.1,8.8-18.2,4.5-4.3,16.5-6.9,22.6-7.5,3.1-.3,5.2-.4,5.2-.4h1.9c1.5,0,4.4.3,5.6.4,5,.6,20.1,3.7,23.6,7.3,0,0,.3.3.4.5,3.4,4.3,7.9,17.8,7.9,17.8Z"/>
    <path class="st3" d="M153.3,132c0,8-13.1,8.2-13.1,0l.8-13.2h11.5l.8,13.2Z"/>
    <path class="st3" d="M163.3,105.3c2.6-.8,4.5,2,3.1,4.9-1.1,2.4-4.1,2.6-5.3,1.8l2.1-6.7ZM132.3,112.2c-1.1.7-3.9.5-5.1-2-1.4-3,.9-5.9,3.4-5.1l1.7,7Z"/>
    <path class="st3" d="M164.3,95.8c0,15.2-6.2,27.5-17.5,27.5s-17.5-12.3-17.5-27.5c0,0,3.5-10.9,16.9-10.9s18.1,10.9,18.1,10.9Z"/>
    <path class="st2" d="M146.8,110.8c0-.1,0-.2,0-.3,0-.1.1-.2.2-.2,0,0,.8-.3,1-1,.2-.4-.5-1.4-.9-2,0,0,0,0-.1-.1,0,0,0-.1,0-.2,0,0,0-.1,0-.2,0,0,0-.1.1-.1,0,0,0,0,.2,0,0,0,.1,0,.2,0,0,0,.1,0,.2,0,0,0,0,0,.1.1.3.3,1.5,1.8,1.1,2.8-.4,1.1-1.5,1.5-1.5,1.5-.1,0-.2,0-.3,0-.1,0-.2-.1-.2-.2ZM140,106.4c-.1,0-.2,0-.3-.1s-.1-.2-.1-.3v-1.5c0,0,0-.1,0-.2,0,0,0-.1,0-.1,0,0,0,0,.1-.1,0,0,.1,0,.2,0,0,0,.1,0,.2,0,0,0,.1,0,.1,0,0,0,0,0,.1.1,0,0,0,.1,0,.2v1.5c0,0,0,.1,0,.2,0,0,0,.1,0,.1,0,0,0,0-.1.1,0,0-.1,0-.2,0ZM138.2,102.1c0,0-.2,0-.3,0,0,0-.1-.1-.2-.2,0,0,0-.2,0-.3,0,0,.1-.2.2-.2.7-.4,1.5-.5,2.3-.3,0,0,.1,0,.2,0,0,0,0,0,.1.1,0,0,0,.1,0,.2,0,0,0,.1,0,.2,0,0,0,.1,0,.2,0,0,0,0-.1.1,0,0-.1,0-.2,0,0,0-.1,0-.2,0-.6-.1-1.2,0-1.8.3,0,0-.1,0-.2,0ZM153.7,106.4c0,0-.1,0-.2,0s-.1,0-.1,0c0,0,0,0,0-.1,0,0,0-.1,0-.2v-1.5c0-.1.1-.2.2-.3,0,0,.2-.1.3-.1.1,0,.2,0,.3.1,0,0,.1.2.1.3v1.5c0,.1-.1.2-.2.3,0,0-.2.1-.3.1ZM155.4,102.1c0,0-.1,0-.2,0-.5-.3-1.2-.4-1.8-.3-.1,0-.2,0-.3,0,0,0-.2-.2-.2-.3,0-.1,0-.2,0-.3,0,0,.2-.2.3-.2.8-.2,1.6,0,2.3.3,0,0,.2.1.2.2,0,0,0,.2,0,.3,0,0,0,.2-.2.2s-.2,0-.3,0ZM145,116.5c0,0-.1,0-.2,0,0,0,0,0-.1-.1,0,0,0-.1,0-.2s0-.1,0-.2c0,0,0-.1.1-.1,0,0,0,0,.2,0,0,0,.1,0,.2,0,0,0,.1,0,.2,0,1.2.6,3.4.4,4-.1,0,0,.2-.1.3,0s.2,0,.3.2c0,0,.1.2,0,.3,0,.1,0,.2-.2.3-.9.7-3.4.9-4.9.2Z"/>
    <path class="st2" d="M141.2,90.8l-.4-.2-.2.4h0s0,0,0,0h0s0,0,0,0c0,0,0,0,0,.1,0,.1-.2.3-.3.5-.3.4-.7,1-1.2,1.6-1,1.2-2.4,2.5-3.9,3.1-1.2.4-2.1.9-2.8,1.6-.7.7-1.2,1.5-1.4,2.6-.3,1.1-.4,2.4-.4,4,0,1.1,0,2.3.1,3.8-.5-.9-1.1-2-1.7-3.3-1.5-3-3.1-6.8-4.1-10.2h0s0,0,0-.2c0-.1,0-.3,0-.5,0-.5,0-1.1,0-1.9,0-1.6.2-3.7.8-5.7.7-2.1,1.8-4,3.7-5.4,1.9-1.4,4.5-2.3,8.4-2h.2s.2-.1.2-.1c3.9-3.8,7.5-5.2,10.9-5.4,3.4-.1,6.7,1,9.8,2.7,1.6.8,3.1,1.7,4.5,2.6.2.1.4.2.6.4,1.3.8,2.5,1.6,3.7,2.2,2.5,1.4,5,2.4,7.4,2.1,0,1.8-.5,4.6-1.6,7.1-1.2,2.8-3.1,5.1-6.2,5.7h-.2s-.1.2-.1.2c-1.2,2.1-2,4.3-2.5,6.3-.1-.8-.3-1.6-.5-2.3-.2-1-.5-1.8-.7-2.4-.1-.3-.2-.5-.3-.7,0,0,0-.1,0-.2h0s0,0,0,0h0s0,0,0,0l-.4.2.4-.2v-.3h-.4c-7,0-14-2.3-21.1-6Z"/>
    <path class="st7" d="M88.6,147h-2.6c-.1,0-.2,0-.3-.1,0,0-.1-.2-.1-.3s0-.2.1-.3c0,0,.2-.1.3-.1h2.6c.1,0,.2,0,.3.1,0,0,.1.2.1.3s0,.2-.1.3c0,0-.2.1-.3.1ZM83.4,147h-2.6c-.1,0-.2,0-.3-.1,0,0-.1-.2-.1-.3s0-.2.1-.3.2-.1.3-.1h2.6c.1,0,.2,0,.3.1,0,0,.1.2.1.3s0,.2-.1.3c0,0-.2.1-.3.1ZM78.1,147h-2.6c-.1,0-.2,0-.3-.1,0,0-.1-.2-.1-.3s0-.2.1-.3c0,0,.2-.1.3-.1h2.6c.1,0,.2,0,.3.1,0,0,.1.2.1.3s0,.2-.1.3c0,0-.2.1-.3.1ZM72.9,147h-.7c-.1,0-.2,0-.3-.1,0,0-.1-.2-.1-.3v-1.9c0-.1,0-.2.1-.3,0,0,.2-.1.3-.1s.2,0,.3.1c0,0,.1.2.1.3v1.4h.3c.1,0,.2,0,.3.1s.1.2.1.3,0,.2-.1.3c0,0-.2.1-.3.1ZM72.2,142.5c-.1,0-.2,0-.3-.1,0,0-.1-.2-.1-.3v-2.6c0-.1,0-.2.1-.3,0,0,.2-.1.3-.1s.2,0,.3.1c0,0,.1.2.1.3v2.6c0,.1,0,.2-.1.3,0,0-.2.1-.3.1ZM72.2,137.3c-.1,0-.2,0-.3-.1,0,0-.1-.2-.1-.3v-2.6c0-.1,0-.2.1-.3,0,0,.2-.1.3-.1s.2,0,.3.1c0,0,.1.2.1.3v2.6c0,.1,0,.2-.1.3,0,0-.2.1-.3.1ZM72.2,132.1c-.1,0-.2,0-.3-.1,0,0-.1-.2-.1-.3v-2.6c0-.1,0-.2.1-.3,0,0,.2-.1.3-.1s.2,0,.3.1c0,0,.1.2.1.3v2.6c0,.1,0,.2-.1.3,0,0-.2.1-.3.1ZM72.2,126.9c-.1,0-.2,0-.3-.1,0,0-.1-.2-.1-.3v-2.6c0-.1,0-.2.1-.3,0,0,.2-.1.3-.1s.2,0,.3.1c0,0,.1.2.1.3v2.6c0,.1,0,.2-.1.3,0,0-.2.1-.3.1ZM72.2,121.7c-.1,0-.2,0-.3-.1,0,0-.1-.2-.1-.3v-2.6c0-.1,0-.2.1-.3,0,0,.2-.1.3-.1s.2,0,.3.1c0,0,.1.2.1.3v2.6c0,.1,0,.2-.1.3,0,0-.2.1-.3.1ZM72.2,116.4c-.1,0-.2,0-.3-.1,0,0-.1-.2-.1-.3v-2.6c0-.1,0-.2.1-.3,0,0,.2-.1.3-.1s.2,0,.3.1c0,0,.1.2.1.3v2.6c0,.1,0,.2-.1.3,0,0-.2.1-.3.1ZM72.2,111.2c-.1,0-.2,0-.3-.1,0,0-.1-.2-.1-.3v-2.6c0-.1,0-.2.1-.3,0,0,.2-.1.3-.1s.2,0,.3.1c0,0,.1.2.1.3v2.6c0,.1,0,.2-.1.3,0,0-.2.1-.3.1ZM72.2,106c-.1,0-.2,0-.3-.1,0,0-.1-.2-.1-.3v-2.6c0-.1,0-.2.1-.3,0,0,.2-.1.3-.1s.2,0,.3.1c0,0,.1.2.1.3v2.6c0,.1,0,.2-.1.3,0,0-.2.1-.3.1ZM72.2,100.8c-.1,0-.2,0-.3-.1,0,0-.1-.2-.1-.3v-2.6c0-.1,0-.2.1-.3,0,0,.2-.1.3-.1s.2,0,.3.1c0,0,.1.2.1.3v2.6c0,.1,0,.2-.1.3,0,0-.2.1-.3.1ZM72.2,95.5c-.1,0-.2,0-.3-.1,0,0-.1-.2-.1-.3v-2.6c0-.1,0-.2.1-.3,0,0,.2-.1.3-.1s.2,0,.3.1c0,0,.1.2.1.3v2.6c0,.1,0,.2-.1.3,0,0-.2.1-.3.1ZM72.2,90.3c-.1,0-.2,0-.3-.1,0,0-.1-.2-.1-.3v-2.6c0-.1,0-.2.1-.3,0,0,.2-.1.3-.1s.2,0,.3.1.1.2.1.3v2.6c0,.1,0,.2-.1.3s-.2.1-.3.1ZM72.2,85.1c-.1,0-.2,0-.3-.1,0,0-.1-.2-.1-.3v-2.6c0-.1,0-.2.1-.3s.2-.1.3-.1.2,0,.3.1c0,0,.1.2.1.3v2.6c0,.1,0,.2-.1.3,0,0-.2.1-.3.1ZM72.2,79.9c-.1,0-.2,0-.3-.1,0,0-.1-.2-.1-.3v-2.6c0-.1,0-.2.1-.3,0,0,.2-.1.3-.1s.2,0,.3.1.1.2.1.3v2.6c0,.1,0,.2-.1.3,0,0-.2.1-.3.1ZM72.2,74.7c-.1,0-.2,0-.3-.1,0,0-.1-.2-.1-.3v-2.6c0-.1,0-.2.1-.3s.2-.1.3-.1.2,0,.3.1c0,0,.1.2.1.3v2.6c0,.1,0,.2-.1.3,0,0-.2.1-.3.1ZM72.2,69.4c-.1,0-.2,0-.3-.1,0,0-.1-.2-.1-.3v-2.6c0-.1,0-.2.1-.3,0,0,.2-.1.3-.1s.2,0,.3.1.1.2.1.3v2.6c0,.1,0,.2-.1.3s-.2.1-.3.1ZM166.5,203.8h-.7c-.1,0-.2,0-.3-.1,0,0-.1-.2-.1-.3s0-.2.1-.3.2-.1.3-.1h.7c.1,0,.2,0,.3.1,0,0,.1.2.1.3s0,.2-.1.3-.2.1-.3.1ZM163.2,203.8h-2.6c-.1,0-.2,0-.3-.1,0,0-.1-.2-.1-.3s0-.2.1-.3c0,0,.2-.1.3-.1h2.6c.1,0,.2,0,.3.1s.1.2.1.3,0,.2-.1.3c0,0-.2.1-.3.1ZM158,203.8h-2.6c-.1,0-.2,0-.3-.1s-.1-.2-.1-.3,0-.2.1-.3c0,0,.2-.1.3-.1h2.6c.1,0,.2,0,.3.1,0,0,.1.2.1.3s0,.2-.1.3c0,0-.2.1-.3.1ZM152.8,203.8h-2.6c-.1,0-.2,0-.3-.1,0,0-.1-.2-.1-.3s0-.2.1-.3c0,0,.2-.1.3-.1h2.6c.1,0,.2,0,.3.1,0,0,.1.2.1.3s0,.2-.1.3-.2.1-.3.1ZM147.5,203.8h-2.3c-.1,0-.2,0-.3-.1,0,0-.1-.2-.1-.3v-.3c0-.1,0-.2.1-.3,0,0,.2-.1.3-.1.1,0,.2,0,.3,0,0,0,.2.1.2.2h1.9c.1,0,.2,0,.3.1,0,0,.1.2.1.3s0,.2-.1.3c0,0-.2.1-.3.1ZM145.2,200.9c-.1,0-.2,0-.3-.1,0,0-.1-.2-.1-.3v-2.6c0-.1,0-.2.1-.3,0,0,.2-.1.3-.1s.2,0,.3.1c0,0,.1.2.1.3v2.6c0,.1,0,.2-.1.3,0,0-.2.1-.3.1ZM145.2,195.7c-.1,0-.2,0-.3-.1,0,0-.1-.2-.1-.3v-2.6c0-.1,0-.2.1-.3,0,0,.2-.1.3-.1s.2,0,.3.1c0,0,.1.2.1.3v2.6c0,.1,0,.2-.1.3,0,0-.2.1-.3.1ZM145.2,190.5c-.1,0-.2,0-.3-.1,0,0-.1-.2-.1-.3v-2.6c0-.1,0-.2.1-.3,0,0,.2-.1.3-.1s.2,0,.3.1c0,0,.1.2.1.3v2.6c0,.1,0,.2-.1.3,0,0-.2.1-.3.1ZM145.2,185.3c-.1,0-.2,0-.3-.1,0,0-.1-.2-.1-.3v-2.6c0-.1,0-.2.1-.3,0,0,.2-.1.3-.1s.2,0,.3.1c0,0,.1.2.1.3v2.6c0,.1,0,.2-.1.3,0,0-.2.1-.3.1ZM145.2,180c-.1,0-.2,0-.3-.1,0,0-.1-.2-.1-.3v-2.6c0-.1,0-.2.1-.3,0,0,.2-.1.3-.1s.2,0,.3.1c0,0,.1.2.1.3v2.6c0,.1,0,.2-.1.3,0,0-.2.1-.3.1ZM145.2,174.8c-.1,0-.2,0-.3-.1,0,0-.1-.2-.1-.3v-2.6c0-.1,0-.2.1-.3,0,0,.2-.1.3-.1s.2,0,.3.1c0,0,.1.2.1.3v2.6c0,.1,0,.2-.1.3,0,0-.2.1-.3.1Z"/>
    <path class="st7" d="M47.4,17.5h70.7c.4,0,.8,0,1.1.2.4.1.7.4,1,.6.3.3.5.6.6,1,.1.4.2.7.2,1.1v39.1c0,.3,0,.7-.2,1-.1.3-.3.6-.6.9-.2.2-.5.4-.9.6-.3.1-.7.2-1,.2H47.4c-.8,0-1.5-.3-2.1-.9-.6-.6-.9-1.3-.9-2.1V20.5c0-.8.3-1.5.9-2.1.6-.6,1.3-.9,2.1-.9Z"/>
    <path class="st8" d="M44.4,26.4h76.6v32.8c0,.8-.3,1.5-.9,2.1-.6.6-1.3.9-2.1.9H47.4c-.8,0-1.5-.3-2.1-.9-.6-.6-.9-1.3-.9-2.1V26.4Z"/>
    <path class="st7" d="M62.3,54.8c6.2,0,11.3-5.1,11.3-11.3s-5.1-11.3-11.3-11.3-11.3,5.1-11.3,11.3,5.1,11.3,11.3,11.3Z"/>
    <path class="st5" d="M73.6,43.5c0,1.5-.3,3-.9,4.3-.6,1.4-1.4,2.6-2.5,3.7l-8-8v-11.3c3,0,5.9,1.2,8,3.3,2.1,2.1,3.3,5,3.3,8Z"/>
    <path class="st5" d="M79.9,32.6h34.4v4.8h-34.4v-4.8Z"/>
    <path class="st7" d="M109.1,42.2h-28.2c-.1,0-.2,0-.3-.1,0,0-.1-.2-.1-.3s0-.2.1-.3.2-.1.3-.1h28.2c.1,0,.2,0,.3.1,0,0,.1.2.1.3s0,.2-.1.3c0,0-.2.1-.3.1ZM109.1,47.4h-28.2c-.1,0-.2,0-.3-.1s-.1-.2-.1-.3,0-.2.1-.3.2-.1.3-.1h28.2c.1,0,.2,0,.3.1,0,0,.1.2.1.3s0,.2-.1.3c0,0-.2.1-.3.1ZM109.1,52.7h-28.2c-.1,0-.2,0-.3-.1s-.1-.2-.1-.3,0-.2.1-.3c0,0,.2-.1.3-.1h28.2c.1,0,.2,0,.3.1,0,0,.1.2.1.3s0,.2-.1.3c0,0-.2.1-.3.1Z"/>
    <path class="st7" d="M232.5,46.1h-33.2c-1.1,0-2.1.4-2.9,1.2-.8.8-1.2,1.8-1.2,2.9v26.4l-7.3,8.7h44.6c.5,0,1.1-.1,1.6-.3.5-.2.9-.5,1.3-.9.4-.4.7-.8.9-1.3.2-.5.3-1,.3-1.6v-31c0-.5-.1-1.1-.3-1.6-.2-.5-.5-.9-.9-1.3-.4-.4-.8-.7-1.3-.9-.5-.2-1-.3-1.6-.3Z"/>
    <path class="st5" d="M205.6,65.3l3.1-3.1,9.1,9.1-3.1,3.1-9.1-9.1Z"/>
    <path class="st5" d="M225.6,57.3l3.1,3.1-14,14-3.1-3.1,14-14Z"/>
    <path class="st7" d="M123.8,207.3h-54c-.1,0-.2,0-.3-.1,0,0-.1-.2-.1-.3s0-.2.1-.3c0,0,.2-.1.3-.1h54c3.1,0,6.1-1.2,8.4-3.5,2.2-2.2,3.5-5.2,3.5-8.4s-1.2-6.1-3.5-8.4c-2.2-2.2-5.2-3.5-8.4-3.5H56.7c-3.1,0-6.1,1.2-8.4,3.5-2.2,2.2-3.5,5.2-3.5,8.4s1.2,6.1,3.5,8.4c2.2,2.2,5.2,3.5,8.4,3.5h5.9c.1,0,.2,0,.3.1,0,0,.1.2.1.3s0,.2-.1.3c0,0-.2.1-.3.1h-5.9c-3.4,0-6.6-1.3-9-3.7-2.4-2.4-3.7-5.6-3.7-9s1.3-6.6,3.7-9c2.4-2.4,5.6-3.7,9-3.7h67.1c3.4,0,6.6,1.3,9,3.7,2.4,2.4,3.7,5.6,3.7,9s-1.3,6.6-3.7,9c-2.4,2.4-5.6,3.7-9,3.7Z"/>
    <path class="st7" d="M58.6,188.9l1.8,3.7,4.1.6-3,2.9.7,4.1-3.7-1.9-3.7,1.9.7-4.1-3-2.9,4.1-.6,1.8-3.7ZM74.4,188.9l1.8,3.7,4.1.6-3,2.9.7,4.1-3.7-1.9-3.7,1.9.7-4.1-3-2.9,4.1-.6,1.8-3.7ZM90.2,188.9l1.8,3.7,4.1.6-3,2.9.7,4.1-3.7-1.9-3.7,1.9.7-4.1-3-2.9,4.1-.6,1.8-3.7ZM106,188.9l1.8,3.7,4.1.6-3,2.9.7,4.1-3.7-1.9-3.7,1.9.7-4.1-3-2.9,4.1-.6,1.8-3.7ZM121.8,188.9l1.8,3.7,4.1.6-3,2.9.7,4.1-3.7-1.9-3.7,1.9.7-4.1-3-2.9,4.1-.6,1.8-3.7ZM173.4,173.7h76.6v44.7h-76.6v-44.7Z"/>
    <path class="st5" d="M201.6,186.8l-2.1-3.7c-.6.3-1.2.5-1.8.5-.6,0-1.3-.2-1.8-.5-.6-.3-1-.8-1.4-1.3-.3-.6-.5-1.2-.5-1.8h-4.2c0,.6-.2,1.3-.5,1.8-.3.6-.8,1-1.4,1.3-.6.3-1.2.5-1.8.5-.6,0-1.3-.2-1.8-.5l-2.1,3.7c.6.3,1,.8,1.3,1.4.3.6.5,1.2.5,1.8s-.2,1.3-.5,1.8c-.3.6-.8,1-1.3,1.4l2.1,3.7c.6-.3,1.2-.5,1.8-.5.6,0,1.3.2,1.8.5.6.3,1,.8,1.4,1.3.3.6.5,1.2.5,1.8h4.2c0-.6.2-1.3.5-1.8.3-.6.8-1,1.4-1.3.6-.3,1.2-.5,1.8-.5.6,0,1.3.2,1.8.5l2.1-3.7c-.6-.3-1-.8-1.3-1.4-.3-.6-.5-1.2-.5-1.8s.2-1.3.5-1.8c.3-.6.8-1,1.3-1.4Z"/>
    <path class="st7" d="M191.8,193.8c2.1,0,3.8-1.7,3.8-3.8s-1.7-3.8-3.8-3.8-3.8,1.7-3.8,3.8,1.7,3.8,3.8,3.8Z"/>
    <path class="st5" d="M209.8,179.1h34.4v4.8h-34.4v-4.8Z"/>
    <path class="st6" d="M239,190.4h-28.2c-.1,0-.2,0-.3-.1,0,0-.1-.2-.1-.3s0-.2.1-.3c0,0,.2-.1.3-.1h28.2c.1,0,.2,0,.3.1,0,0,.1.2.1.3s0,.2-.1.3c0,0-.2.1-.3.1ZM239,195.7h-28.2c-.1,0-.2,0-.3-.1,0,0-.1-.2-.1-.3s0-.2.1-.3c0,0,.2-.1.3-.1h28.2c.1,0,.2,0,.3.1,0,0,.1.2.1.3s0,.2-.1.3c0,0-.2.1-.3.1ZM239,201h-28.2c-.1,0-.2,0-.3-.1,0,0-.1-.2-.1-.3s0-.2.1-.3c0,0,.2-.1.3-.1h28.2c.1,0,.2,0,.3.1s.1.2.1.3,0,.2-.1.3c0,0-.2.1-.3.1ZM206.1,213.2h-10.4c-.7,0-1.3-.3-1.8-.7-.5-.5-.7-1.1-.7-1.8s.3-1.3.7-1.8c.5-.5,1.1-.7,1.8-.7h10.4c.7,0,1.3.3,1.8.7.5.5.7,1.1.7,1.8s-.3,1.3-.7,1.8c-.5.5-1.1.7-1.8.7ZM227.8,213.2h-10.4c-.7,0-1.3-.3-1.8-.7-.5-.5-.7-1.1-.7-1.8s.3-1.3.7-1.8c.5-.5,1.1-.7,1.8-.7h10.4c.7,0,1.3.3,1.8.7.5.5.7,1.1.7,1.8s-.3,1.3-.7,1.8c-.5.5-1.1.7-1.8.7Z"/>
    <path class="st0" d="M126.9,153.7c.2,4.9,0,9.8-.5,14.7s1.1.8,1.2,0c.5-4.9.7-9.8.5-14.7s-1.3-.8-1.2,0h0Z"/>
    <path class="st0" d="M161.6,155.9c0,4.5.9,8.9,2.5,13.1s1.5.4,1.2-.3c-1.6-4.1-2.4-8.4-2.4-12.8s-1.2-.8-1.2,0h0Z"/>
  </g>
  <path class="st1" d="M145.5,123c2.9,0,6.1,0,8.5-1.8s-.3-.2-.4-.2c-.4,0-.8.1-1.1.4-1.7,1.3-4,1.1-6.1,1.1s-.8.1-1.1.3-.2.3,0,.3h0Z"/>
</svg>