<?xml version="1.0" encoding="UTF-8"?>
<svg id="Calque_1" xmlns="http://www.w3.org/2000/svg" version="1.1" viewBox="0 0 337 337">
  <!-- Generator: Adobe Illustrator 29.4.0, SVG Export Plug-In . SVG Version: 2.1.0 Build 152)  -->
  <defs>
    <style>
      .st0 {
        fill: #f6bd5f;
      }

      .st1 {
        fill: #3a3a3a;
      }

      .st2 {
        fill: #e4794a;
      }

      .st3 {
        fill: #fff;
      }

      .st4 {
        fill: #f0f0fc;
      }

      .st5 {
        fill: #6a6af4;
      }
    </style>
  </defs>
  <path class="st4" d="M329.9,223.4c-15,34.7-97.2,101-219.2,109.5-63.4,4.4-129.4-43.2-105.9-161.3C17,110.8,61.3,49.9,105.2,21.3c43.8-28.6,129.6-15.9,173.3,20.3,43.7,36.1,72.6,132.8,51.4,181.9Z"/>
  <g>
    <path class="st2" d="M275.4,117.4v32.5c-1.1,2.1-1.7,4.5-1.7,7v3.6h-2.6c-1.6,0-2.9,1.3-2.9,2.9v25.8c0,1.6,1.3,2.9,2.9,2.9h4.4v71.2c0,1.6-.6,3.1-1.7,4.2-1.1,1.1-2.6,1.7-4.2,1.7H110.5c-1.8,0-3.4-.7-4.7-1.9-1.2-1.2-1.9-2.9-1.9-4.7V117.4c0-1.8.7-3.4,1.9-4.7,1.2-1.2,2.9-1.9,4.7-1.9h158.2c1.8,0,3.4.7,4.7,1.9s1.9,2.9,1.9,4.7Z"/>
    <path class="st0" d="M268.1,163.4v25.8c0,1.6,1.3,2.9,2.9,2.9h4.4v70.5c0,1.8-.7,3.4-1.9,4.7-1.2,1.2-2.9,1.9-4.7,1.9H110.5c-1.8,0-3.4-.7-4.7-1.9-1.2-1.2-1.9-2.9-1.9-4.7v-132h171.5v19.2c-1.1,2.1-1.7,4.5-1.7,7v3.6h-2.6c-1.6,0-2.9,1.3-2.9,2.9Z"/>
    <path class="st3" d="M119,124.4c1.6,0,2.8-1.3,2.8-2.8s-1.3-2.8-2.8-2.8-2.8,1.3-2.8,2.8,1.3,2.8,2.8,2.8Z"/>
    <path class="st3" d="M129.5,124.4c1.6,0,2.8-1.3,2.8-2.8s-1.3-2.8-2.8-2.8-2.8,1.3-2.8,2.8,1.3,2.8,2.8,2.8Z"/>
    <path class="st3" d="M140.1,124.4c1.6,0,2.8-1.3,2.8-2.8s-1.3-2.8-2.8-2.8-2.8,1.3-2.8,2.8,1.3,2.8,2.8,2.8Z"/>
    <path class="st3" d="M261,123.1h-77.9c-.3,0-.6,0-.8-.1-.3-.1-.5-.3-.7-.5-.2-.2-.4-.4-.5-.7-.1-.3-.2-.5-.2-.8s0-.6.2-.8c.1-.3.3-.5.5-.7.2-.2.4-.4.7-.5.3-.1.6-.2.8-.1h77.9c.3,0,.6,0,.8.1.3.1.5.3.7.5.2.2.4.4.5.7.1.3.2.5.2.8s0,.6-.2.8c-.1.3-.3.5-.5.7-.2.2-.4.4-.7.5-.3.1-.6.2-.8.1ZM189.7,200.3c-5.1,0-10.2-1.3-14.6-3.9-.1,0-.2-.2-.2-.3,0-.1,0-.3,0-.4,0-.1.2-.2.3-.2.1,0,.3,0,.4,0,6.3,3.6,13.7,4.7,20.8,3,7.1-1.7,13.2-6,17.2-12,4-6.1,5.6-13.4,4.3-20.6-1.2-7.2-5.1-13.6-10.9-17.9-5.8-4.4-13-6.4-20.3-5.6-7.2.8-13.9,4.3-18.6,9.8-4.7,5.5-7.2,12.6-6.9,19.9.3,7.3,3.4,14.1,8.6,19.2,0,0,.1.2.1.3,0,.1,0,.3-.1.3,0,0-.2.1-.3.1-.1,0-.3,0-.3-.1-4.9-4.8-8-11.1-8.7-17.9-.8-6.8.9-13.6,4.6-19.3,3.7-5.7,9.3-10,15.9-12,6.5-2,13.5-1.8,19.9.8,6.3,2.6,11.6,7.3,14.8,13.3,3.3,6,4.3,13,3,19.7-1.3,6.7-4.9,12.7-10.2,17.1-5.3,4.3-11.9,6.7-18.7,6.7h0Z"/>
    <path class="st3" d="M210.7,182.9c-2.1,3.7-5.2,6.8-8.9,8.9-3.7,2.1-7.9,3.3-12.2,3.3s-8.5-1.1-12.2-3.3c-3.7-2.1-6.8-5.2-8.9-8.9,2.1-3.7,5.2-6.8,8.9-8.9,3.7-2.1,7.9-3.3,12.2-3.3s8.5,1.1,12.2,3.3c3.7,2.1,6.8,5.2,8.9,8.9Z"/>
    <path class="st3" d="M189.7,171.8c5.9,0,10.6-4.8,10.6-10.6s-4.8-10.6-10.6-10.6-10.6,4.8-10.6,10.6,4.8,10.6,10.6,10.6Z"/>
    <path class="st3" d="M233.3,228.3h-26.2c-.1,0-.3,0-.3-.1,0,0-.1-.2-.1-.3s0-.3.1-.3c0,0,.2-.1.3-.1h25.8v-14.7h-86.3v14.7h54.9c.1,0,.3,0,.3.1,0,0,.1.2.1.3s0,.3-.1.3-.2.1-.3.1h-55.4c-.1,0-.3,0-.3-.1,0,0-.1-.2-.1-.3v-15.6c0-.1,0-.3.1-.3,0,0,.2-.1.3-.1h87.3c.1,0,.3,0,.3.1,0,0,.1.2.1.3v15.6c0,.1,0,.3-.1.3,0,0-.2.1-.3.1ZM233.3,255.4h-87.3c-.1,0-.3,0-.3-.1,0,0-.1-.2-.1-.3v-15.6c0-.1,0-.3.1-.3,0,0,.2-.1.3-.1h87.3c.1,0,.3,0,.3.1,0,0,.1.2.1.3v15.6c0,.1,0,.3-.1.3s-.2.1-.3.1ZM146.5,254.4h86.3v-14.7h-86.3v14.7Z"/>
    <path class="st2" d="M225.2,222.8h-70c-.3,0-.7,0-1-.2s-.6-.3-.9-.6c-.2-.2-.4-.5-.6-.8-.1-.3-.2-.7-.2-1s0-.7.2-1c.1-.3.3-.6.6-.8.2-.2.5-.4.9-.6.3-.1.7-.2,1-.2h70c.3,0,.7,0,1,.2.3.1.6.3.9.6s.4.5.6.8c.1.3.2.7.2,1s0,.7-.2,1c-.1.3-.3.6-.6.8-.2.2-.5.4-.9.6-.3.1-.7.2-1,.2ZM157.3,251.8c-.1,0-.3,0-.3-.1,0,0-.1-.2-.1-.3v-8.6c0-.1,0-.3.1-.3,0,0,.2-.1.3-.1s.3,0,.3.1c0,0,.1.2.1.3v8.6c0,.1,0,.3-.1.3,0,0-.2.1-.3.1Z"/>
    <path class="st2" d="M153.6,249.6c-.1,0-.2,0-.3-.1,0,0-.1-.2-.2-.3,0-.1,0-.2,0-.3,0,0,.1-.2.2-.2l7.4-4.3c.1,0,.2,0,.4,0,.1,0,.2.1.3.2,0,.1,0,.2,0,.4,0,.1-.1.2-.2.3-8.1,4.6-7.5,4.3-7.7,4.3Z"/>
    <path class="st2" d="M161,249.6c-.2,0,.5.3-7.7-4.4-.1,0-.2-.2-.2-.3,0-.1,0-.3,0-.4,0-.1.2-.2.3-.2.1,0,.3,0,.4,0l7.4,4.3c0,0,.2.1.2.2,0,.1,0,.2,0,.3,0,.1,0,.2-.2.3,0,0-.2.1-.3,0ZM170.3,251.9c-.1,0-.3,0-.3-.1,0,0-.1-.2-.1-.3v-8.6c0-.1,0-.3.1-.3,0,0,.2-.1.3-.1s.3,0,.3.1c0,0,.1.2.1.3v8.6c0,.1,0,.3-.1.3,0,0-.2.1-.3.1Z"/>
    <path class="st2" d="M166.6,249.7c-.1,0-.2,0-.3-.1,0,0-.1-.2-.2-.3,0-.1,0-.2,0-.3,0,0,.1-.2.2-.2l7.4-4.3c.1,0,.2,0,.4,0,.1,0,.2.1.3.2,0,.1,0,.2,0,.4,0,.1-.1.2-.2.3-8.1,4.7-7.5,4.4-7.7,4.4Z"/>
    <path class="st2" d="M174.1,249.7c-.2,0,.5.3-7.7-4.4,0,0-.1,0-.2-.1,0,0,0-.1,0-.2,0,0,0-.1,0-.2,0,0,0-.1,0-.2,0,0,0-.1.1-.1,0,0,.1,0,.2,0,0,0,.1,0,.2,0,0,0,.1,0,.2,0l7.4,4.3c0,0,.2.1.2.2,0,.1,0,.2,0,.3,0,.1,0,.2-.2.3,0,0-.2.1-.3,0ZM183.4,251.9c-.1,0-.3,0-.3-.1,0,0-.1-.2-.1-.3v-8.6c0-.1,0-.3.1-.3,0,0,.2-.1.3-.1s.3,0,.3.1c0,0,.1.2.1.3v8.6c0,.1,0,.3-.1.3,0,0-.2.1-.3.1Z"/>
    <path class="st2" d="M179.7,249.8c-.1,0-.2,0-.3-.1s-.1-.2-.2-.3c0-.1,0-.2,0-.3,0,0,.1-.2.2-.2l7.4-4.3c0,0,.1,0,.2,0,0,0,.1,0,.2,0,0,0,.1,0,.2,0,0,0,0,0,.1.1,0,0,0,.1,0,.2,0,0,0,.1,0,.2,0,0,0,.1,0,.2,0,0,0,0-.2.1-8.1,4.7-7.5,4.3-7.7,4.3Z"/>
    <path class="st2" d="M187.1,249.8c-.2,0,.5.3-7.7-4.4-.1,0-.2-.2-.2-.3,0-.1,0-.3,0-.4,0-.1.2-.2.3-.2.1,0,.3,0,.4,0l7.4,4.3c0,0,.2.1.2.2,0,0,0,.2,0,.3,0,.1,0,.2-.2.3,0,0-.2.1-.3.1ZM196.5,252c-.1,0-.3,0-.3-.1,0,0-.1-.2-.1-.3v-8.6c0-.1,0-.3.1-.3,0,0,.2-.1.3-.1s.3,0,.3.1.1.2.1.3v8.6c0,.1,0,.3-.1.3,0,0-.2.1-.3.1Z"/>
    <path class="st2" d="M192.8,249.9c-.1,0-.2,0-.3-.1,0,0-.1-.2-.2-.3,0-.1,0-.2,0-.3,0-.1.1-.2.2-.2l7.4-4.3c0,0,.1,0,.2,0,0,0,.1,0,.2,0,0,0,.1,0,.2,0,0,0,0,0,.1.1,0,0,0,.1,0,.2,0,0,0,.1,0,.2,0,0,0,.1,0,.2s0,0-.1.1c-8.1,4.7-7.5,4.4-7.7,4.4Z"/>
    <path class="st2" d="M200.2,249.9c-.2,0,.5.3-7.7-4.4-.1,0-.2-.2-.2-.3,0-.1,0-.3,0-.4,0-.1.2-.2.3-.2.1,0,.3,0,.4,0l7.4,4.3c0,0,.2.1.2.2,0,.1,0,.2,0,.3,0,.1,0,.2-.2.3,0,0-.2.1-.3.1ZM212.5,251.3h-8.1c-.1,0-.3,0-.3-.1,0,0-.1-.2-.1-.3s0-.3.1-.3c0,0,.2-.1.3-.1h8.1c.1,0,.3,0,.3.1,0,0,.1.2.1.3s0,.3-.1.3c0,0-.2.1-.3.1ZM225.8,251.3h-8.1c-.1,0-.3,0-.3-.1,0,0-.1-.2-.1-.3s0-.3.1-.3c0,0,.2-.1.3-.1h8.1c.1,0,.3,0,.3.1,0,0,.1.2.1.3s0,.3-.1.3-.2.1-.3.1Z"/>
    <path class="st5" d="M306.4,160.5h-2.6v-3.6c0-4-1.6-7.8-4.4-10.6-2.8-2.8-6.6-4.4-10.6-4.4s-7.8,1.6-10.6,4.4c-1.1,1.1-2,2.3-2.7,3.6-1.1,2.1-1.7,4.5-1.7,7v3.6h-2.6c-1.6,0-2.9,1.3-2.9,2.9v25.8c0,1.6,1.3,2.9,2.9,2.9h35.4c1.6,0,2.9-1.3,2.9-2.9v-25.8c0-1.6-1.3-2.9-2.9-2.9ZM290.3,177.1v5h-3.2v-5c-1.1-.6-1.9-1.7-1.9-3.1,0-1.9,1.6-3.5,3.5-3.5s3.5,1.6,3.5,3.5-.8,2.5-1.9,3.1ZM298.7,160.5h-19.9v-3.6c0-2.6,1.1-5.1,3-6.9,1.9-1.8,4.4-2.9,7-2.9s5.1,1,7,2.9c1.9,1.8,2.9,4.3,3,6.9v3.6Z"/>
    <path class="st3" d="M292.2,174c0,1.3-.8,2.5-1.9,3.1v5h-3.2v-5c-1.1-.6-1.9-1.7-1.9-3.1,0-1.9,1.6-3.5,3.5-3.5s3.5,1.6,3.5,3.5Z"/>
    <path class="st5" d="M240.3,248.3h-1.5c-.1,0-.3,0-.3-.1,0,0-.1-.2-.1-.3s0-.3.1-.3c0,0,.2-.1.3-.1h1.5c.1,0,.3,0,.3.1,0,0,.1.2.1.3s0,.3-.1.3c0,0-.2.1-.3.1ZM283.2,248.3h-3.1c-.1,0-.3,0-.3-.1,0,0-.1-.2-.1-.3s0-.3.1-.3c0,0,.2-.1.3-.1h3.1c.1,0,.3,0,.3.1,0,0,.1.2.1.3s0,.3-.1.3c0,0-.2.1-.3.1ZM277,248.3h-3.1c-.1,0-.3,0-.3-.1,0,0-.1-.2-.1-.3s0-.3.1-.3c0,0,.2-.1.3-.1h3.1c.1,0,.3,0,.3.1,0,0,.1.2.1.3s0,.3-.1.3c0,0-.2.1-.3.1ZM270.9,248.3h-3.1c-.1,0-.3,0-.3-.1,0,0-.1-.2-.1-.3s0-.3.1-.3c0,0,.2-.1.3-.1h3.1c.1,0,.3,0,.3.1,0,0,.1.2.1.3s0,.3-.1.3c0,0-.2.1-.3.1ZM264.8,248.3h-3.1c-.1,0-.3,0-.3-.1,0,0-.1-.2-.1-.3s0-.3.1-.3c0,0,.2-.1.3-.1h3.1c.1,0,.3,0,.3.1,0,0,.1.2.1.3s0,.3-.1.3c0,0-.2.1-.3.1ZM258.7,248.3h-3.1c-.1,0-.3,0-.3-.1,0,0-.1-.2-.1-.3s0-.3.1-.3c0,0,.2-.1.3-.1h3.1c.1,0,.3,0,.3.1s.1.2.1.3,0,.3-.1.3-.2.1-.3.1ZM252.5,248.3h-3.1c-.1,0-.3,0-.3-.1,0,0-.1-.2-.1-.3s0-.3.1-.3c0,0,.2-.1.3-.1h3.1c.1,0,.3,0,.3.1s.1.2.1.3,0,.3-.1.3-.2.1-.3.1ZM246.4,248.3h-3.1c-.1,0-.3,0-.3-.1,0,0-.1-.2-.1-.3s0-.3.1-.3c0,0,.2-.1.3-.1h3.1c.1,0,.3,0,.3.1s.1.2.1.3,0,.3-.1.3-.2.1-.3.1ZM287.7,248.3h-1.5c-.1,0-.3,0-.3-.1s-.1-.2-.1-.3,0-.3.1-.3.2-.1.3-.1h1v-1c0-.1,0-.3.1-.3s.2-.1.3-.1.3,0,.3.1c0,0,.1.2.1.3v1.5c0,.1,0,.3-.1.3,0,0-.2.1-.3.1ZM287.7,244c-.1,0-.3,0-.3-.1,0,0-.1-.2-.1-.3v-2.9c0-.1,0-.3.1-.3,0,0,.2-.1.3-.1s.3,0,.3.1.1.2.1.3v2.9c0,.1,0,.3-.1.3,0,0-.2.1-.3.1ZM287.7,238.1c-.1,0-.3,0-.3-.1,0,0-.1-.2-.1-.3v-2.9c0-.1,0-.3.1-.3,0,0,.2-.1.3-.1s.3,0,.3.1.1.2.1.3v2.9c0,.1,0,.3-.1.3s-.2.1-.3.1ZM287.7,232.3c-.1,0-.3,0-.3-.1,0,0-.1-.2-.1-.3v-2.9c0-.1,0-.3.1-.3,0,0,.2-.1.3-.1s.3,0,.3.1c0,0,.1.2.1.3v2.9c0,.1,0,.3-.1.3s-.2.1-.3.1ZM287.7,226.5c-.1,0-.3,0-.3-.1,0,0-.1-.2-.1-.3v-2.9c0-.1,0-.3.1-.3s.2-.1.3-.1.3,0,.3.1c0,0,.1.2.1.3v2.9c0,.1,0,.3-.1.3,0,0-.2.1-.3.1ZM287.7,220.6c-.1,0-.3,0-.3-.1,0,0-.1-.2-.1-.3v-2.9c0-.1,0-.3.1-.3s.2-.1.3-.1.3,0,.3.1c0,0,.1.2.1.3v2.9c0,.1,0,.3-.1.3,0,0-.2.1-.3.1ZM287.7,214.8c-.1,0-.3,0-.3-.1,0,0-.1-.2-.1-.3v-2.9c0-.1,0-.3.1-.3,0,0,.2-.1.3-.1s.3,0,.3.1c0,0,.1.2.1.3v2.9c0,.1,0,.3-.1.3,0,0-.2.1-.3.1ZM287.7,209c-.1,0-.3,0-.3-.1,0,0-.1-.2-.1-.3v-2.9c0-.1,0-.3.1-.3,0,0,.2-.1.3-.1s.3,0,.3.1c0,0,.1.2.1.3v2.9c0,.1,0,.3-.1.3s-.2.1-.3.1ZM287.7,203.2c-.1,0-.3,0-.3-.1,0,0-.1-.2-.1-.3v-2.9c0-.1,0-.3.1-.3,0,0,.2-.1.3-.1s.3,0,.3.1c0,0,.1.2.1.3v2.9c0,.1,0,.3-.1.3,0,0-.2.1-.3.1ZM287.7,197.3c-.1,0-.3,0-.3-.1,0,0-.1-.2-.1-.3v-1.5c0-.1,0-.3.1-.3,0,0,.2-.1.3-.1s.3,0,.3.1c0,0,.1.2.1.3v1.5c0,.1,0,.3-.1.3,0,0-.2.1-.3.1ZM96.4,287.3c-5.1,0-10.1-1.3-14.6-3.9-4.4-2.5-8.1-6.2-10.8-10.6-2.6-4.4-4-9.4-4.1-14.5,0-5.1,1.2-10.2,3.6-14.6,0-.1.2-.2.3-.2,0,0,.1,0,.2,0,0,0,.1,0,.2,0,0,0,.1,0,.1.1,0,0,0,.1,0,.2,0,0,0,.1,0,.2,0,0,0,.1,0,.2-3.4,6.1-4.3,13.3-2.8,20.1,1.6,6.8,5.6,12.8,11.3,16.8,5.7,4,12.7,5.8,19.6,5,6.9-.8,13.4-4.1,18-9.3,4.7-5.2,7.2-11.9,7.3-18.9,0-7-2.5-13.7-7.2-19-4.6-5.2-11-8.6-18-9.4-6.9-.8-13.9.9-19.7,5,0,0-.1,0-.2,0,0,0-.1,0-.2,0,0,0-.1,0-.2,0,0,0-.1,0-.1-.1,0,0,0-.1,0-.2,0,0,0-.1,0-.2,0,0,0-.1,0-.2,0,0,0-.1.1-.1,3.8-2.7,8.1-4.4,12.7-5,4.6-.7,9.2-.2,13.6,1.3,4.4,1.5,8.3,4,11.6,7.3,3.2,3.3,5.6,7.3,7,11.7,1.4,4.4,1.7,9.1,1,13.7-.8,4.6-2.6,8.9-5.3,12.6-2.7,3.7-6.3,6.8-10.4,8.9-4.1,2.1-8.7,3.2-13.3,3.2Z"/>
    <path class="st5" d="M76.7,256.9l5.3-5.3,15.6,15.6-5.3,5.3-15.6-15.6Z"/>
    <path class="st5" d="M110.9,243.3l5.3,5.3-23.9,23.9-5.3-5.3,23.9-23.9Z"/>
    <path class="st1" d="M115.6,181h-44.7c-1,0-2-.4-2.7-1.2-.7-.7-1.1-1.7-1.1-2.7v-26c0-1,.4-2,1.1-2.8.7-.7,1.7-1.1,2.8-1.1h35.1c1,0,2,.4,2.8,1.1.7.7,1.1,1.7,1.1,2.8v21.9l6,7.2c0,0,0,.2.1.2,0,0,0,.2,0,.3,0,0-.1.2-.2.2,0,0-.2,0-.3,0ZM70.9,180h43.6l-5.5-6.5c0,0-.1-.2-.1-.3v-22.1c0-.8-.3-1.5-.9-2.1-.5-.5-1.3-.9-2.1-.9h-35.1c-.8,0-1.5.3-2.1.9-.5.5-.9,1.3-.9,2.1v26c0,.8.3,1.5.9,2.1.5.5,1.3.9,2.1.9Z"/>
    <path class="st1" d="M101.3,157.9h-25.3c-.1,0-.3,0-.3-.1,0,0-.1-.2-.1-.3s0-.3.1-.3c0,0,.2-.1.3-.1h25.3c.1,0,.3,0,.3.1s.1.2.1.3,0,.3-.1.3c0,0-.2.1-.3.1ZM101.3,164.9h-25.3c-.1,0-.3,0-.3-.1,0,0-.1-.2-.1-.3s0-.3.1-.3c0,0,.2-.1.3-.1h25.3c.1,0,.3,0,.3.1s.1.2.1.3,0,.3-.1.3-.2.1-.3.1ZM94.5,171.9h-18.5c-.1,0-.3,0-.3-.1,0,0-.1-.2-.1-.3s0-.3.1-.3c0,0,.2-.1.3-.1h18.5c.1,0,.3,0,.3.1,0,0,.1.2.1.3s0,.3-.1.3c0,0-.2.1-.3.1Z"/>
  </g>
</svg>