<?xml version="1.0" encoding="UTF-8"?>
<svg id="Calque_1" xmlns="http://www.w3.org/2000/svg" version="1.1" viewBox="0 0 69 56">
  <!-- Generator: Adobe Illustrator 29.4.0, SVG Export Plug-In . SVG Version: 2.1.0 Build 152)  -->
  <defs>
    <style>
      .st0 {
        fill: #6868f5;
      }
    </style>
  </defs>
  <path class="st0" d="M9.3,56c-.1,0-.3,0-.4-.1-.1,0-.2-.2-.2-.4l-3.7-18.7c0,0,0-.2,0-.3,0,0,0-.2,0-.2,0,0,.1-.1.2-.2,0,0,.1,0,.2,0,0,0,.2,0,.3,0,0,0,.2,0,.2,0,0,0,.1.1.2.2,0,0,0,.2,0,.2l3.6,18,57.5-11.5L58.9,1.4,1.4,13l3.1,15.4c0,0,0,.2,0,.3,0,0,0,.2,0,.2,0,0-.1.1-.2.2,0,0-.1,0-.2,0,0,0-.2,0-.3,0,0,0-.2,0-.2,0,0,0-.1-.1-.2-.2,0,0,0-.2,0-.2L0,12.6c0-.2,0-.3,0-.5,0-.1.2-.2.4-.3L59.3,0c0,0,.2,0,.2,0,0,0,.2,0,.2,0,0,0,.1.1.2.2,0,0,0,.1,0,.2l8.6,42.9c0,0,0,.2,0,.2,0,0,0,.2,0,.2,0,0-.1.1-.2.2,0,0-.1,0-.2,0C6.6,56.5,9.4,56,9.3,56Z"/>
  <path class="st0" d="M29.1,33.8L.3,13c-.1,0-.2-.2-.3-.4,0-.2,0-.3.1-.5,0-.1.2-.2.4-.3.2,0,.3,0,.5.1l28.8,20.8c.8.6,1.7,1,2.7,1.2,1,.2,2,.2,3,0,1-.2,1.9-.6,2.7-1.2.8-.6,1.5-1.3,2-2.2L58.9.3c0,0,0-.1.2-.2,0,0,.1,0,.2-.1,0,0,.2,0,.2,0,0,0,.2,0,.2,0,0,0,.1.1.2.2,0,0,0,.1.1.2,0,0,0,.2,0,.3,0,0,0,.2,0,.2l-18.5,30.4c-.6,1-1.4,1.9-2.4,2.5-1,.7-2.1,1.1-3.2,1.4-1.2.2-2.3.2-3.5,0-1.2-.2-2.2-.7-3.2-1.4Z"/>
  <path class="st0" d="M68,44.2c-.1,0-.3,0-.4-.1l-24.2-17.5c-.1,0-.2-.2-.3-.4,0-.2,0-.3.1-.5,0-.1.2-.2.4-.3.2,0,.3,0,.5.1l24.2,17.5c.1,0,.2.2.2.3,0,.1,0,.3,0,.4,0,.1-.1.2-.2.3-.1,0-.2.1-.4.1ZM9.3,56c-.1,0-.2,0-.3,0,0,0-.2-.1-.2-.2,0,0,0-.2,0-.3s0-.2,0-.3l15.5-25.4c0,0,0-.1.2-.2,0,0,.1,0,.2-.1s.2,0,.2,0c0,0,.2,0,.2,0,0,0,.1.1.2.2,0,0,0,.1.1.2,0,0,0,.2,0,.3,0,0,0,.2,0,.2l-15.5,25.4c0,0-.1.2-.2.2,0,0-.2,0-.3,0Z"/>
</svg>