<svg width="46" height="38" viewBox="0 0 46 38" fill="none" xmlns="http://www.w3.org/2000/svg">
<path d="M35.5566 12.5953C35.5582 10.4757 35.026 8.39006 34.0092 6.53178C32.9925 4.6735 31.5241 3.10281 29.7404 1.96543C27.9567 0.828043 25.9154 0.16081 23.8059 0.0256257C21.6964 -0.109559 19.587 0.291685 17.6734 1.19213C15.7598 2.09258 14.104 3.46307 12.8596 5.17645C11.6152 6.88983 10.8225 8.8906 10.5551 10.9932C10.2876 13.0957 10.5541 15.2319 11.3298 17.2037C12.1055 19.1754 13.3652 20.9187 14.9922 22.272C15.7047 22.8587 16.2776 23.5976 16.6691 24.4346C17.0607 25.2717 17.261 26.1858 17.2554 27.1103H28.7623C28.7592 26.1914 28.9582 25.2831 29.3453 24.4502C29.7323 23.6173 30.2978 22.8802 31.0014 22.2915C32.4272 21.1125 33.575 19.6317 34.3626 17.9553C35.1501 16.2789 35.5579 14.4484 35.5566 12.5953Z" fill="#FCC63A"/>
<path d="M21.1018 27.1622C21.0408 27.1622 20.9824 27.1379 20.9393 27.0947C20.8962 27.0515 20.872 26.9929 20.872 26.9318V19.6743L18.1802 13.2037C18.1676 13.1756 18.1608 13.1452 18.16 13.1145C18.1593 13.0837 18.1648 13.0531 18.176 13.0244C18.1873 12.9958 18.2042 12.9697 18.2257 12.9477C18.2472 12.9257 18.2729 12.9083 18.3012 12.8964C18.3296 12.8846 18.36 12.8785 18.3907 12.8787C18.4214 12.8788 18.4518 12.8851 18.48 12.8972C18.5083 12.9093 18.5338 12.927 18.5551 12.9491C18.5765 12.9713 18.5931 12.9975 18.6042 13.0263L21.3131 19.5361C21.3407 19.6029 21.3304 19.1214 21.3304 26.9318C21.3304 26.9927 21.3063 27.0511 21.2635 27.0943C21.2206 27.1375 21.1625 27.1619 21.1018 27.1622ZM24.909 27.1622C24.8481 27.1622 24.7897 27.1379 24.7466 27.0947C24.7035 27.0515 24.6793 26.9929 24.6793 26.9318V19.6248C24.6793 19.5534 24.5127 19.9796 27.4066 13.0263C27.4177 12.9975 27.4344 12.9713 27.4557 12.9491C27.477 12.927 27.5025 12.9093 27.5308 12.8972C27.559 12.8851 27.5894 12.8788 27.6201 12.8787C27.6508 12.8785 27.6812 12.8846 27.7096 12.8964C27.7379 12.9083 27.7636 12.9257 27.7851 12.9477C27.8066 12.9697 27.8235 12.9958 27.8348 13.0244C27.846 13.0531 27.8515 13.0837 27.8508 13.1145C27.85 13.1452 27.8432 13.1756 27.8306 13.2037L25.1388 19.6709V26.9284C25.1393 26.9589 25.1337 26.9892 25.1223 27.0176C25.111 27.0459 25.0941 27.0717 25.0727 27.0935C25.0514 27.1153 25.0259 27.1325 24.9978 27.1443C24.9697 27.1561 24.9395 27.1622 24.909 27.1622Z" fill="white"/>
<path d="M29.462 28.882H16.55C16.4891 28.882 16.4307 28.8577 16.3876 28.8145C16.3445 28.7713 16.3203 28.7127 16.3203 28.6516V25.9272C16.3203 25.8661 16.3445 25.8075 16.3876 25.7643C16.4307 25.7211 16.4891 25.6968 16.55 25.6968H29.462C29.5229 25.6968 29.5813 25.7211 29.6244 25.7643C29.6675 25.8075 29.6917 25.8661 29.6917 25.9272V28.6516C29.6917 28.7127 29.6675 28.7713 29.6244 28.8145C29.5813 28.8577 29.5229 28.882 29.462 28.882ZM16.7798 28.4212H29.2322V26.1576H16.7798V28.4212Z" fill="#000091"/>
<path d="M16.55 25.9272H29.4619V28.6517H16.55V25.9272Z" fill="#000091"/>
<path d="M25.5731 37.9999H20.4377C20.377 37.9999 20.3188 37.9759 20.2757 37.933L17.6334 35.2835C17.6119 35.2621 17.5948 35.2366 17.5832 35.2085C17.5715 35.1804 17.5656 35.1503 17.5656 35.1199V28.6515C17.5656 28.5904 17.5898 28.5318 17.6329 28.4886C17.676 28.4454 17.7344 28.4211 17.7954 28.4211H28.2223C28.2832 28.4211 28.3417 28.4454 28.3848 28.4886C28.4279 28.5318 28.4521 28.5904 28.4521 28.6515V35.1165C28.4522 35.1468 28.4465 35.1768 28.435 35.2049C28.4236 35.233 28.4067 35.2585 28.3854 35.28L25.7431 37.9296C25.7211 37.9524 25.6946 37.9704 25.6654 37.9825C25.6361 37.9946 25.6047 38.0005 25.5731 37.9999ZM20.5331 37.5391H25.4731L27.9833 35.0208V28.8819H18.0217V35.0208L20.5331 37.5391Z" fill="#000091"/>
<path d="M28.5589 31.2356C28.5394 31.2356 29.0977 31.292 17.4289 30.0836C17.368 30.0773 17.312 30.047 17.2733 29.9994C17.2346 29.9518 17.2164 29.8907 17.2227 29.8296C17.2289 29.7685 17.2591 29.7124 17.3066 29.6736C17.3541 29.6348 17.4151 29.6165 17.476 29.6228L28.5819 30.7748C28.6121 30.7763 28.6417 30.7837 28.669 30.7967C28.6963 30.8097 28.7208 30.8279 28.741 30.8504C28.7613 30.8729 28.7769 30.8991 28.7871 30.9276C28.7973 30.9562 28.8017 30.9864 28.8002 31.0167C28.7987 31.0469 28.7912 31.0766 28.7783 31.104C28.7654 31.1313 28.7472 31.1559 28.7248 31.1762C28.7024 31.1966 28.6762 31.2123 28.6477 31.2224C28.6193 31.2326 28.5891 31.2371 28.5589 31.2356ZM28.5589 33.1363C28.5394 33.1363 29.0977 33.1939 17.4289 31.9843C17.3989 31.9812 17.3697 31.9721 17.3432 31.9577C17.3167 31.9432 17.2932 31.9237 17.2743 31.9001C17.2553 31.8766 17.2411 31.8495 17.2325 31.8205C17.224 31.7915 17.2212 31.761 17.2244 31.7309C17.2308 31.6703 17.2608 31.6147 17.308 31.5763C17.3551 31.5379 17.4155 31.5197 17.476 31.5259L28.5819 32.6721C28.6121 32.6736 28.6417 32.6811 28.669 32.694C28.6963 32.707 28.7208 32.7252 28.741 32.7477C28.7613 32.7702 28.7769 32.7964 28.7871 32.8249C28.7973 32.8535 28.8017 32.8837 28.8002 32.914C28.7987 32.9443 28.7912 32.9739 28.7783 33.0013C28.7654 33.0287 28.7472 33.0532 28.7248 33.0735C28.7024 33.0939 28.6762 33.1096 28.6477 33.1197C28.6193 33.1299 28.5891 33.1344 28.5589 33.1329V33.1363ZM28.5589 35.0382C28.5394 35.0382 29.0977 35.0947 17.4289 33.8863C17.368 33.88 17.312 33.8497 17.2733 33.8021C17.2346 33.7545 17.2164 33.6934 17.2227 33.6323C17.2289 33.5712 17.2591 33.515 17.3066 33.4763C17.3541 33.4375 17.4151 33.4192 17.476 33.4255L28.5819 34.5775C28.6121 34.579 28.6417 34.5864 28.669 34.5994C28.6963 34.6124 28.7208 34.6306 28.741 34.6531C28.7613 34.6755 28.7769 34.7018 28.7871 34.7303C28.7973 34.7589 28.8017 34.7891 28.8002 34.8194C28.7987 34.8496 28.7912 34.8793 28.7783 34.9067C28.7654 34.934 28.7472 34.9586 28.7248 34.9789C28.7024 34.9992 28.6762 35.0149 28.6477 35.0251C28.6193 35.0353 28.5891 35.0398 28.5589 35.0382ZM27.2171 36.1211L25.5731 37.7696H20.4377L18.7937 36.1211H27.2171Z" fill="#000091"/>
<path d="M25.9016 13.6378L24.5425 11.6173L23.1846 13.6378C23.1636 13.6692 23.1352 13.6949 23.1019 13.7127C23.0687 13.7304 23.0316 13.7397 22.9939 13.7397C22.9562 13.7397 22.9191 13.7304 22.8858 13.7127C22.8526 13.6949 22.8242 13.6692 22.8032 13.6378L21.4441 11.6173L20.0861 13.6378C20.0651 13.669 20.0367 13.6944 20.0036 13.7121C19.9705 13.7297 19.9335 13.7389 19.896 13.7389C19.8585 13.7389 19.8216 13.7297 19.7884 13.7121C19.7553 13.6944 19.7269 13.669 19.7059 13.6378L18.1572 11.3339C18.1245 11.2832 18.1129 11.2216 18.1251 11.1624C18.1372 11.1032 18.172 11.0511 18.222 11.0175C18.272 10.9838 18.3333 10.9711 18.3925 10.9823C18.4517 10.9934 18.5042 11.0274 18.5386 11.077L19.8954 13.0976L21.2545 11.077C21.2756 11.0459 21.3039 11.0204 21.3371 11.0028C21.3702 10.9852 21.4071 10.976 21.4447 10.976C21.4822 10.976 21.5191 10.9852 21.5523 11.0028C21.5854 11.0204 21.6137 11.0459 21.6348 11.077L22.9939 13.0976L24.3518 11.077C24.3728 11.0456 24.4012 11.0199 24.4345 11.0022C24.4677 10.9844 24.5048 10.9751 24.5425 10.9751C24.5802 10.9751 24.6173 10.9844 24.6506 11.0022C24.6838 11.0199 24.7122 11.0456 24.7332 11.077L26.0923 13.0976L27.4514 11.077C27.4859 11.0274 27.5384 10.9934 27.5976 10.9823C27.6568 10.9711 27.718 10.9838 27.768 11.0175C27.8181 11.0511 27.8529 11.1032 27.865 11.1624C27.8771 11.2216 27.8656 11.2832 27.8328 11.3339L26.283 13.6378C26.262 13.6692 26.2336 13.6949 26.2004 13.7127C26.1671 13.7304 26.13 13.7397 26.0923 13.7397C26.0546 13.7397 26.0175 13.7304 25.9843 13.7127C25.951 13.6949 25.9226 13.6692 25.9016 13.6378Z" fill="white"/>
<path d="M39.319 8.40447C39.27 8.40485 39.2221 8.38948 39.1824 8.36061C39.1427 8.33175 39.1132 8.29089 39.0984 8.24404C39.0835 8.19718 39.0839 8.14677 39.0996 8.10019C39.1154 8.05361 39.1456 8.01329 39.1858 7.98515L43.4204 4.97963C43.4449 4.96041 43.473 4.94638 43.5031 4.93838C43.5331 4.93038 43.5645 4.92858 43.5953 4.93309C43.626 4.93759 43.6556 4.94832 43.6821 4.96461C43.7086 4.9809 43.7315 5.00241 43.7495 5.02785C43.7675 5.0533 43.7801 5.08213 43.7867 5.11261C43.7932 5.1431 43.7935 5.17459 43.7876 5.2052C43.7816 5.2358 43.7695 5.26487 43.752 5.29065C43.7345 5.31643 43.712 5.33838 43.6858 5.35518L39.4489 8.36645C39.4104 8.3919 39.3651 8.40514 39.319 8.40447ZM40.6 11.88C40.5698 11.8814 40.5397 11.8769 40.5112 11.8666C40.4828 11.8564 40.4567 11.8406 40.4343 11.8203C40.412 11.7999 40.3939 11.7753 40.381 11.7479C40.3681 11.7205 40.3608 11.6908 40.3593 11.6605C40.3579 11.6303 40.3624 11.6 40.3726 11.5715C40.3829 11.543 40.3986 11.5168 40.4189 11.4944C40.4392 11.472 40.4638 11.4538 40.4911 11.4409C40.5184 11.428 40.548 11.4206 40.5782 11.4192L45.748 10.9365C45.7782 10.9337 45.8086 10.9369 45.8375 10.9459C45.8665 10.9549 45.8934 10.9695 45.9167 10.9889C45.94 11.0084 45.9593 11.0322 45.9734 11.0591C45.9875 11.0859 45.9962 11.1154 45.999 11.1456C46.0018 11.1759 45.9986 11.2064 45.9897 11.2354C45.9807 11.2644 45.9661 11.2914 45.9468 11.3148C45.9274 11.3381 45.9036 11.3575 45.8768 11.3716C45.85 11.3858 45.8207 11.3945 45.7905 11.3973C40.2163 11.9169 40.6172 11.88 40.6 11.88ZM44.6968 17.7067C44.6233 17.7067 44.9668 17.8553 39.3581 15.2703C39.3287 15.2591 39.302 15.2419 39.2795 15.2199C39.257 15.1979 39.2392 15.1715 39.2273 15.1423C39.2154 15.1132 39.2095 15.0819 39.2102 15.0504C39.2108 15.0189 39.2179 14.9878 39.2309 14.9591C39.244 14.9305 39.2628 14.9048 39.2862 14.8837C39.3095 14.8626 39.3369 14.8466 39.3667 14.8366C39.3965 14.8265 39.4281 14.8227 39.4594 14.8254C39.4907 14.8281 39.5211 14.8372 39.5488 14.8521L44.7922 17.2713C44.8374 17.2944 44.8738 17.332 44.8955 17.3781C44.9172 17.4241 44.9231 17.4761 44.9122 17.5259C44.9013 17.5757 44.8742 17.6204 44.8352 17.6531C44.7963 17.6859 44.7476 17.7047 44.6968 17.7067ZM2.45822 17.7067C2.40949 17.7067 2.36201 17.6912 2.32264 17.6624C2.28328 17.6336 2.25407 17.593 2.23923 17.5464C2.2244 17.4999 2.22471 17.4498 2.24012 17.4035C2.25553 17.3571 2.28524 17.3169 2.32495 17.2885L6.56306 14.2784C6.61281 14.2465 6.67289 14.2351 6.73084 14.2464C6.78879 14.2577 6.84016 14.291 6.8743 14.3393C6.90843 14.3876 6.92271 14.4473 6.91418 14.5059C6.90564 14.5644 6.87494 14.6175 6.82844 14.654L2.59149 17.6652C2.55223 17.6922 2.50579 17.7066 2.45822 17.7067ZM0.240943 11.7037C0.210769 11.7052 0.180609 11.7006 0.152183 11.6904C0.123758 11.6801 0.0976243 11.6644 0.0752748 11.644C0.0301378 11.6028 0.00315391 11.5454 0.000259316 11.4843C-0.00263527 11.4232 0.018797 11.3634 0.0598404 11.3182C0.100884 11.2729 0.158177 11.2459 0.219116 11.2429L5.38894 10.7603C5.44956 10.7545 5.51 10.7731 5.55696 10.812C5.60392 10.8509 5.63357 10.9068 5.63938 10.9676C5.64223 10.9978 5.6391 11.0283 5.63019 11.0573C5.62127 11.0862 5.60673 11.1132 5.58741 11.1365C5.5681 11.1598 5.54437 11.1791 5.51761 11.1932C5.49084 11.2073 5.46156 11.216 5.43144 11.2188C-0.142772 11.7406 0.258176 11.7037 0.240943 11.7037ZM6.55731 7.8089C6.48379 7.8089 6.82729 7.95635 1.21861 5.37246C1.19116 5.35983 1.16645 5.34189 1.1459 5.31969C1.12535 5.29748 1.10937 5.27143 1.09886 5.24303C1.08835 5.21463 1.08353 5.18443 1.08466 5.15416C1.08579 5.12389 1.09285 5.09414 1.10545 5.06661C1.11805 5.03907 1.13593 5.0143 1.15808 4.99369C1.18022 4.97309 1.2062 4.95706 1.23453 4.94653C1.26285 4.93599 1.29297 4.93115 1.32315 4.93229C1.35334 4.93342 1.38301 4.9405 1.41047 4.95314L6.65382 7.3723C6.69975 7.39521 6.73671 7.43287 6.75882 7.47929C6.78092 7.52571 6.7869 7.57821 6.7758 7.62843C6.7647 7.67865 6.73716 7.7237 6.69756 7.7564C6.65797 7.78911 6.6086 7.80759 6.55731 7.8089Z" fill="#000091"/>
</svg>
