<svg width="28" height="31" viewBox="0 0 28 31" fill="none" xmlns="http://www.w3.org/2000/svg">
<path d="M21.976 16.5V18C21.976 22.1544 20.9802 26.1675 19.1035 29.7683L18.7633 30.3995L16.143 28.9386C17.883 25.8173 18.8572 22.3226 18.9658 18.6839L18.976 18V16.5H21.976ZM12.976 12H15.976V18L15.9678 18.5681C15.8485 22.7243 14.4223 26.6596 11.9313 29.892L11.5851 30.3284L9.26167 28.4304C11.5368 25.6453 12.8473 22.2025 12.967 18.5494L12.976 18V12ZM14.476 6C18.6181 6 21.976 9.35787 21.976 13.5H18.976C18.976 11.0147 16.9612 9 14.476 9C11.9907 9 9.97596 11.0147 9.97596 13.5V18C9.97596 21.3531 8.74649 24.5166 6.56951 26.9652L6.25209 27.31L4.07991 25.2409C5.8255 23.4084 6.85707 21.0177 6.9663 18.4541L6.97596 18V13.5C6.97596 9.35787 10.3338 6 14.476 6ZM14.476 0C21.9318 0 27.976 6.04416 27.976 13.5V18C27.976 20.5469 27.6733 23.0548 27.0808 25.4854L26.8726 26.2927L23.9779 25.5048C24.5646 23.3493 24.8968 21.1212 24.9634 18.8526L24.976 18V13.5C24.976 7.70102 20.2749 3 14.476 3C12.1174 3 9.94053 3.77762 8.18766 5.09046L6.05021 2.95153C8.35959 1.10447 11.2888 0 14.476 0ZM3.92749 5.07423L6.06642 7.2117C4.82084 8.87478 4.05704 10.9196 3.98205 13.139L3.975 13.4985L3.98125 16.5C3.98125 18.1793 3.58545 19.8039 2.83953 21.2658L2.60531 21.6994L0 20.212C0.56892 19.2154 0.90174 18.1022 0.96867 16.9386L0.981255 16.5L0.981 13.5C0.97596 10.3128 2.08042 7.38363 3.92749 5.07423Z" fill="#000091"/>
</svg>
