<svg width="32" height="32" viewBox="0 0 32 32" fill="none" xmlns="http://www.w3.org/2000/svg">
<path d="M15.2742 2.9994C15.0184 3.07955 14.7711 3.22233 14.2765 3.5079L6.0435 8.26123C5.54888 8.5468 5.30157 8.68958 5.10428 8.871C4.73967 9.20627 4.48634 9.64505 4.37829 10.1284C4.31982 10.39 4.31982 10.6756 4.31982 11.2467V20.7534C4.31982 21.3245 4.31982 21.6101 4.37829 21.8717C4.48634 22.355 4.73967 22.7938 5.10428 23.1291C5.30157 23.3105 5.54888 23.4533 6.0435 23.7389L14.2765 28.4922C14.7711 28.7778 15.0184 28.9206 15.2742 29.0007C15.7469 29.1488 16.2535 29.1488 16.7262 29.0007C16.9819 28.9205 17.2292 28.7778 17.7239 28.4922L25.9569 23.7389C26.4515 23.4533 26.6988 23.3105 26.8961 23.1291C27.2607 22.7938 27.514 22.355 27.6221 21.8717C27.6805 21.6101 27.6805 21.3245 27.6805 20.7534V11.2467C27.6805 10.6756 27.6805 10.39 27.6221 10.1284C27.514 9.64505 27.2607 9.20627 26.8961 8.871C26.6988 8.68958 26.4515 8.5468 25.9569 8.26123L17.7239 3.5079C17.2292 3.22233 16.9819 3.07955 16.7262 2.9994C16.2535 2.85128 15.7469 2.85128 15.2742 2.9994Z" fill="#000091"/>
<path fill-rule="evenodd" clip-rule="evenodd" d="M18.6678 1.87263L26.9008 6.62596C26.9337 6.64495 26.9669 6.66404 27.0003 6.68327C27.3923 6.90865 27.8173 7.15303 28.174 7.48106C28.8222 8.0771 29.2725 8.85715 29.4646 9.71652C29.5704 10.1895 29.5695 10.6797 29.5687 11.1318C29.5686 11.1704 29.5686 11.2087 29.5686 11.2467V20.7534C29.5686 20.7913 29.5686 20.8296 29.5687 20.8682C29.5695 21.3203 29.5704 21.8106 29.4646 22.2835C29.2725 23.1429 28.8222 23.923 28.174 24.519C27.8173 24.847 27.3923 25.0914 27.0003 25.3168C26.9669 25.336 26.9337 25.3551 26.9008 25.3741L18.6678 30.1274C18.6349 30.1464 18.6017 30.1656 18.5684 30.185C18.1772 30.4117 17.7531 30.6576 17.2906 30.8025C16.4504 31.0658 15.5496 31.0658 14.7094 30.8025C14.2469 30.6576 13.8228 30.4117 13.4316 30.185C13.3983 30.1656 13.3651 30.1464 13.3322 30.1274L5.09921 25.3741C5.06631 25.3551 5.03311 25.336 4.99967 25.3168C4.60772 25.0914 4.18274 24.847 3.82601 24.519C3.17782 23.923 2.72746 23.1429 2.53537 22.2835C2.42965 21.8106 2.4305 21.3203 2.43129 20.8682C2.43136 20.8296 2.43142 20.7913 2.43142 20.7534V11.2467C2.43142 11.2087 2.43136 11.1704 2.43129 11.1318C2.4305 10.6797 2.42965 10.1895 2.53537 9.71652C2.72746 8.85715 3.17782 8.0771 3.82601 7.48106C4.18274 7.15303 4.60772 6.90866 4.99967 6.68327C5.03311 6.66404 5.06631 6.64495 5.09921 6.62596L13.3322 1.87263C13.3651 1.85364 13.3982 1.83443 13.4316 1.81508C13.8228 1.58834 14.2469 1.34248 14.7094 1.19756C15.5496 0.934229 16.4504 0.934229 17.2906 1.19756C17.7531 1.34248 18.1772 1.58834 18.5684 1.81508C18.6018 1.83443 18.6349 1.85364 18.6678 1.87263ZM15.274 2.99938C15.0183 3.07953 14.7709 3.22231 14.2763 3.50788L6.04333 8.26121C5.5487 8.54678 5.30139 8.68956 5.1041 8.87098C4.73949 9.20625 4.48617 9.64503 4.37811 10.1284C4.31965 10.39 4.31965 10.6756 4.31965 11.2467V20.7534C4.31965 21.3245 4.31965 21.6101 4.37811 21.8716C4.48617 22.355 4.73949 22.7938 5.1041 23.1291C5.30139 23.3105 5.5487 23.4533 6.04333 23.7389L14.2763 28.4922C14.7709 28.7777 15.0183 28.9205 15.274 29.0007C15.7467 29.1488 16.2533 29.1488 16.726 29.0007C16.9817 28.9205 17.229 28.7777 17.7237 28.4922L25.9567 23.7389C26.4513 23.4533 26.6986 23.3105 26.8959 23.1291C27.2605 22.7938 27.5138 22.355 27.6219 21.8716C27.6804 21.6101 27.6804 21.3245 27.6804 20.7534V11.2467C27.6804 10.6756 27.6804 10.39 27.6219 10.1284C27.5138 9.64503 27.2605 9.20625 26.8959 8.87098C26.6986 8.68956 26.4513 8.54678 25.9567 8.26121L17.7237 3.50788C17.2291 3.22231 16.9817 3.07953 16.726 2.99938C16.2533 2.85125 15.7467 2.85125 15.274 2.99938Z" fill="#000091"/>
<path d="M7.97597 16.0973L11.8732 9.38412L12.1003 8.99508L8.8055 6.66642L6.04322 8.26122C5.54859 8.5468 5.30128 8.68958 5.10399 8.871C4.93231 9.02887 4.78529 9.20969 4.6665 9.40732L7.97597 16.0973Z" fill="#FCC63A"/>
<path d="M16.4222 2.92531L27.5706 22.0633C27.5902 22.0003 27.6073 21.9364 27.6218 21.8716C27.6802 21.6101 27.6802 21.3245 27.6802 20.7534V11.2467C27.6802 10.6756 27.6802 10.39 27.6218 10.1284C27.5137 9.64505 27.2604 9.20627 26.8958 8.871C26.6985 8.68958 26.4512 8.54679 25.9566 8.26122L17.7236 3.5079C17.2289 3.22233 16.9816 3.07954 16.7259 2.9994C16.6259 2.96808 16.5245 2.94338 16.4222 2.92531Z" fill="#FCC63A"/>
<path d="M23.0845 6.60309L25.9565 8.26123C26.4511 8.5468 26.6984 8.68958 26.8957 8.871C27.0527 9.01536 27.1891 9.17891 27.3021 9.35695L24.0381 16.0366L19.8634 8.85036L23.0845 6.60309Z" fill="#000091"/>
<path d="M23.0845 6.60309L25.9565 8.26123C26.4511 8.5468 26.6984 8.68958 26.8957 8.871C27.0527 9.01536 27.1891 9.17891 27.3021 9.35695L24.0381 16.0366L19.8634 8.85036L23.0845 6.60309Z" fill="#F6F8F9" fill-opacity="0.35"/>
<path d="M16.0266 2.88845V29.1116C15.7729 29.1144 15.5188 29.0775 15.2738 29.0007C15.0181 28.9206 14.7708 28.7778 14.2762 28.4922L6.04314 23.7389C5.54852 23.4533 5.3012 23.3105 5.10391 23.1291C4.80269 22.8521 4.57741 22.5045 4.44727 22.1194L15.6346 2.91593C15.7645 2.89617 15.8956 2.88701 16.0266 2.88845Z" fill="#000091"/>
<path d="M16.0266 2.88845V29.1116C15.7729 29.1144 15.5188 29.0775 15.2738 29.0007C15.0181 28.9206 14.7708 28.7778 14.2762 28.4922L6.04314 23.7389C5.54852 23.4533 5.3012 23.3105 5.10391 23.1291C4.80269 22.8521 4.57741 22.5045 4.44727 22.1194L15.6346 2.91593C15.7645 2.89617 15.8956 2.88701 16.0266 2.88845Z" fill="#F6F8F9" fill-opacity="0.35"/>
<path fill-rule="evenodd" clip-rule="evenodd" d="M19.8403 27.2702C19.0772 27.0452 18.3252 26.7866 17.5866 26.4954C17.4564 26.2237 17.3856 25.9293 17.3787 25.6304C17.3717 25.3315 17.4288 25.0343 17.5463 24.7574C17.6109 24.5189 17.7061 24.289 17.8305 24.0738C17.8507 24.0545 17.8709 24.0351 17.8709 24.015C17.8762 24.015 17.8814 24.0129 17.8851 24.0093C17.8889 24.0057 17.8911 24.0007 17.8911 23.9956C17.9808 23.845 18.0825 23.7014 18.1955 23.566L18.2076 23.5543L18.2237 23.5381L18.2359 23.5265C18.2359 23.5078 18.2546 23.4892 18.274 23.4699L18.2762 23.4676C18.2864 23.4477 18.3018 23.4329 18.317 23.4181C18.332 23.4037 18.347 23.3893 18.357 23.3701C18.4991 23.2261 18.6557 23.096 18.8245 22.983C18.9965 22.9234 19.1725 22.8777 19.3526 22.846C20.0075 22.8924 20.6583 22.9776 21.3027 23.0999C21.3819 23.1113 21.4579 23.1376 21.5264 23.1773C21.7694 23.223 22.0206 23.2091 22.2572 23.1386C22.4113 23.1116 22.5557 23.0472 22.6766 22.9515C22.7974 22.8558 22.8907 22.7321 22.9476 22.5921C23.0188 22.4672 23.0594 22.3284 23.0664 22.1862C23.0734 22.0441 23.0466 21.9022 22.988 21.7715C22.8442 21.5586 22.9775 21.4339 23.1341 21.3147L23.189 21.2729C23.2585 21.2257 23.3215 21.1692 23.3756 21.1057C23.4417 20.9789 23.3877 20.8861 23.3305 20.7878C23.2998 20.7348 23.268 20.6803 23.2536 20.618C23.2352 20.5826 23.1955 20.5715 23.15 20.5587C23.096 20.5436 23.0339 20.5262 22.9896 20.4631C23.2738 20.3462 23.68 20.1303 23.4975 19.7997C23.3756 19.624 23.1931 19.312 23.4167 19.1362C23.5249 19.0773 23.6507 19.0463 23.7718 19.0165C23.969 18.9679 24.1535 18.9224 24.2291 18.7646C24.2689 18.6172 24.2681 18.4623 24.2267 18.3152C24.1854 18.1681 24.105 18.0338 23.9933 17.9255L23.9327 17.8418C23.8725 17.7615 23.8156 17.6789 23.7623 17.5941C23.634 17.3899 23.4916 17.1941 23.336 17.0081C23.1583 16.7668 23.0149 16.5038 22.9096 16.2262C22.8326 16.0419 22.869 15.8727 22.9062 15.6993C22.928 15.5982 22.95 15.4956 22.95 15.3878C22.962 14.8241 22.8726 14.2626 22.686 13.728C22.6432 13.6131 22.6112 13.4948 22.5795 13.3773C22.5358 13.2153 22.4926 13.055 22.4219 12.9074C22.4066 12.7442 22.3433 12.5885 22.2394 12.4584C22.2194 12.4189 22.209 12.3756 22.209 12.3318C22.209 12.2879 22.2194 12.2447 22.2394 12.2052C22.4049 12.093 22.5616 11.9691 22.7069 11.8336C22.7517 11.739 22.7601 11.6323 22.7305 11.5324C22.701 11.4324 22.6354 11.3458 22.5454 11.2878C22.3867 11.2176 22.3313 11.3235 22.2723 11.4362C22.2332 11.511 22.1925 11.5888 22.1191 11.62H21.9972C21.9643 11.5406 22.0117 11.4996 22.0744 11.4454C22.0887 11.433 22.1039 11.4199 22.1191 11.4055C22.1191 11.3668 22.1191 11.2886 22.0787 11.2886C21.9172 11.2886 21.7743 11.2491 21.7331 11.1717C21.3439 10.7067 20.8216 10.3607 20.2304 10.1761C20.3822 10.221 20.5388 10.2466 20.6979 10.2536C20.9708 10.3085 21.2551 10.2814 21.5102 10.1761C21.6432 10.1335 21.701 9.95708 21.7535 9.79666C21.7734 9.73599 21.7925 9.6776 21.8147 9.62959C21.8311 9.54452 21.8287 9.4571 21.8077 9.37296C21.7867 9.28883 21.7475 9.20984 21.6927 9.1411C21.5093 8.88552 21.2563 8.68308 20.9611 8.55584C20.7745 8.47213 20.5916 8.38096 20.4129 8.28256C20.3507 8.24066 20.2824 8.20779 20.2102 8.18502C17.816 7.03539 12.887 8.03019 12.5115 8.18502H12.5043C12.1583 8.28126 11.821 8.40423 11.4957 8.55274C11.0479 8.71215 10.6435 8.96661 10.3127 9.29708C9.98203 9.62755 9.73357 10.0255 9.58598 10.461C9.12493 10.7514 8.75329 11.1548 8.50959 11.6292C8.42954 11.7727 8.34083 11.9123 8.25277 12.051C7.96061 12.511 7.67558 12.9597 7.73763 13.4981C7.79125 13.899 7.87228 14.2741 7.95639 14.6633C7.99894 14.8602 8.04227 15.0607 8.08323 15.2701C8.11796 15.4807 8.17206 15.6881 8.24473 15.8894C8.28045 15.9839 8.28457 16.0901 8.28861 16.1943C8.2937 16.3256 8.29867 16.4538 8.36666 16.5513C8.38651 16.5894 8.39552 16.6297 8.4044 16.6694C8.42262 16.7509 8.44031 16.8301 8.54996 16.8827V17.0375C8.56072 17.0478 8.56861 17.0581 8.57594 17.0677C8.59613 17.0941 8.61207 17.1149 8.6719 17.1149V17.2697C9.02316 17.5972 9.32354 17.9711 9.56579 18.3799C9.64654 18.5935 9.17981 18.496 9.00055 18.4186C8.66501 18.2092 8.35796 17.9606 8.08646 17.6785C8.06429 17.6993 8.04983 17.7265 8.04528 17.7559C8.09816 17.8451 8.19483 17.9407 8.29024 18.0349C8.48625 18.2286 8.67694 18.417 8.47164 18.5347C8.40125 18.5685 8.32656 18.5506 8.25126 18.5325C8.15379 18.5092 8.05529 18.4856 7.96372 18.5734C7.93717 18.6121 7.94554 18.6592 7.95439 18.7089C7.95899 18.7348 7.96372 18.7614 7.96372 18.7879C7.82967 18.6951 7.68865 18.6857 7.54901 18.6764C7.45566 18.6702 7.36293 18.664 7.27332 18.633C7.19862 18.6151 7.1495 18.5431 7.10021 18.4708C7.04292 18.3868 6.98542 18.3025 6.88733 18.3025C6.40566 18.1898 5.9173 18.1053 5.42496 18.0493C5.05847 17.9964 4.68971 17.9595 4.31982 17.9387V18.3285C4.64161 18.2694 4.96924 18.2427 5.29737 18.2491C5.42523 18.2295 5.5555 18.2295 5.68336 18.2491C5.22098 18.2486 4.76163 18.3131 4.31982 18.4401V19.1465C4.66392 19.2118 5.00403 19.2954 5.33856 19.3971C5.67185 19.5145 5.99169 19.6645 6.29301 19.8446C6.41172 19.953 6.54092 20.0513 6.679 20.1364C6.77645 20.1897 6.88534 20.221 6.99731 20.2277C7.10929 20.2344 7.22138 20.2164 7.325 20.1752H7.59147C8.16997 20.0835 8.71105 19.8411 9.15558 19.4745C9.15558 19.5132 9.19596 19.5132 9.23633 19.5132C9.17311 19.8218 9.05628 20.1181 8.89073 20.3896C8.89131 20.3989 8.88936 20.4106 8.8872 20.4235C8.88042 20.4641 8.87164 20.5166 8.93352 20.546H8.99732C8.9634 20.546 8.93352 20.5514 8.93352 20.5847C8.93352 20.6234 8.96401 20.6234 8.99944 20.6234C9.03486 20.6234 9.07524 20.6234 9.09502 20.6621C8.90314 20.6671 8.7209 20.7438 8.58711 20.8758C8.58711 20.9145 8.66786 20.9145 8.70904 20.9145C8.67944 20.9523 8.63517 20.9624 8.59284 20.9721C8.54857 20.9822 8.50642 20.9918 8.48536 21.0321C8.50718 21.0531 8.53552 21.0667 8.56611 21.0709C8.52574 21.0709 8.48536 21.0709 8.48536 21.1096V21.2272C8.42039 21.2272 8.38044 21.2588 8.33881 21.2917C8.31526 21.3103 8.29116 21.3294 8.26169 21.3434C8.36692 21.42 8.44712 21.3968 8.53513 21.3713C8.5822 21.3576 8.63149 21.3434 8.68805 21.3434C8.50935 21.4082 8.34484 21.4839 8.18263 21.5585C7.9578 21.6618 7.73739 21.7632 7.48972 21.8311C7.44935 21.8311 7.44935 21.8601 7.44935 21.8891C7.44935 21.9182 7.44935 21.9472 7.40897 21.9472C7.4829 21.9941 7.53456 21.9699 7.59078 21.9436C7.62728 21.9265 7.66571 21.9085 7.7134 21.9085C7.4941 22.03 7.27132 22.1441 7.04505 22.2599C6.72645 22.423 6.40094 22.5896 6.06853 22.7856C6.02473 22.8274 5.99638 22.8818 5.98778 22.9404H5.82629C5.78446 22.9605 5.77513 22.9963 5.76452 23.0371C5.75465 23.075 5.74367 23.1172 5.70435 23.1549C5.79349 23.2116 5.89188 23.176 5.9837 23.1427C6.07987 23.1079 6.16884 23.0757 6.23245 23.1549C6.27283 23.1549 6.15171 23.1936 6.07096 23.1936C6.05077 23.1936 6.04067 23.2129 6.03058 23.2323C6.02049 23.2517 6.01039 23.271 5.99021 23.271H5.86585C5.85592 23.2782 5.84598 23.285 5.83619 23.2918C5.76645 23.3399 5.70435 23.3828 5.70435 23.4847C5.67529 23.4796 5.64547 23.4816 5.61757 23.4903C5.65385 23.5121 5.69207 23.5347 5.73246 23.5584C6.52811 23.5334 7.31462 23.3836 8.06062 23.1146C8.69028 22.8071 9.2605 22.3986 9.74667 21.9069C9.76855 21.9279 9.78272 21.955 9.78705 21.9844C9.66834 22.3227 9.43982 22.6161 9.13621 22.8204C9.0276 22.8776 8.93347 22.9482 8.84483 23.0147C8.75092 23.0852 8.66318 23.151 8.57096 23.1913C8.4512 23.2555 8.33577 23.3268 8.22535 23.4049C7.71502 23.5574 7.19095 23.6643 6.65962 23.7239L6.41333 23.758C6.32367 23.7706 6.2342 23.7837 6.14503 23.7975L7.30884 24.4694C7.49395 24.4672 7.67854 24.4501 7.86117 24.4175C8.09858 24.3533 8.32952 24.2689 8.55158 24.1644V24.2418C8.81876 24.1404 9.05563 23.9782 9.29127 23.8168C9.55415 23.6367 9.8155 23.4577 10.1157 23.3655C10.1211 23.3655 10.131 23.3711 10.1441 23.3785C10.1797 23.3987 10.2392 23.4325 10.2982 23.4042C10.4444 23.2304 10.6304 23.0912 10.8416 22.9972C11.0529 22.9033 11.2839 22.8571 11.5167 22.8622C11.5167 22.901 11.5167 22.9397 11.5571 22.9397H11.5773C11.4802 23.0173 11.3704 23.0939 11.2592 23.1715C11.2307 23.1915 11.202 23.2114 11.1735 23.2315C11.1275 23.2718 11.1679 23.3097 11.2082 23.3097C11.3152 23.2689 11.3992 23.2116 11.4819 23.1553C11.5559 23.1049 11.6288 23.0552 11.7161 23.0186C11.696 23.038 11.6859 23.067 11.6758 23.096C11.6657 23.1251 11.6556 23.1541 11.6354 23.1735C11.4839 23.2642 11.3412 23.3679 11.209 23.4831C10.7522 23.8691 10.3246 24.2856 9.92916 24.7295C9.73831 24.9473 9.53041 25.1502 9.32411 25.3515C9.31045 25.3648 9.29681 25.3781 9.28317 25.3914C9.23318 25.4364 9.1805 25.4787 9.12557 25.5183L14.2765 28.4922C14.7711 28.7777 15.0184 28.9205 15.2742 29.0007C15.7469 29.1488 16.2535 29.1488 16.7262 29.0007C16.9819 28.9205 17.2292 28.7777 17.7239 28.4922L19.8403 27.2702ZM22.2035 16.1685C22.2434 16.1483 22.2772 16.1186 22.3016 16.0822C22.3016 16.048 22.2656 16.0204 22.2317 15.9946C22.1928 15.9648 22.1567 15.9372 22.1813 15.9041C22.4082 15.7501 22.6133 15.5395 22.5325 15.3282C22.5069 15.2568 22.3768 15.2299 22.2373 15.201C22.1529 15.1835 22.0651 15.1654 21.9947 15.1362C21.8483 15.0942 21.6922 15.0942 21.5458 15.1362L21.4384 15.1571L21.3318 15.1772C21.134 15.2105 20.9393 15.2624 20.752 15.332C20.4847 15.4141 20.2328 15.5372 20.0067 15.6967C20.2804 15.5945 20.5647 15.5232 20.8554 15.4845C21.0718 15.433 21.2962 15.4198 21.5175 15.4458C21.5674 15.4575 21.623 15.4657 21.6762 15.4735C21.7997 15.4916 21.9108 15.5079 21.9108 15.562C21.864 15.724 21.6992 15.8192 21.52 15.9227C21.3807 16.0031 21.2326 16.0887 21.1243 16.2146H20.9999C20.9386 16.2524 20.9175 16.3135 20.8995 16.3658C20.881 16.4195 20.8657 16.4638 20.8134 16.4638C20.6948 16.4385 20.5708 16.4521 20.4613 16.5026C20.532 16.5813 20.622 16.6418 20.7232 16.6787C20.8245 16.7156 20.9337 16.7277 21.0411 16.7139C21.0757 16.7246 21.1061 16.7452 21.1283 16.7728C21.1505 16.8005 21.1635 16.8339 21.1654 16.8687C21.1963 16.8656 21.225 16.8518 21.2462 16.83C21.2858 16.83 21.3269 16.83 21.3269 16.8687V17.0236C21.2939 17.0608 21.2518 17.0897 21.2043 17.1075C21.1568 17.1253 21.1055 17.1316 21.0548 17.1257H20.9862C20.9409 17.1249 20.8956 17.129 20.8513 17.1381C21.1493 17.2148 21.4626 17.2148 21.7614 17.1381C21.883 17.0972 21.8747 16.9741 21.8658 16.842C21.858 16.7268 21.8498 16.6047 21.9269 16.5242C21.8865 16.5242 21.8865 16.4954 21.8865 16.4666C21.8865 16.4377 21.8865 16.4089 21.8462 16.4089C21.9169 16.3335 21.993 16.2629 22.0739 16.1975C22.119 16.1987 22.1636 16.1887 22.2035 16.1685Z" fill="white"/>
<path d="M4.4004 21.9623C5.11126 21.8142 5.80415 21.5943 6.46744 21.3062C5.81287 20.8701 5.08665 20.5437 4.31982 20.3404V20.7534C4.31982 21.3245 4.31982 21.6101 4.37829 21.8716C4.38509 21.902 4.39246 21.9323 4.4004 21.9623Z" fill="white"/>
<rect x="8" y="25.5" width="15.5" height="6.5" rx="1" fill="#000091"/>
<path d="M10 30.7789V26.6189H11.3728C12.288 26.6189 12.8466 27.0883 12.8466 27.8609C12.8466 28.6275 12.288 29.097 11.3728 29.097H10.8439V30.7789H10ZM11.4085 27.3201H10.8439V28.3958H11.4085C11.765 28.3958 11.979 28.1878 11.979 27.849C11.979 27.5341 11.765 27.3201 11.4085 27.3201Z" fill="white"/>
<path d="M13.604 30.7789V26.6189H14.8758C15.791 26.6189 16.3556 27.0883 16.3556 27.8609C16.3556 28.3661 16.1119 28.7405 15.684 28.9366L16.9855 30.7789H15.993L14.8817 29.097H14.4479V30.7789H13.604ZM14.9233 27.3201H14.4479V28.3958H14.9233C15.2799 28.3958 15.4879 28.1878 15.4879 27.849C15.4879 27.5341 15.2799 27.3201 14.9233 27.3201Z" fill="white"/>
<path d="M19.3698 26.5C20.6772 26.5 21.5746 27.5103 21.5746 28.6989C21.5746 29.8874 20.6772 30.8977 19.3698 30.8977C18.0564 30.8977 17.1591 29.8874 17.1591 28.6989C17.1591 27.5103 18.0564 26.5 19.3698 26.5ZM19.3698 30.1073C20.1483 30.1073 20.7069 29.4952 20.7069 28.6989C20.7069 27.9025 20.1483 27.2904 19.3698 27.2904C18.5853 27.2904 18.0267 27.9025 18.0267 28.6989C18.0267 29.4952 18.5853 30.1073 19.3698 30.1073Z" fill="white"/>
</svg>
