<?xml version="1.0" encoding="UTF-8"?>
<svg id="Calque_1" xmlns="http://www.w3.org/2000/svg" version="1.1" viewBox="0 0 75 75">
  <!-- Generator: Adobe Illustrator 29.4.0, SVG Export Plug-In . SVG Version: 2.1.0 Build 152)  -->
  <defs>
    <style>
      .st0 {
        fill: #000091;
      }

      .st1 {
        fill: #6868f5;
      }

      .st2 {
        fill: #fff;
      }
    </style>
  </defs>
  <path class="st2" d="M36.7,74.7c16.2,0,29.4-13.2,29.4-29.4s-13.2-29.4-29.4-29.4S7.3,29.1,7.3,45.3s13.2,29.4,29.4,29.4Z"/>
  <path class="st0" d="M33.9,16.4c0,0-.2,0-.2,0,0,0,0-.1,0-.2v-6.5c0,0,0-.2,0-.2,0,0,.1,0,.2,0h5.1c0,0,.2,0,.2,0,0,0,0,.1,0,.2v6.4c0,0,0,.2,0,.2,0,0-.1,0-.2,0s-.2,0-.2,0c0,0,0-.1,0-.2v-6.1h-4.4v6.1c0,0,0,.2,0,.2,0,0-.1,0-.2,0Z"/>
  <path class="st0" d="M36.7,75c-4,0-8-.8-11.6-2.4-3.7-1.6-7-3.9-9.8-6.8,0,0,0-.1,0-.2s0-.2,0-.2c0,0,0,0,.1,0,0,0,0,0,.1,0s0,0,.1,0c0,0,0,0,.1,0,2.7,2.8,6,5.1,9.6,6.6,3.6,1.5,7.5,2.3,11.4,2.3,16,0,29.1-13,29.1-29.1s-13-29.1-29.1-29.1S7.6,29.3,7.6,45.3c0,5.5,1.6,11,4.6,15.7,0,0,0,.2,0,.2,0,0,0,.2-.1.2,0,0-.2,0-.2,0s-.2,0-.2-.1c-3.1-4.8-4.7-10.3-4.7-16,0-16.4,13.3-29.7,29.7-29.7s29.7,13.3,29.7,29.7-13.3,29.7-29.7,29.7Z"/>
  <path class="st1" d="M36.7,70.9c14.1,0,25.6-11.5,25.6-25.6s-11.5-25.6-25.6-25.6-25.6,11.5-25.6,25.6,11.5,25.6,25.6,25.6Z"/>
  <path class="st0" d="M38.9,12.5c0,0-.1,0-.2,0,0,0,0-.1-.1-.2,0,0,0-.1,0-.2,0,0,0-.1.2-.1,1.2-.5,2.2-1.5,2.9-2.7.6-1.2.8-2.6.5-3.9-.3-1.3-1-2.5-2.1-3.4-1-.8-2.4-1.3-3.7-1.3s-2.7.5-3.7,1.3c-1,.8-1.8,2-2.1,3.4-.3,1.3,0,2.7.5,3.9.6,1.2,1.6,2.2,2.9,2.7,0,0,0,0,.1,0,0,0,0,0,0,.1,0,0,0,0,0,.1,0,0,0,0,0,.1,0,0,0,0,0,.1,0,0,0,0-.1,0,0,0,0,0-.1,0,0,0,0,0-.1,0-1.4-.6-2.5-1.7-3.2-3-.7-1.3-.9-2.9-.6-4.3.3-1.5,1.1-2.8,2.3-3.7,1.2-.9,2.6-1.5,4.1-1.5s2.9.5,4.1,1.5c1.2.9,2,2.3,2.3,3.7.3,1.5.1,3-.6,4.3-.7,1.3-1.8,2.4-3.2,3,0,0,0,0-.1,0Z"/>
  <path class="st2" d="M36.7,25.4c0,0-.2,0-.2,0,0,0,0-.1,0-.2v-1.9c0,0,0-.2,0-.2,0,0,.1,0,.2,0s.2,0,.2,0c0,0,0,.1,0,.2v1.9c0,0,0,.2,0,.2,0,0-.1,0-.2,0ZM36.7,67.7c0,0-.2,0-.2,0,0,0,0-.1,0-.2v-1.9c0,0,0-.2,0-.2,0,0,.1,0,.2,0s.2,0,.2,0c0,0,0,.1,0,.2v1.9s0,0,0,.1c0,0,0,0,0,.1,0,0,0,0-.1,0,0,0,0,0-.1,0ZM58.8,45.6h-1.9c0,0-.2,0-.2,0s0-.1,0-.2,0-.2,0-.2c0,0,.1,0,.2,0h1.9c0,0,.2,0,.2,0,0,0,0,.1,0,.2s0,.2,0,.2c0,0-.1,0-.2,0ZM16.5,45.6h-1.9c0,0-.2,0-.2,0,0,0,0-.1,0-.2s0-.2,0-.2c0,0,.1,0,.2,0h1.9c0,0,.2,0,.2,0,0,0,0,.1,0,.2s0,.2,0,.2c0,0-.1,0-.2,0ZM26.6,28.1c0,0-.1,0-.2,0,0,0,0,0-.1-.1l-.9-1.6s0,0,0-.1c0,0,0,0,0-.1,0,0,0,0,0-.1,0,0,0,0,0,0,0,0,0,0,.1,0,0,0,0,0,.1,0,0,0,0,0,.1,0,0,0,0,0,0,0l.9,1.6c0,0,0,.2,0,.2,0,0,0,.2-.1.2,0,0-.1,0-.2,0ZM47.8,64.8c0,0-.1,0-.2,0,0,0,0,0-.1-.1l-.9-1.6c0,0,0-.2,0-.2,0,0,0-.2.1-.2s.2,0,.2,0c0,0,.2,0,.2.1l1,1.6c0,0,0,.2,0,.2,0,0,0,.2-.1.2,0,0-.1,0-.2,0ZM54.2,35.5c0,0-.1,0-.2,0,0,0,0-.1-.1-.2,0,0,0-.1,0-.2,0,0,0-.1.1-.2l1.6-.9c0,0,.2,0,.2,0,0,0,.1,0,.2.1,0,0,0,.2,0,.2,0,0,0,.1-.1.2l-1.6.9s-.1,0-.2,0ZM17.6,56.7c0,0-.1,0-.2,0,0,0,0,0-.1-.1,0,0,0,0,0-.1,0,0,0,0,0-.1,0,0,0,0,0-.1,0,0,0,0,0,0l1.6-.9s0,0,.1,0c0,0,0,0,.1,0,0,0,0,0,.1,0,0,0,0,0,0,0,0,0,0,0,0,.1,0,0,0,0,0,.1,0,0,0,0,0,.1,0,0,0,0,0,0l-1.6.9s-.1,0-.2,0ZM46.8,28.1c0,0-.1,0-.2,0,0,0,0,0,0,0s0,0,0-.1c0,0,0,0,0-.1,0,0,0,0,0-.1l.9-1.6c0,0,.1-.1.2-.1,0,0,.2,0,.2,0,0,0,.1.1.1.2,0,0,0,.2,0,.2l-.9,1.6s0,0-.1.1c0,0-.1,0-.2,0ZM25.7,64.8c0,0-.1,0-.2,0,0,0-.1-.1-.1-.2,0,0,0-.2,0-.2l.9-1.6c0,0,.1-.1.2-.1,0,0,.2,0,.2,0s.1.1.1.2c0,0,0,.2,0,.2l-.9,1.6s0,0-.1.1-.1,0-.2,0ZM19.2,35.5c0,0-.1,0-.2,0l-1.6-.9c0,0-.1-.1-.1-.2,0,0,0-.2,0-.2,0,0,.1-.1.2-.1,0,0,.2,0,.2,0l1.6.9c0,0,.1,0,.1.2,0,0,0,.1,0,.2,0,0,0,.1-.1.2,0,0-.1,0-.2,0ZM55.9,56.7c0,0-.1,0-.2,0l-1.6-.9s0,0,0,0c0,0,0,0,0-.1,0,0,0,0,0-.1,0,0,0,0,0-.1,0,0,0,0,0,0,0,0,0,0,.1,0,0,0,0,0,.1,0s0,0,.1,0l1.6.9c0,0,.1,0,.1.2,0,0,0,.1,0,.2s0,.1-.1.2c0,0-.1,0-.2,0Z"/>
  <path class="st2" d="M35.7,27.5h2.1v22.1h-2.1v-22.1Z"/>
  <path class="st2" d="M36.7,47.7c1.3,0,2.4-1.1,2.4-2.4s-1.1-2.4-2.4-2.4-2.4,1.1-2.4,2.4,1.1,2.4,2.4,2.4Z"/>
</svg>