<svg width="78" height="69" viewBox="0 0 78 69" fill="none" xmlns="http://www.w3.org/2000/svg">
<path d="M71.7499 69H6.24535C5.14911 68.9998 4.07222 68.7121 3.12289 68.1656C2.17355 67.6192 1.3852 66.8334 0.837031 65.8871C0.288863 64.9408 0.000181563 63.8674 8.56156e-08 62.7747C-0.000181391 61.682 0.288144 60.6085 0.835998 59.662L33.5883 3.11278C34.1365 2.16637 34.9251 1.38047 35.8746 0.834062C36.8241 0.287659 37.9012 0 38.9976 0C40.094 0 41.1711 0.287659 42.1206 0.834062C43.0702 1.38047 43.8587 2.16637 44.407 3.11278L77.1623 59.659C77.711 60.6057 77.9999 61.6799 78 62.7733C78.0001 63.8667 77.7113 64.9408 77.1626 65.8877C76.614 66.8345 75.825 67.6206 74.8748 68.167C73.9246 68.7133 72.8468 69.0006 71.7499 69Z" fill="#F6BD5F"/>
<path d="M71.75 65.7733H6.24542C5.71794 65.7702 5.20046 65.6295 4.74442 65.3653C4.28839 65.101 3.90969 64.7224 3.64597 64.267C3.38226 63.8117 3.24272 63.2954 3.24122 62.7696C3.23973 62.2438 3.37633 61.7268 3.63744 61.27L36.3897 4.72678C36.6562 4.27311 37.0371 3.89684 37.4946 3.63537C37.9521 3.3739 38.4703 3.23633 38.9977 3.23633C39.5251 3.23633 40.0433 3.3739 40.5008 3.63537C40.9583 3.89684 41.3392 4.27311 41.6057 4.72678L74.3519 61.27C74.6128 61.7264 74.7494 62.2428 74.7481 62.7681C74.7469 63.2934 74.6079 63.8093 74.3449 64.2645C74.0819 64.7196 73.7041 65.0984 73.2489 65.3631C72.7937 65.6277 72.2769 65.7691 71.75 65.7733ZM37.6831 5.47081L4.93388 62.017C4.79886 62.2464 4.72719 62.5074 4.72616 62.7733C4.72513 63.0393 4.79478 63.3008 4.92802 63.5312C5.06126 63.7617 5.25334 63.9528 5.48474 64.0852C5.71613 64.2177 5.97859 64.2867 6.24542 64.2852H71.75C72.0171 64.2872 72.2799 64.2186 72.5117 64.0864C72.7435 63.9542 72.936 63.7631 73.0696 63.5325C73.2032 63.302 73.2731 63.0403 73.2722 62.7741C73.2714 62.5079 73.1997 62.2466 73.0645 62.017L40.3092 5.47081C40.1772 5.23974 39.9862 5.04761 39.7556 4.91397C39.525 4.78033 39.2629 4.70993 38.9962 4.70993C38.7294 4.70993 38.4674 4.78033 38.2368 4.91397C38.0061 5.04761 37.8151 5.23974 37.6831 5.47081Z" fill="white"/>
<path d="M38.9949 49.3843C38.4247 49.3834 37.8767 49.164 37.4644 48.7715C37.052 48.379 36.8069 47.8434 36.7797 47.2757L35.5196 23.4789C35.504 23.1791 35.5497 22.8794 35.654 22.5978C35.7582 22.3163 35.9188 22.0588 36.126 21.841C36.3332 21.6232 36.5826 21.4497 36.8592 21.331C37.1357 21.2122 37.4336 21.1508 37.7347 21.1504H40.255C40.5564 21.1504 40.8546 21.2115 41.1315 21.3301C41.4084 21.4486 41.6582 21.6221 41.8657 21.8399C42.0732 22.0577 42.234 22.3153 42.3385 22.5971C42.4429 22.8789 42.4887 23.1789 42.4732 23.4789L41.213 47.2757C41.1858 47.844 40.9403 48.3799 40.5273 48.7725C40.1143 49.1651 39.5655 49.3842 38.9949 49.3843Z" fill="white"/>
<path d="M38.9981 58.1859C40.4818 58.1859 41.6846 56.9869 41.6846 55.508C41.6846 54.029 40.4818 52.8301 38.9981 52.8301C37.5143 52.8301 36.3115 54.029 36.3115 55.508C36.3115 56.9869 37.5143 58.1859 38.9981 58.1859Z" fill="white"/>
</svg>
