<svg width="80" height="71" viewBox="0 0 80 71" fill="none" xmlns="http://www.w3.org/2000/svg">
<path d="M73.5896 71H6.40549C5.28114 70.9998 4.17664 70.7037 3.20296 70.1414C2.22928 69.5792 1.42072 68.7706 0.858494 67.7969C0.296269 66.8232 0.000186218 65.7186 8.78109e-08 64.5942C-0.000186042 63.4698 0.295532 62.3652 0.857434 61.3913L34.4495 3.20301C35.0118 2.22916 35.8206 1.42048 36.7945 0.858238C37.7683 0.295996 38.873 0 39.9976 0C41.1221 0 42.2268 0.295996 43.2007 0.858238C44.1745 1.42048 44.9833 2.22916 45.5456 3.20301L79.1408 61.3882C79.7036 62.3624 79.9999 63.4677 80 64.5928C80.0001 65.7179 79.7039 66.8232 79.1412 67.7974C78.5785 68.7717 77.7692 69.5806 76.7946 70.1428C75.8201 70.705 74.7147 71.0007 73.5896 71Z" fill="#FCC63A"/>
<path d="M73.5896 67.6802H6.40546C5.86445 67.677 5.3337 67.5323 4.86597 67.2603C4.39825 66.9884 4.00984 66.5988 3.73936 66.1303C3.46889 65.6617 3.32577 65.1305 3.32423 64.5895C3.3227 64.0484 3.4628 63.5164 3.73061 63.0463L37.3227 4.86422C37.596 4.3974 37.9866 4.01023 38.4559 3.74117C38.9251 3.47212 39.4566 3.33057 39.9975 3.33057C40.5384 3.33057 41.0699 3.47212 41.5392 3.74117C42.0084 4.01023 42.3991 4.3974 42.6724 4.86422L76.2582 63.0463C76.5258 63.516 76.6659 64.0474 76.6647 64.5879C76.6634 65.1284 76.5208 65.6592 76.2511 66.1276C75.9813 66.596 75.5938 66.9857 75.1269 67.2581C74.6601 67.5304 74.1301 67.6759 73.5896 67.6802ZM38.6493 5.62982L5.06029 63.815C4.92181 64.0511 4.8483 64.3196 4.84725 64.5933C4.84619 64.8669 4.91762 65.136 5.05428 65.3731C5.19094 65.6102 5.38795 65.8069 5.62527 65.9432C5.8626 66.0795 6.13179 66.1505 6.40546 66.149H73.5896C73.8635 66.1511 74.1331 66.0805 74.3709 65.9444C74.6086 65.8083 74.8061 65.6117 74.9431 65.3745C75.0801 65.1373 75.1518 64.868 75.1509 64.594C75.15 64.3201 75.0765 64.0513 74.9379 63.815L41.3427 5.62982C41.2073 5.39204 41.0114 5.19435 40.7749 5.05684C40.5383 4.91932 40.2696 4.84688 39.996 4.84688C39.7224 4.84688 39.4536 4.91932 39.2171 5.05684C38.9806 5.19435 38.7846 5.39204 38.6493 5.62982Z" fill="white"/>
<path d="M39.9942 50.8155C39.4094 50.8146 38.8474 50.5888 38.4245 50.1849C38.0015 49.781 37.7501 49.2299 37.7223 48.6458L36.4298 24.1592C36.4138 23.8507 36.4608 23.5423 36.5677 23.2526C36.6746 22.9628 36.8393 22.6979 37.0518 22.4738C37.2643 22.2497 37.5201 22.0711 37.8038 21.949C38.0874 21.8268 38.3929 21.7636 38.7017 21.7632H41.2867C41.5957 21.7632 41.9016 21.8261 42.1856 21.9481C42.4696 22.07 42.7258 22.2485 42.9386 22.4727C43.1514 22.6968 43.3164 22.9619 43.4236 23.2518C43.5307 23.5418 43.5777 23.8505 43.5617 24.1592L42.2692 48.6458C42.2413 49.2305 41.9895 49.782 41.5659 50.186C41.1423 50.5899 40.5795 50.8154 39.9942 50.8155Z" fill="white"/>
<path d="M39.9976 59.8724C41.5194 59.8724 42.7531 58.6387 42.7531 57.1169C42.7531 55.595 41.5194 54.3613 39.9976 54.3613C38.4758 54.3613 37.2422 55.595 37.2422 57.1169C37.2422 58.6387 38.4758 59.8724 39.9976 59.8724Z" fill="white"/>
</svg>
